<svg width="24" height="25" viewBox="0 0 24 25" fill="none" xmlns="http://www.w3.org/2000/svg">
<path d="M20.3032 4.55957C19.0082 2.98757 17.2062 2.12158 15.2282 2.12158C14.0882 2.12158 12.9852 2.38861 12.0002 2.89661C11.0162 2.38861 9.91219 2.12158 8.77219 2.12158C6.79419 2.12158 4.99218 2.98757 3.69718 4.55957C2.29418 6.26257 1.7122 8.58754 2.1392 10.7795C3.1332 15.8745 8.2912 19.4155 10.4632 20.7015C10.9372 20.9805 11.4682 21.1216 11.9992 21.1216C12.5302 21.1216 13.0622 20.9806 13.5362 20.7006C15.7082 19.4156 20.8662 15.8745 21.8602 10.7795C22.2882 8.58754 21.7062 6.26257 20.3032 4.55957ZM19.8972 10.3956C19.0582 14.6956 14.4572 17.8306 12.5182 18.9786C12.1992 19.1666 11.8012 19.1666 11.4822 18.9786C9.54318 17.8306 4.94119 14.6956 4.10319 10.3956C3.78919 8.78463 4.21419 7.07757 5.24219 5.83057C6.15019 4.72757 7.4042 4.12158 8.7732 4.12158C9.7432 4.12158 10.6732 4.38858 11.4622 4.89258C11.7902 5.10158 12.2102 5.10158 12.5382 4.89258C13.3282 4.38858 14.2572 4.12158 15.2272 4.12158C16.5972 4.12158 17.8512 4.72757 18.7582 5.83057C19.7862 7.07757 20.2122 8.78463 19.8972 10.3956Z" fill="black" fill-opacity="0.12"/>
</svg>
