<svg width="25" height="25" viewBox="0 0 25 25" fill="none" xmlns="http://www.w3.org/2000/svg">
<path d="M20.478 7.43702L15.478 3.41561C13.752 2.02813 11.248 2.02813 9.522 3.41561L4.522 7.43702C3.396 8.34233 2.75 9.68978 2.75 11.1343V17.1284C2.75 19.7453 4.881 21.875 7.5 21.875H10.25V17.1284C10.25 15.8899 11.259 14.8816 12.5 14.8816C13.741 14.8816 14.75 15.8899 14.75 17.1284V21.875H17.5C20.119 21.875 22.25 19.7463 22.25 17.1284V11.1343C22.25 9.68978 21.604 8.34233 20.478 7.43702ZM20.75 17.1284C20.75 18.918 19.292 20.3745 17.5 20.3745H16.25V17.1284C16.25 15.0626 14.568 13.381 12.5 13.381C10.432 13.381 8.75 15.0626 8.75 17.1284V20.3745H7.5C5.708 20.3745 4.25 18.918 4.25 17.1284V11.1343C4.25 10.1469 4.691 9.22565 5.461 8.60643L10.461 4.58502C11.643 3.63569 13.357 3.63569 14.538 4.58502L19.538 8.60643C20.308 9.22565 20.749 10.1469 20.749 11.1343V17.1284H20.75Z" fill="black" fill-opacity="0.12"/>
</svg>
