<svg width="25" height="25" viewBox="0 0 25 25" fill="none" xmlns="http://www.w3.org/2000/svg">
<path d="M21.737 6.29858L18.323 2.88452C17.992 2.55352 17.553 2.37158 17.086 2.37158H11.5C9.432 2.37158 7.75 4.05358 7.75 6.12158V6.37158H6.5C4.432 6.37158 2.75 8.05358 2.75 10.1216V18.1216C2.75 20.1896 4.432 21.8716 6.5 21.8716H13.5C15.568 21.8716 17.25 20.1896 17.25 18.1216V17.8716H18.5C20.568 17.8716 22.25 16.1896 22.25 14.1216V7.53552C22.25 7.06852 22.068 6.62858 21.737 6.29858ZM18.25 4.93164L19.689 6.37061H19.312C18.727 6.37061 18.25 5.89359 18.25 5.30859V4.93164ZM15.75 18.1216C15.75 19.3626 14.741 20.3716 13.5 20.3716H6.5C5.259 20.3716 4.25 19.3626 4.25 18.1216V10.1216C4.25 8.88058 5.259 7.87158 6.5 7.87158H7.75V14.1216C7.75 16.1896 9.432 17.8716 11.5 17.8716H15.75V18.1216ZM18.5 16.3716H11.5C10.259 16.3716 9.25 15.3626 9.25 14.1216V6.12158C9.25 4.88058 10.259 3.87158 11.5 3.87158H16.75V5.30957C16.75 6.72257 17.899 7.87158 19.312 7.87158H20.75V14.1216C20.75 15.3616 19.741 16.3716 18.5 16.3716Z" fill="black" fill-opacity="0.12"/>
</svg>
