<svg width="25" height="25" viewBox="0 0 25 25" fill="none" xmlns="http://www.w3.org/2000/svg">
<path d="M12.499 12.8713C15.394 12.8713 17.749 10.5163 17.749 7.62134C17.749 4.72634 15.394 2.37134 12.499 2.37134C9.60396 2.37134 7.24896 4.72634 7.24896 7.62134C7.24896 10.5163 9.60396 12.8713 12.499 12.8713ZM12.499 3.87134C14.567 3.87134 16.249 5.55334 16.249 7.62134C16.249 9.68934 14.567 11.3713 12.499 11.3713C10.431 11.3713 8.74896 9.68934 8.74896 7.62134C8.74896 5.55334 10.431 3.87134 12.499 3.87134ZM20.249 18.0884V19.0994C20.249 20.0344 19.908 20.9303 19.288 21.6213C19.14 21.7873 18.9349 21.8713 18.7289 21.8713C18.5509 21.8713 18.3719 21.8083 18.2289 21.6803C17.9199 21.4043 17.895 20.9303 18.171 20.6213C18.544 20.2043 18.7499 19.6643 18.7499 19.1003V18.0894C18.7499 16.5754 17.7459 15.2653 16.3069 14.9043C16.0539 14.8403 15.782 14.8754 15.561 15.0004C13.66 16.0584 11.3339 16.0543 9.44495 15.0033C9.21895 14.8743 8.94697 14.8373 8.69397 14.9033C7.25497 15.2653 6.24994 16.5754 6.24994 18.0894V19.1003C6.24994 19.6653 6.45598 20.2053 6.82898 20.6213C7.10498 20.9303 7.07894 21.4043 6.77094 21.6803C6.46094 21.9573 5.98698 21.9303 5.71198 21.6223C5.09198 20.9303 4.75098 20.0343 4.75098 19.1003V18.0894C4.75098 15.8874 6.22194 13.9793 8.32794 13.4493C8.95094 13.2913 9.62795 13.3814 10.1819 13.6974C11.6119 14.4934 13.384 14.4963 14.826 13.6943C15.373 13.3823 16.05 13.2933 16.675 13.4503C18.778 13.9773 20.249 15.8854 20.249 18.0884Z" fill="#E0E0E0"/>
</svg>
