<svg width="20" height="19" viewBox="0 0 20 19" fill="none" xmlns="http://www.w3.org/2000/svg">
<path d="M19.3695 8.18359C18.4145 13.0796 13.3955 16.5185 11.2825 17.7705C10.8865 18.0035 10.4435 18.1216 10.0005 18.1216C9.55748 18.1216 9.11447 18.0045 8.71847 17.7705C6.60447 16.5185 1.58549 13.0806 0.63049 8.18359C0.23149 6.13659 0.774493 3.96646 2.08349 2.37646C3.28149 0.922465 4.94649 0.121582 6.77249 0.121582C7.92149 0.121582 9.03048 0.412576 10.0005 0.965576C10.9705 0.412576 12.0795 0.121582 13.2285 0.121582C15.0545 0.121582 16.7195 0.922465 17.9175 2.37646C19.2255 3.96646 19.7685 6.13659 19.3695 8.18359Z" fill="#1F3C88"/>
</svg>
