<svg width="25" height="25" viewBox="0 0 25 25" fill="none" xmlns="http://www.w3.org/2000/svg">
<path d="M11.5 19.6216H17.2C16.61 21.0916 15.18 22.1216 13.5 22.1216H6.5C4.29 22.1216 2.5 20.3316 2.5 18.1216V10.1216C2.5 8.08158 4.03 6.40161 6 6.15161V14.1216C6 17.1516 8.47 19.6216 11.5 19.6216ZM20 6.37158H22.12C22.06 6.28158 21.99 6.20158 21.91 6.12158L18.5 2.71167C18.42 2.63167 18.34 2.56147 18.25 2.51147V4.62158C18.25 5.58158 19.04 6.37158 20 6.37158ZM20 7.87158C18.21 7.87158 16.75 6.41158 16.75 4.62158V2.12158H11.5C9.29 2.12158 7.5 3.91158 7.5 6.12158V14.1216C7.5 16.3316 9.29 18.1216 11.5 18.1216H18.5C20.71 18.1216 22.5 16.3316 22.5 14.1216V7.87158H20Z" fill="#1F3C88"/>
</svg>
