<svg width="25" height="25" viewBox="0 0 25 25" fill="none" xmlns="http://www.w3.org/2000/svg">
<path d="M7.50049 7.62109C7.50049 4.86409 9.74349 2.62109 12.5005 2.62109C15.2575 2.62109 17.5005 4.86409 17.5005 7.62109C17.5005 10.3781 15.2575 12.6211 12.5005 12.6211C9.74349 12.6211 7.50049 10.3781 7.50049 7.62109ZM16.6175 13.6921C16.0585 13.5501 15.4505 13.6302 14.9475 13.9102C13.4295 14.7542 11.5715 14.7542 10.0535 13.9102C9.55147 13.6312 8.94248 13.5521 8.38348 13.6921C6.39148 14.1951 5.00049 16.0031 5.00049 18.0881V19.0991C5.00049 19.7371 5.17047 20.361 5.49347 20.905C5.75647 21.347 6.2495 21.6221 6.7785 21.6221H18.2215C18.7505 21.6221 19.2435 21.3481 19.5065 20.9041C19.8295 20.3611 19.9995 19.7371 19.9995 19.0991V18.0881C20.0005 16.0031 18.6095 14.1951 16.6175 13.6921Z" fill="#1F3C88"/>
</svg>
