<svg width="414" height="168" viewBox="0 0 414 168" fill="none" xmlns="http://www.w3.org/2000/svg">
<path d="M92.7969 95.1797L89.3515 88.289L90.6531 85.9156L93.0265 90.6625L94.4812 88.289H106.119C106.119 88.289 106.578 88.5953 106.578 89.4375C106.578 90.2797 106.119 90.5093 106.119 90.5093H95.7062L92.7969 95.1797Z" fill="#DCEDFE"/>
<path d="M84.6812 78.7953L79.3984 93.8016L76.8718 86.375L75.1875 90.3562L63.3968 90.4328C63.3968 90.4328 63.014 90.3562 63.014 89.3609C63.014 88.3656 63.3968 88.2125 63.3968 88.2125L73.7328 88.1359L77.025 80.1734L79.3984 87.1406L84.2984 73.2828L89.8109 84.0781C91.4953 79.1781 90.8828 75.5031 90.8828 75.5031C90.8828 75.5031 90.5765 66.6219 81.1594 66.6219C71.7422 66.6219 71.2828 74.4312 71.2828 74.4312C71.2828 74.4312 70.8234 66.6219 61.4062 66.6219C51.989 66.6219 51.6828 75.5031 51.6828 75.5031C51.6828 75.5031 49.0797 92.1937 71.2828 101.994C81.3125 97.5531 86.2125 91.8109 88.6625 86.7578L84.6812 78.7953Z" fill="#DCEDFE"/>
<path d="M100.453 167.684L99.9937 169.139C99.6109 170.288 98.4625 170.977 97.3906 170.67C96.3187 170.364 95.7828 169.139 96.1656 167.991L96.625 166.536L100.453 167.684Z" fill="#DCEDFE"/>
<path d="M99.1515 164.086L105.583 143.184C105.659 143.031 105.812 142.955 105.966 143.031C106.119 143.108 106.195 143.261 106.119 143.414L99.6875 164.316C99.6109 164.469 99.4578 164.545 99.3047 164.469C99.2281 164.392 99.075 164.239 99.1515 164.086Z" fill="#DCEDFE"/>
<path d="M103.516 131.317L97.3906 151.147C96.7015 153.444 97.5437 155.894 99.3812 157.272L96.7781 165.77L100.606 166.919L103.209 158.42C105.506 158.344 107.573 156.813 108.339 154.516L114.464 134.686C115.383 131.777 113.698 128.638 110.789 127.795L110.406 127.642C107.573 126.723 104.434 128.408 103.516 131.317ZM105.966 130.475L108.416 131.241L108.569 130.781C108.722 130.169 109.334 129.863 109.947 130.016C110.559 130.169 110.866 130.781 110.712 131.394L110.559 131.853L112.55 132.466C112.78 132.542 112.856 132.772 112.856 133.002C112.78 133.231 112.55 133.308 112.32 133.308L110.33 132.695L109.181 136.523L111.172 137.136C111.402 137.213 111.478 137.442 111.478 137.672C111.402 137.902 111.172 137.978 110.942 137.978L108.952 137.366L107.803 141.117L109.794 141.73C110.023 141.806 110.1 142.036 110.1 142.266C110.023 142.495 109.794 142.572 109.564 142.572L107.573 141.959L106.425 145.711L108.416 146.323C108.645 146.4 108.722 146.63 108.722 146.859C108.645 147.089 108.416 147.166 108.186 147.166L106.195 146.553L105.047 150.305L107.037 150.917C107.267 150.994 107.344 151.223 107.344 151.453C107.267 151.683 107.037 151.759 106.808 151.759L104.817 151.147L100.453 164.469C100.3 165.081 99.6875 165.388 99.075 165.234C98.4625 165.081 98.1562 164.469 98.3094 163.856L102.444 150.381L99.9937 149.616C99.764 149.539 99.6875 149.309 99.6875 149.08C99.764 148.85 99.9937 148.773 100.223 148.773L102.673 149.539L103.822 145.711L101.372 144.945C101.142 144.869 101.066 144.639 101.066 144.409C101.142 144.18 101.372 144.103 101.602 144.103L104.052 144.869L105.2 141.041L102.75 140.275C102.52 140.198 102.444 139.969 102.444 139.739C102.52 139.509 102.75 139.433 102.98 139.433L105.43 140.198L106.578 136.37L104.128 135.605C103.898 135.528 103.822 135.298 103.822 135.069C103.898 134.839 104.128 134.763 104.358 134.763L106.808 135.528L107.956 131.777L105.506 131.011C105.277 130.934 105.2 130.705 105.2 130.475C105.506 130.552 105.736 130.398 105.966 130.475Z" fill="#DCEDFE"/>
<path d="M157.798 138.514L147.922 145.941L144.17 140.964L142.945 141.883L142.333 142.342L137.203 146.17L135.442 147.548L136.82 149.309L139.27 152.525L129.394 159.952C127.939 161.1 127.633 163.167 128.705 164.622L143.481 184.375C144.63 185.83 146.697 186.136 148.152 185.064L176.556 163.78C178.011 162.631 178.317 160.564 177.245 159.109L162.469 139.203C161.397 137.748 159.253 137.442 157.798 138.514ZM138.581 147.931L143.711 144.103L146.161 147.319L141.031 151.147L138.581 147.931ZM160.708 157.884C161.244 158.65 161.091 159.645 160.402 160.258L157.645 162.325L159.712 165.081C160.248 165.847 160.095 166.842 159.406 167.455L156.727 169.445C155.961 169.981 154.966 169.828 154.353 169.139L152.286 166.383L149.53 168.45C148.764 168.986 147.769 168.833 147.156 168.144L145.166 165.464C144.63 164.698 144.783 163.703 145.472 163.091L148.228 161.023L146.161 158.267C145.625 157.502 145.778 156.506 146.467 155.894L149.147 153.903C149.912 153.367 150.908 153.52 151.52 154.209L153.587 156.966L156.344 154.898C157.109 154.362 158.105 154.516 158.717 155.205L160.708 157.884Z" fill="#DCEDFE"/>
<path d="M145.322 90.1584L140.841 93.8701L149.583 104.424L154.064 100.712L145.322 90.1584Z" fill="#DCEDFE"/>
<path d="M147.489 88.3923L146.781 88.9783L148.979 91.6316L149.686 91.0455L147.489 88.3923Z" fill="#DCEDFE"/>
<path d="M149.837 86.4571L149.13 87.0431L153.477 92.2906L154.184 91.7046L149.837 86.4571Z" fill="#DCEDFE"/>
<path d="M152.085 84.5795L151.377 85.1656L153.575 87.8188L154.282 87.2327L152.085 84.5795Z" fill="#DCEDFE"/>
<path d="M154.433 82.6443L153.726 83.2303L158.073 88.4778L158.78 87.8918L154.433 82.6443Z" fill="#DCEDFE"/>
<path d="M156.74 80.7178L156.032 81.3039L158.23 83.9571L158.938 83.3711L156.74 80.7178Z" fill="#DCEDFE"/>
<path d="M159.029 78.8315L158.322 79.4175L162.669 84.665L163.376 84.079L159.029 78.8315Z" fill="#DCEDFE"/>
<path d="M174.259 88.5953L170.125 83.6187L175.867 78.8719L178.394 81.9344C178.7 82.3172 179.312 82.3937 179.695 82.0875C180.078 81.7812 180.155 81.1687 179.848 80.7859L169.972 68.8422C169.666 68.4594 169.053 68.3828 168.67 68.6891C168.287 68.9953 168.211 69.6078 168.517 69.9906L171.044 73.0531L165.302 77.8L161.167 72.8234C160.861 72.4406 160.248 72.364 159.866 72.6703C159.483 72.9765 159.406 73.5891 159.712 73.9719L160.784 75.2734L138.352 93.8781L139.423 99.1609C138.581 99.85 138.428 101.152 139.194 101.994L140.112 103.142L127.786 113.325L130.083 112.559L140.648 103.831L141.567 104.98C142.256 105.822 143.558 105.975 144.4 105.209L149.377 107.2L171.809 88.5953L172.881 89.8969C173.187 90.2797 173.8 90.3562 174.183 90.05C174.489 89.5141 174.566 88.9781 174.259 88.5953ZM149.453 105.286L140.036 93.8781L160.937 76.575L170.355 87.9828L149.453 105.286Z" fill="#DCEDFE"/>
<path d="M65.464 123.508L62.2484 117.995C61.9422 117.459 61.3297 117.306 60.7937 117.613L52.6015 122.359V112.789C52.6015 112.177 52.1422 111.717 51.5297 111.717H45.0984C44.4859 111.717 44.0265 112.177 44.0265 112.789V122.359L35.7578 117.536C35.2219 117.23 34.6094 117.383 34.3031 117.919L31.0875 123.431C30.7812 123.967 30.9344 124.58 31.4703 124.886L39.739 129.709L31.5469 134.456C31.0109 134.763 30.8578 135.375 31.164 135.911L34.3797 141.423C34.6859 141.959 35.2984 142.113 35.8344 141.806L44.1031 136.983V146.553C44.1031 147.166 44.5625 147.625 45.175 147.625H51.6062C52.2187 147.625 52.6781 147.166 52.6781 146.553V136.983L60.9469 141.806C61.4828 142.113 62.0953 141.959 62.4015 141.423L65.6172 135.911C65.9234 135.375 65.7703 134.763 65.2344 134.456L56.8125 129.709L65.0812 124.886C65.6172 124.656 65.7703 123.967 65.464 123.508Z" fill="#DCEDFE"/>
<path d="M233.672 145.634L233.136 146.323L233.059 147.089L232.6 147.395L230.839 146.323L230.916 145.252C231.375 145.252 231.834 144.945 232.217 144.333L232.83 144.409C233.136 144.103 233.366 143.72 233.595 143.261C233.978 142.342 234.131 141.347 233.978 140.275C233.825 139.203 233.442 138.131 232.906 136.983C232.141 135.452 230.686 133.384 228.542 130.705C227.011 128.791 226.016 127.412 225.556 126.647L224.944 126.8L223.183 123.508L223.259 123.355C222.8 122.436 222.034 121.67 221.116 121.287C219.891 120.752 218.819 120.828 217.67 121.441C216.598 122.053 215.756 123.048 215.22 124.273C214.761 125.269 214.531 126.264 214.531 127.336C214.531 128.408 214.684 129.48 215.067 130.475H215.297C215.373 130.705 215.603 131.164 215.909 131.777C216.369 132.695 216.675 133.384 216.828 133.844L216.522 134.227C217.058 135.375 217.594 137.366 218.13 140.122C218.666 142.878 219.278 145.022 219.967 146.553C220.656 148.161 221.805 149.309 223.489 150.075C224.255 150.458 225.02 150.381 225.709 149.998C226.398 149.539 226.934 148.927 227.394 147.931L228.542 148.237L229.155 149.769C228.925 150.305 228.619 150.458 228.236 150.305L227.394 150.917L226.934 150.841C225.403 151.683 223.948 151.759 222.57 151.147C220.886 150.381 219.661 149.156 218.895 147.548C218.206 145.941 217.517 143.72 217.058 140.887C216.522 137.978 215.986 135.911 215.373 134.686L214.761 134.762L214.072 133.461L213.23 131.47L213.383 131.241C212.387 128.714 212.464 126.187 213.612 123.737C213.919 123.048 214.378 122.283 214.914 121.441C214.914 121.364 214.914 121.287 214.914 121.211C214.914 120.905 214.914 120.675 214.837 120.598C214.608 120.216 214.148 119.373 213.459 117.995C211.852 114.856 210.397 112.406 209.095 110.722C207.794 109.037 205.88 107.583 203.506 106.511C200.367 105.056 197.228 104.903 194.166 105.975C192.634 106.434 191.333 107.277 190.108 108.272C188.883 109.344 187.964 110.645 187.275 112.253C186.433 114.167 185.973 116.158 186.05 118.225C186.05 120.369 186.509 122.359 187.275 124.35C188.041 126.341 189.112 128.178 190.567 129.786C191.945 131.394 193.63 132.695 195.391 133.614L195.927 133.155L196.692 133.614L196.616 134.15L197.994 134.762L197.841 134.227L198.3 133.078C198.759 132.772 199.295 132.619 199.831 132.619C200.367 132.619 200.98 132.772 201.516 133.002C202.205 133.308 202.741 133.691 203.2 134.073C203.659 134.456 203.889 134.992 204.042 135.605L203.506 136.677L201.669 137.136L201.745 137.289C202.358 137.748 202.817 138.208 203.2 138.82C203.583 139.433 203.659 139.969 203.43 140.581C202.511 141.423 201.669 141.883 200.903 142.036C200.137 142.112 199.219 141.959 198.07 141.423C196.998 140.964 196.233 140.428 195.85 139.816C195.391 139.203 195.161 138.361 195.008 137.136L196.616 135.834L196.08 135.605C196.003 135.528 195.85 135.605 195.773 135.758C195.62 135.911 195.544 135.987 195.467 136.064L194.778 135.681L194.855 135.222C192.787 134.227 191.027 132.772 189.495 131.011C187.964 129.25 186.739 127.183 185.82 124.962C184.978 122.742 184.519 120.445 184.442 118.072C184.442 115.698 184.902 113.478 185.82 111.411C186.662 109.573 187.734 108.042 189.112 106.817C190.491 105.516 192.022 104.673 193.706 104.061C197.228 102.912 200.827 103.142 204.502 104.827C206.186 105.592 207.87 106.664 209.325 108.042C210.856 109.42 212.005 110.875 212.923 112.483V112.559C213.842 114.32 214.455 115.622 214.914 116.387C215.297 117.153 215.756 117.842 216.139 118.455C216.522 119.067 216.905 119.45 217.058 119.527C218.13 119.297 219.048 119.144 219.814 119.067C220.58 118.991 221.345 119.144 222.187 119.527C222.647 119.756 223.259 120.139 223.872 120.752C224.484 121.364 224.944 121.9 225.097 122.359L225.327 122.436C226.016 123.584 226.628 124.656 227.164 125.652L226.858 126.111C227.394 127.106 228.542 128.637 230.15 130.628C231.222 131.93 232.141 133.078 232.83 134.073C233.519 135.069 234.131 136.064 234.591 137.136C235.05 138.208 235.356 139.356 235.433 140.505C235.509 141.653 235.28 142.878 234.744 144.027C234.667 144.256 234.437 144.562 234.131 144.945L233.902 145.252L233.672 145.634ZM215.22 119.373C214.761 118.608 214.378 117.766 213.919 116.923C212.234 113.861 210.78 111.564 209.478 109.88C208.177 108.195 206.339 106.894 203.966 105.822C202.052 104.98 200.137 104.597 198.07 104.597C196.08 104.673 194.166 105.133 192.405 106.205C194.089 105.209 195.927 104.75 197.841 104.673C199.755 104.673 201.669 105.056 203.506 105.898C205.88 106.97 207.794 108.425 209.172 110.186C210.55 111.947 212.081 114.397 213.766 117.612C214.531 118.991 214.914 119.833 215.067 120.062L215.22 119.373ZM223.872 122.589C223.336 121.67 222.57 121.058 221.498 120.598C220.35 120.062 219.202 120.062 218.13 120.522C216.981 120.981 216.139 121.823 215.45 122.895C216.139 121.9 216.981 121.134 218.053 120.752C219.125 120.369 220.197 120.369 221.269 120.828C221.805 121.058 222.341 121.517 222.877 122.13C223.183 122.512 223.412 122.742 223.566 122.819L223.872 122.589ZM226.016 124.35L225.02 122.512C224.561 122.972 224.025 123.355 223.259 123.584L224.331 125.345C225.02 125.116 225.633 124.809 226.016 124.35ZM226.398 124.962L226.092 124.503V124.427C225.709 124.886 225.097 125.192 224.255 125.422L224.561 125.958C225.556 125.728 226.092 125.345 226.398 124.962ZM226.245 125.116V125.039C226.092 124.809 226.092 124.733 226.092 124.656C226.092 124.733 226.169 124.809 226.169 124.962L226.245 125.116ZM225.939 124.733L226.245 125.192V125.269C226.016 125.039 225.939 124.886 225.939 124.733ZM225.862 124.809C225.862 124.886 225.939 124.962 226.016 125.039C226.092 125.116 226.169 125.192 226.169 125.269H226.092C225.939 125.116 225.862 124.962 225.862 124.809ZM226.628 125.422C226.552 125.345 226.475 125.269 226.475 125.192C225.862 125.728 225.327 126.034 224.791 126.111L225.02 126.647C225.173 126.647 225.48 126.57 225.939 126.264C226.398 126.034 226.628 125.805 226.705 125.728C226.781 125.575 226.705 125.498 226.628 125.422ZM225.633 124.886C225.633 124.962 225.709 125.039 225.786 125.192L225.862 125.345V125.422C225.786 125.269 225.633 125.039 225.633 124.886ZM225.48 125.039C225.556 125.039 225.556 125.116 225.633 125.192C225.709 125.345 225.786 125.422 225.709 125.498C225.633 125.345 225.556 125.192 225.48 125.039ZM225.556 125.575L225.48 125.422C225.403 125.269 225.403 125.192 225.403 125.116V125.039C225.403 125.116 225.48 125.192 225.48 125.345L225.556 125.575ZM225.327 125.422C225.25 125.345 225.173 125.269 225.173 125.192L225.48 125.575V125.652C225.403 125.652 225.403 125.575 225.327 125.422ZM225.097 125.498C225.02 125.422 224.944 125.345 224.944 125.269H225.02L225.097 125.498C225.173 125.575 225.173 125.652 225.25 125.728C225.25 125.728 225.173 125.652 225.097 125.498ZM225.02 125.652C224.944 125.498 224.944 125.422 224.944 125.345L225.25 125.805V125.881C225.097 125.805 225.097 125.728 225.02 125.652ZM234.361 143.797C234.897 142.648 235.127 141.5 234.973 140.352C234.897 139.203 234.591 138.055 234.055 136.983C233.519 135.911 232.906 134.839 232.294 133.92C231.605 132.925 230.762 131.777 229.614 130.475C228.006 128.561 226.934 127.106 226.398 126.187L225.633 126.57C226.092 127.336 227.087 128.561 228.542 130.398C229.614 131.7 230.456 132.848 231.222 133.844C231.911 134.839 232.6 135.834 233.136 136.906C233.672 137.978 234.055 139.05 234.208 140.122C234.361 141.194 234.284 142.266 233.825 143.184C233.595 143.644 233.366 144.027 233.059 144.409L233.595 144.945C233.902 144.639 234.208 144.256 234.361 143.797ZM224.791 125.422L225.097 125.881H225.02L224.714 125.422H224.791ZM224.561 125.422C224.637 125.498 224.714 125.652 224.791 125.958C224.637 125.805 224.561 125.575 224.561 125.422ZM224.408 125.498C224.484 125.498 224.484 125.575 224.561 125.652C224.637 125.805 224.714 125.881 224.637 125.958C224.561 125.805 224.484 125.652 224.408 125.498ZM214.302 131.087C214.684 130.858 214.914 130.705 214.991 130.552H215.067C214.991 130.628 214.761 130.858 214.378 131.011L214.072 131.087H214.302ZM216.062 132.542C215.986 132.389 215.833 132.083 215.603 131.623C215.373 131.164 215.22 130.858 215.144 130.628C214.531 131.087 213.919 131.394 213.306 131.47L214.225 133.308C214.914 133.308 215.527 133.002 216.062 132.542ZM213.536 131.317H213.612L214.148 131.164C213.995 131.241 213.689 131.317 213.383 131.394L213.536 131.317ZM216.369 133.231H216.292C216.216 133.002 216.139 132.772 216.062 132.695H216.139C215.45 133.155 214.837 133.461 214.225 133.537L214.531 134.073C215.297 133.92 215.909 133.614 216.369 133.231ZM216.062 132.772C216.139 132.848 216.216 133.002 216.292 133.308H216.216C216.139 133.155 216.062 133.002 216.062 132.772ZM215.986 133.078L215.909 132.925C215.986 133.002 216.062 133.155 216.139 133.461H216.062C216.062 133.308 215.986 133.231 215.986 133.078ZM215.68 133.002C215.833 133.155 215.909 133.308 215.909 133.537C215.909 133.384 215.833 133.231 215.68 133.002ZM216.675 133.92L216.445 133.384C215.986 133.767 215.373 133.997 214.684 134.15C214.761 134.38 214.837 134.609 214.914 134.686C215.68 134.533 216.292 134.227 216.675 133.92ZM215.68 133.308L215.603 133.078C215.68 133.155 215.756 133.308 215.833 133.614H215.756C215.756 133.461 215.68 133.384 215.68 133.308ZM215.603 133.461C215.527 133.308 215.527 133.231 215.527 133.155L215.756 133.537V133.614L215.603 133.461ZM215.527 133.767L215.373 133.537C215.297 133.384 215.297 133.308 215.297 133.231C215.297 133.308 215.45 133.537 215.527 133.767ZM215.297 133.844L215.144 133.614C215.067 133.461 215.067 133.384 215.067 133.308H215.144L215.297 133.844ZM194.472 134.303C191.716 133.002 189.419 131.011 187.658 128.255C185.897 125.498 184.825 122.589 184.366 119.45C184.595 122.666 185.667 125.575 187.428 128.331C189.189 131.087 191.486 133.155 194.319 134.686L194.472 134.303ZM214.991 133.614C214.914 133.537 214.837 133.461 214.837 133.384H214.914L215.067 133.844C215.144 133.767 215.067 133.691 214.991 133.614ZM214.761 133.461L215.067 133.92H214.991C214.837 133.767 214.837 133.614 214.761 133.461ZM214.684 133.691L214.608 133.461H214.684L214.837 133.92H214.761C214.761 133.92 214.684 133.844 214.684 133.691ZM227.317 149.845L226.781 149.539C226.245 149.998 225.633 150.228 225.02 150.381C224.408 150.534 223.872 150.458 223.259 150.228C221.575 149.462 220.35 148.314 219.661 146.706C218.972 145.175 218.359 143.031 217.9 140.275C217.364 137.442 216.828 135.452 216.216 134.303L215.45 134.686C216.062 135.834 216.598 137.902 217.211 140.887C217.747 143.644 218.359 145.864 219.048 147.472C219.737 149.08 220.886 150.228 222.57 150.994C223.259 151.3 224.102 151.377 225.25 151.3C226.322 151.223 227.011 150.841 227.317 150.228C227.394 150.075 227.394 149.998 227.317 149.845ZM214.455 133.537L214.761 133.997V134.073C214.608 133.92 214.531 133.767 214.455 133.537ZM214.455 133.844C214.378 133.691 214.378 133.614 214.378 133.537V133.461C214.455 133.691 214.531 133.92 214.608 133.997H214.531L214.455 133.844ZM232.677 146.094C232.447 145.711 232.141 145.481 231.834 145.328C231.681 145.252 231.452 145.252 231.145 145.175V145.252C231.222 145.252 231.452 145.328 231.681 145.405C232.523 145.787 232.906 146.323 232.753 146.936H232.83C233.059 146.783 232.983 146.477 232.677 146.094ZM203.583 135.452L203.506 135.222C203.047 135.452 202.281 135.681 201.362 135.987L201.439 136.141L203.583 135.452ZM199.142 135.222L199.372 135.069L198.606 132.925C198.53 132.925 198.453 133.002 198.377 133.078C198.3 133.155 198.223 133.155 198.147 133.231L199.142 135.222ZM203.506 136.064L203.659 135.834L201.516 136.294C201.516 136.37 201.516 136.447 201.516 136.6V136.753C201.745 136.677 202.128 136.6 202.587 136.523C202.894 136.523 203.123 136.447 203.277 136.447C203.353 136.37 203.43 136.217 203.506 136.064ZM201.286 137.059L201.362 136.906V136.83V136.677L201.439 136.523C201.516 136.294 201.439 136.064 201.209 135.834C200.98 135.605 200.75 135.452 200.52 135.298C199.984 135.069 199.448 135.069 199.066 135.298V135.375C199.219 135.681 199.295 135.911 199.219 135.987C199.372 135.987 199.602 136.064 199.831 136.217L200.137 136.37C200.367 136.523 200.75 136.677 201.056 136.983L201.286 137.059ZM196.309 133.461C196.08 133.614 195.927 133.844 195.697 134.227V134.15C195.85 133.997 196.08 133.92 196.156 133.997C196.309 133.844 196.309 133.691 196.309 133.461ZM195.008 135.834C195.084 135.758 195.084 135.605 195.084 135.452C195.161 135.145 195.237 134.839 195.391 134.609L195.544 134.38C195.697 134.073 195.85 133.767 196.156 133.461V133.537L195.773 133.384L196.08 133.537V133.614L195.697 133.461V133.537L196.003 133.691V133.767L195.62 133.614V133.691L196.003 133.844V133.92C195.85 133.844 195.773 133.844 195.62 133.844H195.544L195.927 133.997V134.073L195.544 133.92V133.997L195.85 134.15V134.227C195.62 134.15 195.467 134.073 195.391 134.15L195.773 134.303C195.697 134.303 195.544 134.303 195.314 134.227V134.303L195.697 134.456V134.533L195.314 134.38V134.456L195.697 134.609V134.686L195.314 134.533V134.609C195.467 134.686 195.62 134.762 195.697 134.839L195.314 134.686L195.237 134.839L195.62 134.992C195.544 134.992 195.391 134.992 195.161 134.916V134.992L195.544 135.145V135.222L195.161 135.069V135.145L195.544 135.298V135.375L195.161 135.222V135.298L195.467 135.452V135.528L195.161 135.375V135.452L195.544 135.605V135.681L195.161 135.528V135.605L195.544 135.758V135.834L195.161 135.681V135.758L195.544 135.911V135.987L194.625 135.375L195.008 135.605L194.702 135.452V135.528L195.008 135.834ZM228.542 150.305C228.695 149.922 228.695 149.539 228.466 149.156C228.236 148.773 228.006 148.467 227.623 148.314L227.317 148.161V148.314C227.394 148.314 227.47 148.314 227.547 148.314C227.93 148.467 228.159 148.773 228.389 149.156C228.619 149.539 228.695 149.922 228.542 150.305ZM199.142 135.987C199.142 135.911 199.066 135.681 198.912 135.375L198.836 135.222L196.156 133.997H196.08C196.003 134.073 195.85 134.303 195.697 134.609C195.544 134.839 195.544 135.069 195.467 135.222L196.539 135.681C197.228 135.681 198.07 135.758 199.142 135.987ZM228.159 150.152C228.312 149.922 228.236 149.616 228.083 149.386C227.93 149.156 227.7 148.927 227.47 148.85L227.241 148.773V148.85H227.394C227.623 148.927 227.853 149.156 228.006 149.462C228.236 149.692 228.236 149.922 228.159 150.152ZM202.358 138.284C201.669 137.442 200.903 136.83 200.061 136.447C199.142 136.064 198.223 135.834 197.075 135.834C196.003 135.834 195.237 136.141 194.931 136.906C194.548 137.672 194.778 138.514 195.467 139.28C196.156 140.045 196.998 140.658 197.917 141.117C198.759 141.5 199.755 141.73 200.827 141.73C201.898 141.73 202.587 141.347 202.97 140.658C203.277 139.892 203.047 139.127 202.358 138.284ZM195.544 135.528L195.391 135.452C195.314 135.298 195.314 135.069 195.467 134.762L195.391 134.916C195.161 135.375 195.084 135.681 195.161 135.911C195.314 135.834 195.467 135.758 195.544 135.528ZM195.927 139.28C195.314 138.591 195.161 137.902 195.467 137.289C195.773 136.6 196.386 136.294 197.305 136.294C198.223 136.294 199.066 136.447 199.831 136.83C200.597 137.136 201.286 137.672 201.898 138.361C202.511 139.05 202.664 139.739 202.358 140.428C202.052 141.117 201.439 141.423 200.52 141.423C199.602 141.423 198.759 141.27 197.994 140.887C197.152 140.505 196.462 139.969 195.927 139.28ZM201.745 138.361C201.133 137.748 200.444 137.212 199.678 136.906C198.989 136.6 198.147 136.447 197.305 136.447C196.462 136.447 195.85 136.753 195.62 137.289C195.314 137.978 195.467 138.591 196.003 139.28C196.616 139.969 197.228 140.428 197.994 140.811C198.759 141.117 199.525 141.347 200.444 141.347C201.286 141.347 201.898 141.041 202.205 140.428C202.511 139.662 202.358 139.05 201.745 138.361ZM198.3 138.591C198.453 138.361 198.683 138.284 199.066 138.437C199.448 138.591 199.525 138.82 199.448 139.05C199.372 139.28 199.142 139.28 198.759 139.127C198.377 138.973 198.223 138.82 198.3 138.591ZM198.683 138.973C198.453 138.897 198.377 138.744 198.453 138.591C198.53 138.514 198.683 138.514 198.912 138.667L199.066 138.744C199.295 138.82 199.372 138.973 199.295 139.127C199.219 139.28 199.066 139.28 198.836 139.127L198.683 138.973Z" fill="#DCEDFE"/>
<path d="M203.736 167.302C202.97 166 202.205 164.698 201.439 163.473C201.056 162.784 200.673 162.172 200.291 161.483C199.448 160.105 197.917 159.798 196.539 160.488C195.161 161.177 194.931 163.014 195.62 164.239C196.003 164.928 196.386 165.541 196.845 166.23C197.611 167.531 198.377 168.833 199.142 170.058C197.994 171.436 197.841 173.35 198.683 175.034C198.836 175.341 198.989 175.57 199.142 175.8C199.984 177.178 200.827 178.633 201.669 180.011C204.578 184.834 207.411 189.581 210.32 194.405C212.311 197.697 214.302 201.066 216.292 204.358C216.828 205.2 217.517 205.889 218.436 206.348C220.12 207.114 221.728 206.655 223.259 205.813C224.637 204.97 225.939 204.281 226.552 202.75C227.087 201.372 226.934 199.917 226.169 198.616C221.422 190.653 216.675 182.767 211.928 174.805C210.933 173.197 210.014 171.589 209.019 169.981C208.866 169.752 208.712 169.522 208.559 169.292C207.564 167.761 205.573 166.919 203.736 167.302ZM207.411 171.589C208.406 173.197 209.402 174.881 210.32 176.489C213.23 181.389 216.139 186.213 219.125 191.113C220.886 194.022 222.647 196.931 224.331 199.841C225.097 201.142 224.561 202.597 223.336 203.286C222.187 203.975 221.039 204.97 219.584 204.588C218.359 204.281 217.747 202.827 217.211 201.831C212.081 193.256 206.952 184.681 201.822 176.183C200.827 174.498 199.295 172.661 201.286 170.977C201.669 170.67 201.669 170.058 201.439 169.675C200.98 168.833 200.444 167.991 199.984 167.225L200.98 166.613C201.439 167.455 201.975 168.297 202.434 169.063C202.434 169.139 202.511 169.139 202.511 169.216C202.741 169.522 203.123 169.752 203.583 169.598C204.808 169.139 206.109 169.445 206.798 170.594C206.952 170.9 207.181 171.283 207.411 171.589Z" fill="#DCEDFE"/>
<path d="M211.469 49.8547C207.487 49.7016 207.794 51.5391 204.578 51.5391C201.286 51.4625 201.669 49.7016 197.687 49.8547C190.567 50.1609 193.323 58.9656 194.242 61.1859C196.692 67.7703 196.692 69.3781 196.616 72.4406C196.309 81.1688 197.611 81.1687 199.678 81.1687C201.133 81.1687 201.362 73.8187 201.516 71.1391C201.745 66.775 207.87 67.3109 207.717 71.1391C207.641 73.8187 208.1 81.1687 209.555 81.1687C211.622 81.1687 212.923 81.1688 212.617 72.4406C212.541 69.3781 212.541 67.7703 214.991 61.1859C215.756 58.9656 218.589 50.1609 211.469 49.8547ZM209.172 53.3766C208.253 53.5297 207.334 53.9891 206.645 54.6016C206.416 54.8312 206.186 54.9844 205.956 55.2906C206.952 55.8266 207.87 56.4391 208.636 57.2047C209.172 57.7406 208.33 58.6594 207.794 58.0469C205.573 55.9031 202.205 54.8312 199.372 53.9891C198.606 53.7594 198.912 52.6109 199.678 52.7641C201.362 53.2234 203.123 53.8359 204.884 54.6016C205.88 53.3766 207.334 52.3812 208.866 52.075C209.631 51.9984 209.937 53.2234 209.172 53.3766Z" fill="#DCEDFE"/>
<path d="M141.031 59.9609L130.389 33.3172C130.006 32.3984 128.934 31.8625 128.092 32.2453L115.842 37.1453C114.923 37.5281 114.464 38.6 114.847 39.5187L125.489 66.1625C125.872 67.0812 126.944 67.6172 127.786 67.2344L140.036 62.3344C140.955 62.0281 141.337 60.9562 141.031 59.9609ZM118.062 42.0453C117.527 40.8203 118.139 39.3656 119.441 38.9062C120.666 38.3703 122.12 38.9828 122.58 40.2844C123.116 41.5094 122.503 42.9641 121.202 43.4234C119.977 43.8828 118.598 43.2703 118.062 42.0453ZM125.183 39.2125C124.647 37.9875 125.259 36.5328 126.561 36.0734C127.862 35.6141 129.241 36.15 129.7 37.4516C130.236 38.6766 129.623 40.1312 128.322 40.5906C127.097 41.05 125.642 40.5141 125.183 39.2125ZM120.742 48.7062C120.206 47.4812 120.819 46.0266 122.12 45.5672C123.345 45.0312 124.8 45.6437 125.259 46.9453C125.795 48.1703 125.183 49.625 123.881 50.0844C122.656 50.5437 121.278 49.9312 120.742 48.7062ZM127.786 45.8734C127.25 44.6484 127.862 43.1937 129.164 42.7344C130.389 42.1984 131.844 42.8109 132.303 44.1125C132.839 45.3375 132.227 46.7922 130.925 47.2516C129.623 47.7109 128.322 47.0984 127.786 45.8734ZM123.269 55.0609C122.733 53.8359 123.345 52.3812 124.647 51.9219C125.872 51.3859 127.327 51.9984 127.786 53.3C128.322 54.525 127.709 55.9797 126.408 56.4391C125.183 56.8984 123.805 56.2859 123.269 55.0609ZM130.312 52.2281C129.777 51.0031 130.389 49.5484 131.691 49.0891C132.916 48.5531 134.37 49.1656 134.83 50.4672C135.366 51.6922 134.753 53.1469 133.452 53.6062C132.15 54.0656 130.848 53.5297 130.312 52.2281ZM125.948 61.6453C125.412 60.4203 126.025 58.9656 127.327 58.5062C128.552 57.9703 130.006 58.5828 130.466 59.8844C131.002 61.1094 130.389 62.5641 129.087 63.0234C127.862 63.5594 126.408 62.9469 125.948 61.6453ZM132.992 58.8125C132.456 57.5875 133.069 56.1328 134.37 55.6734C135.595 55.1375 137.05 55.75 137.509 57.0516C138.045 58.2766 137.433 59.7312 136.131 60.1906C134.906 60.7266 133.452 60.1141 132.992 58.8125Z" fill="#DCEDFE"/>
<path d="M310.541 99.7735L307.172 92.8063L308.473 90.4328L310.77 95.1797L312.225 92.8063L323.862 92.9594C323.862 92.9594 324.322 93.2657 324.322 94.1078C324.322 94.95 323.786 95.1797 323.786 95.1797L313.373 95.0266L310.541 99.7735Z" fill="#DCEDFE"/>
<path d="M302.502 83.3125L296.989 98.2422L294.539 90.8156L292.855 94.7203L281.141 94.6437C281.141 94.6437 280.758 94.5672 280.758 93.5718C280.758 92.5765 281.141 92.4234 281.141 92.4234L291.477 92.5L294.845 84.5375L297.142 91.5047L302.195 77.7234L307.631 88.5953C309.392 83.6953 308.856 80.0203 308.856 80.0203C308.856 80.0203 308.703 71.139 299.209 71.0625C289.792 70.9859 289.256 78.7953 289.256 78.7953C289.256 78.7953 288.873 70.9859 279.456 70.8328C269.962 70.6797 269.656 79.6375 269.656 79.6375C269.656 79.6375 266.823 96.3281 288.95 106.358C298.98 102.07 304.033 96.3281 306.559 91.275L302.502 83.3125Z" fill="#DCEDFE"/>
<path d="M316.053 168.756L322.714 147.931C322.791 147.778 322.944 147.702 323.097 147.778C323.25 147.855 323.327 148.008 323.25 148.161L316.589 168.986C316.512 169.139 316.359 169.216 316.206 169.139C316.053 168.986 315.977 168.833 316.053 168.756Z" fill="#DCEDFE"/>
<path d="M320.8 135.987L314.445 155.741C313.68 158.037 314.598 160.487 316.436 161.866L313.68 170.364L317.508 171.589L320.264 163.091C322.561 163.014 324.705 161.559 325.394 159.262L331.748 139.509C332.667 136.6 331.059 133.461 328.15 132.542L327.767 132.389C324.858 131.47 321.795 133.078 320.8 135.987ZM323.25 135.222L325.7 135.987L325.853 135.528C326.006 134.916 326.695 134.609 327.231 134.839C327.844 134.992 328.15 135.681 327.92 136.217L327.767 136.677L329.758 137.289C329.987 137.366 330.064 137.595 330.064 137.825C329.987 138.055 329.758 138.131 329.528 138.055L327.537 137.442L326.312 141.194L328.303 141.806C328.533 141.883 328.609 142.112 328.533 142.342C328.456 142.572 328.227 142.648 327.997 142.648L326.006 142.036L324.781 145.787L326.772 146.4C327.002 146.477 327.078 146.706 327.078 146.936C327.002 147.166 326.772 147.242 326.542 147.242L324.552 146.63L323.327 150.381L325.317 150.994C325.547 151.07 325.623 151.3 325.547 151.53C325.47 151.759 325.241 151.836 325.011 151.759L323.02 151.147L321.795 154.898L323.786 155.511C324.016 155.587 324.092 155.817 324.092 156.047C324.016 156.277 323.786 156.353 323.556 156.353L321.566 155.741L317.278 169.139C317.125 169.752 316.436 170.058 315.9 169.828C315.287 169.675 314.981 168.986 315.211 168.45L319.498 155.052L317.048 154.286C316.819 154.209 316.742 153.98 316.742 153.75C316.819 153.52 317.048 153.444 317.278 153.444L319.728 154.209L320.953 150.458L318.503 149.692C318.273 149.616 318.197 149.386 318.197 149.156C318.273 148.927 318.503 148.85 318.733 148.85L321.183 149.616L322.408 145.864L319.958 145.098C319.728 145.022 319.652 144.792 319.728 144.562C319.805 144.333 320.034 144.256 320.264 144.333L322.714 145.098L323.939 141.347L321.489 140.581C321.259 140.505 321.183 140.275 321.183 140.045C321.259 139.816 321.489 139.739 321.719 139.739L324.169 140.505L325.394 136.753L322.944 135.987C322.714 135.911 322.638 135.681 322.638 135.452C322.791 135.298 323.02 135.145 323.25 135.222Z" fill="#DCEDFE"/>
<path d="M375.006 143.873L365.053 151.147L361.378 146.094L360.153 147.012L359.541 147.472L354.334 151.3L352.497 152.602L353.798 154.439L356.172 157.655L346.219 164.928C344.687 166 344.381 168.144 345.53 169.598L360.077 189.505C361.148 191.036 363.292 191.342 364.747 190.194L393.381 169.216C394.912 168.144 395.219 166 394.07 164.545L379.523 144.639C378.605 143.108 376.461 142.802 375.006 143.873ZM355.712 153.061L360.919 149.233L363.292 152.448L358.086 156.277L355.712 153.061ZM377.686 163.244C378.222 164.009 378.069 165.005 377.303 165.617L374.47 167.684L376.537 170.517C377.073 171.283 376.92 172.278 376.155 172.891L373.475 174.881C372.709 175.417 371.714 175.264 371.102 174.498L369.034 171.666L366.202 173.733C365.436 174.269 364.441 174.116 363.828 173.35L361.837 170.67C361.302 169.905 361.455 168.909 362.22 168.297L365.053 166.23L362.986 163.397C362.45 162.631 362.603 161.636 363.369 161.023L366.048 159.033C366.814 158.497 367.809 158.65 368.422 159.416L370.489 162.248L373.322 160.181C374.087 159.645 375.083 159.798 375.695 160.564L377.686 163.244Z" fill="#DCEDFE"/>
<path d="M363.114 95.4041L358.59 99.0635L367.209 109.719L371.733 106.059L363.114 95.4041Z" fill="#DCEDFE"/>
<path d="M365.241 93.6016L364.526 94.1794L366.693 96.8581L367.407 96.2804L365.241 93.6016Z" fill="#DCEDFE"/>
<path d="M367.63 91.7269L366.916 92.3047L371.201 97.6026L371.915 97.0249L367.63 91.7269Z" fill="#DCEDFE"/>
<path d="M369.92 89.8397L369.206 90.4175L371.373 93.0963L372.087 92.5184L369.92 89.8397Z" fill="#DCEDFE"/>
<path d="M372.309 87.9648L371.595 88.5426L375.88 93.8406L376.595 93.2628L372.309 87.9648Z" fill="#DCEDFE"/>
<path d="M374.6 86.0778L373.885 86.6556L376.052 89.3343L376.766 88.7565L374.6 86.0778Z" fill="#DCEDFE"/>
<path d="M376.941 84.1434L376.226 84.7212L380.512 90.0191L381.226 89.4413L376.941 84.1434Z" fill="#DCEDFE"/>
<path d="M392.003 94.1078L387.945 89.0547L393.764 84.3078L396.214 87.3703C396.52 87.7531 397.056 87.8297 397.516 87.5235C397.898 87.2172 397.975 86.6813 397.669 86.2219L387.945 74.125C387.639 73.7422 387.103 73.6656 386.644 73.9719C386.261 74.2781 386.184 74.8141 386.491 75.2735L388.941 78.336L383.122 83.0828L379.064 78.0297C378.758 77.6469 378.222 77.5703 377.763 77.8766C377.38 78.1828 377.303 78.7188 377.609 79.1781L378.681 80.4797L356.019 98.7781L357.014 104.061C356.172 104.75 356.019 105.975 356.708 106.894L357.627 108.042L345.223 118.072L347.52 117.306L358.162 108.655L359.081 109.803C359.77 110.645 361.072 110.798 361.914 110.109L366.891 112.177L389.553 93.8782L390.625 95.1797C390.931 95.5625 391.467 95.6391 391.927 95.3328C392.233 95.1031 392.309 94.4906 392.003 94.1078ZM367.044 110.492L357.78 99.0078L378.834 81.9344L388.098 93.4188L367.044 110.492Z" fill="#DCEDFE"/>
<path d="M359.081 65.1672L348.745 38.4469C348.362 37.5281 347.367 36.9922 346.448 37.375L334.122 42.1219C333.203 42.5047 332.744 43.5 333.127 44.4953L343.462 71.2156C343.845 72.1344 344.841 72.6703 345.759 72.2875L358.086 67.5406C359.005 67.1578 359.464 66.0859 359.081 65.1672ZM336.419 46.9453C335.959 45.7203 336.572 44.2656 337.797 43.8063C339.022 43.3469 340.477 43.9594 340.936 45.1844C341.395 46.4094 340.783 47.8641 339.558 48.3234C338.333 48.7828 336.878 48.1703 336.419 46.9453ZM343.462 44.1891C343.003 42.9641 343.616 41.5094 344.841 41.05C346.066 40.5906 347.52 41.2031 347.98 42.4281C348.439 43.6531 347.827 45.1078 346.602 45.5672C345.377 46.1031 343.998 45.4906 343.462 44.1891ZM338.945 53.6063C338.486 52.3813 339.098 50.9266 340.323 50.4672C341.548 50.0078 343.003 50.6203 343.462 51.8453C343.922 53.0703 343.309 54.525 342.084 54.9844C340.859 55.5203 339.481 54.8313 338.945 53.6063ZM346.066 50.85C345.606 49.625 346.219 48.1703 347.444 47.7109C348.669 47.2516 350.123 47.8641 350.583 49.0891C351.042 50.3141 350.43 51.7688 349.205 52.2281C347.98 52.7641 346.525 52.1516 346.066 50.85ZM341.472 60.0375C341.012 58.8125 341.625 57.3578 342.85 56.8984C344.075 56.4391 345.53 57.0516 345.989 58.2766C346.448 59.5016 345.836 60.9563 344.611 61.4156C343.386 61.875 341.931 61.2625 341.472 60.0375ZM348.516 57.2813C348.056 56.0563 348.669 54.6016 349.894 54.1422C351.119 53.6828 352.573 54.2953 353.033 55.5203C353.492 56.7453 352.88 58.2 351.655 58.6594C350.43 59.1188 349.052 58.5063 348.516 57.2813ZM343.998 66.6219C343.539 65.3969 344.152 63.9422 345.377 63.4828C346.602 63.0234 348.056 63.636 348.516 64.861C348.975 66.086 348.362 67.5406 347.137 68C345.912 68.5359 344.458 67.9235 343.998 66.6219ZM351.119 63.9422C350.659 62.7172 351.272 61.2625 352.497 60.8031C353.722 60.3438 355.177 60.9563 355.636 62.1813C356.095 63.4063 355.483 64.861 354.258 65.3203C352.956 65.7797 351.578 65.1672 351.119 63.9422Z" fill="#DCEDFE"/>
<path d="M281.753 136.983V124.427H270.039V136.983H257.483V148.697H270.039V161.253H281.753V148.697H294.309V136.983H281.753ZM278.844 146.094C277.466 147.166 276.623 148.237 276.241 148.85C275.858 148.237 275.016 147.166 273.637 146.094C271.57 144.486 270.575 143.031 270.575 141.653C270.575 139.509 271.953 138.82 273.102 138.82C274.173 138.82 275.245 139.433 275.858 140.428C275.934 140.505 276.087 140.581 276.164 140.581C276.317 140.581 276.394 140.505 276.47 140.428C277.083 139.433 278.155 138.82 279.227 138.82C280.375 138.82 281.753 139.586 281.753 141.653C281.906 143.031 280.911 144.486 278.844 146.094Z" fill="#DCEDFE"/>
<path d="M175.27 12.5563V0H163.556V12.5563H151V24.2703H163.556V36.8266H175.27V24.2703H187.827V12.5563H175.27ZM172.361 21.6672C170.983 22.7391 170.141 23.8109 169.758 24.4234C169.375 23.8109 168.533 22.7391 167.155 21.6672C165.088 20.0594 164.092 18.6047 164.092 17.2266C164.092 15.0828 165.47 14.3938 166.619 14.3938C167.691 14.3938 168.763 15.0063 169.375 16.0016C169.452 16.0781 169.605 16.1547 169.681 16.1547C169.834 16.1547 169.911 16.0781 169.987 16.0016C170.6 15.0063 171.672 14.3938 172.744 14.3938C173.892 14.3938 175.27 15.1594 175.27 17.2266C175.423 18.6047 174.428 20.0594 172.361 21.6672Z" fill="#DCEDFE"/>
<path d="M3.18583 186.549L9.84677 165.724C9.92333 165.571 10.0765 165.494 10.2296 165.571C10.3827 165.648 10.4593 165.801 10.3827 165.954L3.72177 186.779C3.64521 186.932 3.49208 187.008 3.33896 186.932C3.18583 186.855 3.10926 186.702 3.18583 186.549Z" fill="#DCEDFE"/>
<path d="M7.93272 153.857L1.57803 173.61C0.812408 175.907 1.73116 178.357 3.56866 179.735L0.812408 188.233L4.64053 189.458L7.39678 180.96C9.69366 180.883 11.8374 179.429 12.5265 177.132L18.8812 157.379C19.7999 154.469 18.1921 151.33 15.2827 150.412L14.8999 150.258C11.9905 149.34 8.85147 150.948 7.93272 153.857ZM10.3827 153.091L12.8327 153.857L12.9858 153.398C13.139 152.785 13.828 152.479 14.364 152.708C14.9765 152.862 15.2827 153.551 15.053 154.087L14.8999 154.546L16.8905 155.158C17.1202 155.235 17.1968 155.465 17.1968 155.694C17.1202 155.924 16.8905 156.001 16.6608 155.924L14.6702 155.312L13.4452 159.063L15.4358 159.676C15.6655 159.752 15.7421 159.982 15.6655 160.212C15.589 160.441 15.3593 160.518 15.1296 160.518L13.139 159.905L11.914 163.657L13.9046 164.269C14.1343 164.346 14.2108 164.576 14.2108 164.805C14.1343 165.035 13.9046 165.112 13.6749 165.112L11.6843 164.499L10.4593 168.251L12.4499 168.863C12.6796 168.94 12.7562 169.169 12.6796 169.399C12.603 169.629 12.3733 169.705 12.1437 169.629L10.153 169.016L8.92803 172.768L10.9187 173.38C11.1483 173.457 11.2249 173.687 11.2249 173.916C11.1483 174.146 10.9187 174.223 10.689 174.223L8.69835 173.61L4.41084 187.008C4.25772 187.621 3.56866 187.927 3.03272 187.698C2.42022 187.544 2.11397 186.855 2.34366 186.319L6.63116 172.921L4.18116 172.155C3.95147 172.079 3.87491 171.849 3.87491 171.619C3.95147 171.39 4.18116 171.313 4.41084 171.313L6.86085 172.079L8.08585 168.327L5.63585 167.562C5.40616 167.485 5.3296 167.255 5.3296 167.026C5.40616 166.796 5.63585 166.719 5.86553 166.719L8.31554 167.485L9.54053 163.733L7.09053 162.968C6.86084 162.891 6.78429 162.662 6.86085 162.432C6.93741 162.202 7.1671 162.126 7.39678 162.202L9.84679 162.968L11.0718 159.216L8.62178 158.451C8.39209 158.374 8.31554 158.144 8.31554 157.915C8.3921 157.685 8.62178 157.608 8.85147 157.608L11.3015 158.374L12.5265 154.623L10.0765 153.857C9.84678 153.78 9.77022 153.551 9.77022 153.321C9.92334 153.091 10.153 153.015 10.3827 153.091Z" fill="#DCEDFE"/>
<path d="M394.171 3.68971L384.218 10.9632L380.543 5.91002L379.318 6.82878L378.706 7.28816L373.5 11.1163L371.662 12.4178L372.964 14.2553L375.337 17.471L365.384 24.7444C363.853 25.8163 363.546 27.96 364.695 29.4147L379.242 49.321C380.314 50.8522 382.457 51.1585 383.912 50.01L412.546 29.0319C414.078 27.96 414.384 25.8163 413.235 24.3616L398.689 4.45534C397.77 2.84753 395.703 2.54128 394.171 3.68971ZM374.878 12.8006L380.084 8.97252L382.457 12.1882L377.251 16.0163L374.878 12.8006ZM396.928 22.9835C397.464 23.7491 397.31 24.7444 396.545 25.3569L393.712 27.4241L395.779 30.2569C396.315 31.0225 396.162 32.0178 395.396 32.6303L392.717 34.621C391.951 35.1569 390.956 35.0038 390.343 34.2381L388.276 31.4053L385.443 33.4725C384.678 34.0085 383.682 33.8553 383.07 33.0897L381.079 30.41C380.543 29.6444 380.696 28.6491 381.462 28.0366L384.295 25.9694L382.228 23.1366C381.692 22.371 381.845 21.3756 382.61 20.7631L385.29 18.7725C386.056 18.2366 387.051 18.3897 387.664 19.1553L389.731 21.9881L392.564 19.921C393.329 19.385 394.325 19.5382 394.937 20.3038L396.928 22.9835Z" fill="#DCEDFE"/>
<path d="M54.5359 61.7176L54 62.4066L53.9234 63.1723L53.4641 63.4785L51.7031 62.4066L51.7797 61.3348C52.2391 61.3348 52.6984 61.0285 53.0812 60.416L53.6938 60.4926C54 60.1863 54.3063 59.8035 54.4594 59.3441C54.9188 58.4254 55.0719 57.4301 54.9188 56.4348C54.7656 55.3629 54.4594 54.291 53.8469 53.1426C53.0812 51.6113 51.7031 49.5441 49.4828 46.7879C47.9516 44.8738 46.9563 43.4957 46.4969 42.6535L45.8844 42.7301L44.1234 39.4379L44.2 39.2848C43.7406 38.2895 43.0516 37.6004 42.0563 37.141C40.9078 36.6051 39.7594 36.6051 38.6109 37.2941C37.5391 37.9066 36.6969 38.8254 36.0844 40.127C35.625 41.1223 35.3953 42.1176 35.3953 43.1895C35.3953 44.2613 35.5484 45.3332 35.9313 46.3285H36.1609C36.2375 46.5582 36.4672 47.0176 36.7734 47.6301C37.2328 48.5488 37.4625 49.2379 37.6156 49.6973L37.2328 50.0801C37.7688 51.2285 38.3047 53.2191 38.7641 55.9754C39.2234 58.7316 39.8359 60.8754 40.525 62.4832C41.2141 64.091 42.3625 65.2395 44.0469 66.0051C44.8125 66.3879 45.5781 66.3113 46.2672 65.9285C46.9563 65.5457 47.5688 64.8566 47.9516 63.9379L49.1 64.2442L49.7125 65.8519C49.4828 66.3879 49.1766 66.541 48.7172 66.3879L47.875 67.0004L47.4156 66.8473C45.8844 67.6895 44.4297 67.766 43.0516 67.1535C41.3672 66.3879 40.1422 65.1629 39.4531 63.4785C38.7641 61.8707 38.1516 59.5738 37.6922 56.741C37.2328 53.7551 36.6969 51.7645 36.0844 50.5394L35.4719 50.616L34.7828 49.2379L33.9406 47.2473L34.0937 47.0176C33.0984 44.491 33.2516 41.9645 34.4 39.5145C34.7063 38.8254 35.1656 38.0598 35.7016 37.2176C35.7016 37.141 35.7016 37.0645 35.7016 36.9879C35.7016 36.6817 35.7016 36.4519 35.625 36.3754C35.3953 35.9926 34.9359 35.1504 34.3234 33.7723C32.7922 30.5566 31.3375 28.1066 30.0359 26.4223C28.7344 24.6613 26.8969 23.2832 24.4469 22.1348C21.3078 20.6801 18.1688 20.4504 15.1063 21.4457C13.575 21.9051 12.2734 22.6707 11.0484 23.7426C9.82344 24.8144 8.90469 26.116 8.13907 27.6473C7.29688 29.5613 6.83751 31.552 6.83751 33.6192C6.83751 35.7629 7.22032 37.7535 7.98594 39.8207C8.75157 41.8113 9.82344 43.6488 11.2016 45.2566C12.5797 46.8645 14.1875 48.166 16.025 49.1613L16.5609 48.702L17.3266 49.2379L17.25 49.7738L18.6281 50.3863L18.475 49.8504L18.9344 48.702C19.3938 48.3957 19.9297 48.2426 20.4656 48.2426C21.0016 48.2426 21.6141 48.3957 22.15 48.702C22.8391 49.0082 23.375 49.391 23.8344 49.7738C24.2938 50.1566 24.5234 50.6926 24.6 51.3051L23.9875 52.377L22.15 52.7598L22.2266 52.9129C22.8391 53.3723 23.2984 53.8316 23.6047 54.4441C23.9109 55.0566 24.0641 55.5926 23.8344 56.2051C22.9156 57.0473 22.0734 57.5067 21.3078 57.6598C20.5422 57.7363 19.6234 57.5066 18.475 57.0473C17.4031 56.5879 16.7141 56.052 16.2547 55.4395C15.8719 54.827 15.5656 53.9848 15.4125 52.7598L17.0203 51.5348L16.4844 51.3051C16.4078 51.2285 16.2547 51.3051 16.1781 51.4582C16.025 51.6113 15.9484 51.6879 15.8719 51.6879L15.1828 51.3051L15.2594 50.8457C13.2688 49.7738 11.4313 48.3957 9.90001 46.5582C8.36876 44.7207 7.14376 42.7301 6.30157 40.5098C5.45938 38.2895 5 35.9926 5 33.6192C5 31.2457 5.45938 29.0254 6.45469 26.9582C7.29688 25.1973 8.36876 23.666 9.74688 22.3645C11.125 21.1395 12.6563 20.2207 14.3406 19.6848C17.8625 18.5363 21.4609 18.8426 25.1359 20.527C26.8203 21.2926 28.4281 22.3644 29.9594 23.7426C31.4906 25.1207 32.6391 26.5754 33.4813 28.1832V28.2598C34.3234 30.0207 35.0125 31.3223 35.3953 32.0879C35.7781 32.8535 36.2375 33.5426 36.6203 34.1551C37.0031 34.7676 37.3094 35.1504 37.5391 35.2269C38.6109 34.9973 39.5297 34.8442 40.2953 34.7676C41.0609 34.691 41.8266 34.9207 42.5922 35.2269C43.0516 35.4566 43.5875 35.8395 44.2766 36.452C44.8891 37.0645 45.3484 37.6004 45.5016 38.0598L45.7313 38.1363C46.4203 39.2848 47.0328 40.3566 47.4922 41.3519L47.1859 41.8113C47.7219 42.8066 48.7938 44.3379 50.4016 46.3285C51.4734 47.6301 52.3922 48.7785 53.0812 49.7738C53.7703 50.7691 54.3828 51.7645 54.8422 52.8363C55.3016 53.9082 55.6078 55.0567 55.6844 56.2051C55.7609 57.3535 55.5313 58.5785 54.9188 59.7269C54.8422 59.9566 54.6125 60.2629 54.3063 60.6457L54.0766 60.952L54.5359 61.7176ZM36.3141 35.2269C35.8547 34.4613 35.4719 33.6192 35.0125 32.777C33.4047 29.7145 31.95 27.341 30.6484 25.7332C29.3469 24.0488 27.5094 22.6707 25.2125 21.5988C23.2984 20.7566 21.3844 20.2973 19.3938 20.2973C17.4031 20.2973 15.4891 20.8332 13.7281 21.8285C15.4891 20.9098 17.25 20.3738 19.1641 20.3738C21.0781 20.3738 22.9922 20.7567 24.8297 21.6754C27.2031 22.7473 29.0406 24.2019 30.4188 26.0394C31.7969 27.8004 33.2516 30.327 34.8594 33.5426C35.625 34.9207 36.0078 35.7629 36.1609 35.9926L36.3141 35.2269ZM44.9656 38.5191C44.4297 37.6004 43.6641 36.9113 42.6688 36.452C41.5203 35.916 40.3719 35.916 39.3 36.3754C38.1516 36.8348 37.3094 37.6004 36.6203 38.7488C37.3094 37.7535 38.1516 36.9879 39.2234 36.6051C40.2953 36.2223 41.3672 36.2223 42.4391 36.7582C42.975 36.9879 43.5109 37.4473 43.9703 38.0598C44.2766 38.4426 44.5062 38.6723 44.6594 38.7488L44.9656 38.5191ZM47.1094 40.3566L46.1141 38.5191C45.6547 38.9785 45.1188 39.3613 44.3531 39.5145L45.3484 41.2754C46.1141 41.1223 46.65 40.816 47.1094 40.3566ZM47.4156 40.9691L47.1094 40.5098V40.4332C46.7266 40.8926 46.1141 41.1988 45.2719 41.4285L45.5781 41.9645C46.5734 41.6582 47.1859 41.3519 47.4156 40.9691ZM47.3391 41.0457V40.9691C47.1859 40.7394 47.1859 40.6629 47.1859 40.5863C47.1859 40.6629 47.2625 40.7395 47.2625 40.8926L47.3391 41.0457ZM47.0328 40.6629L47.3391 41.1223V41.1988C47.1094 41.0457 47.0328 40.816 47.0328 40.6629ZM46.8797 40.816C46.8797 40.8926 46.9563 40.9691 47.0328 41.0457C47.1094 41.1223 47.1094 41.1988 47.1859 41.2754H47.1094C46.9562 41.1223 46.8797 40.9692 46.8797 40.816ZM47.6453 41.3519C47.5688 41.2754 47.5687 41.1988 47.4922 41.1223C46.8797 41.6582 46.3438 41.9645 45.8078 42.041L46.0375 42.577C46.1906 42.577 46.4969 42.5004 46.9562 42.2707C47.4156 42.041 47.6453 41.8113 47.7219 41.7348C47.7984 41.5816 47.7984 41.5051 47.6453 41.3519ZM46.7266 40.8926C46.7266 40.9692 46.8031 41.0457 46.8797 41.1988L46.9562 41.3519V41.4285C46.8031 41.1988 46.7266 41.0457 46.7266 40.8926ZM46.5734 41.0457C46.65 41.0457 46.65 41.1223 46.7266 41.1988C46.8031 41.352 46.8797 41.4285 46.8031 41.5051C46.65 41.2754 46.5734 41.1223 46.5734 41.0457ZM46.65 41.5816L46.5734 41.4285C46.4969 41.2754 46.4969 41.1988 46.4969 41.1223V41.0457C46.4969 41.1223 46.5734 41.1988 46.5734 41.3519L46.65 41.5816ZM46.3437 41.4285C46.2672 41.352 46.2672 41.2754 46.1906 41.1988L46.4969 41.5816V41.6582C46.4969 41.5817 46.4203 41.5051 46.3437 41.4285ZM46.1906 41.5051C46.1141 41.4285 46.1141 41.352 46.0375 41.2754H46.1141L46.1906 41.5051C46.2672 41.5816 46.2672 41.6582 46.3437 41.7348C46.2672 41.6582 46.1906 41.5816 46.1906 41.5051ZM46.0375 41.5816C45.9609 41.4285 45.9609 41.352 45.9609 41.2754L46.2672 41.7348V41.8113C46.1141 41.7348 46.1141 41.6582 46.0375 41.5816ZM55.225 59.8801C55.7609 58.7316 55.9906 57.5832 55.9141 56.4348C55.8375 55.2863 55.5313 54.1379 55.0719 53.066C54.5359 51.9942 54 50.9223 53.3109 50.0035C52.6219 49.0082 51.7797 47.8598 50.7078 46.4816C49.1 44.491 48.0281 43.0363 47.5688 42.1176L46.8031 42.5004C47.2625 43.266 48.1812 44.5676 49.6359 46.4051C50.6312 47.7066 51.55 48.9316 52.2391 49.927C52.9281 50.9223 53.5406 51.9942 54.0766 53.066C54.6125 54.1379 54.9953 55.2098 55.1484 56.2816C55.3016 57.3535 55.1484 58.4254 54.6891 59.3441C54.4594 59.8035 54.2297 60.1863 53.8469 60.5691L54.3828 61.1051C54.7656 60.7223 54.9953 60.2629 55.225 59.8801ZM45.8078 41.4285L46.1141 41.8879H46.0375L45.7313 41.4285H45.8078ZM45.6547 41.4285C45.7313 41.5051 45.8078 41.6582 45.8844 41.9645C45.7313 41.7348 45.6547 41.5816 45.6547 41.4285ZM45.425 41.5051C45.5016 41.5051 45.5016 41.5817 45.5781 41.6582C45.6547 41.8113 45.7313 41.8879 45.6547 41.9645C45.5781 41.7348 45.5016 41.5816 45.425 41.5051ZM35.3188 46.941C35.7016 46.7113 35.9313 46.5582 36.0844 46.4051H36.1609C36.0844 46.4816 35.8547 46.7113 35.4719 46.8645L35.1656 46.941H35.3188ZM37.0031 48.4723C36.9266 48.3192 36.7734 48.0129 36.5438 47.5535C36.3141 47.0941 36.1609 46.7879 36.1609 46.5582C35.5484 47.0176 34.9359 47.3238 34.3234 47.4004L35.2422 49.2379C35.8547 49.1613 36.4672 48.8551 37.0031 48.4723ZM34.4766 47.1707H34.5531L35.0891 47.0176C34.8594 47.0942 34.6297 47.1707 34.2469 47.1707H34.4766ZM37.3859 49.0848H37.3094C37.2328 48.8551 37.1563 48.6254 37.0797 48.5488H37.1562C36.4672 49.0082 35.8547 49.3145 35.2422 49.3145L35.5484 49.8504C36.3141 49.7738 36.9266 49.4676 37.3859 49.0848ZM37.0031 48.6254C37.0797 48.702 37.1563 48.8551 37.2328 49.1613H37.1562C37.0797 49.0082 37.0031 48.8551 37.0031 48.6254ZM36.9266 48.9317L36.85 48.7785C36.9266 48.8551 37.0031 49.0082 37.0797 49.3145H37.0031C37.0031 49.1613 37.0031 49.0848 36.9266 48.9317ZM36.6969 48.8551C36.85 49.0082 36.9266 49.1613 36.9266 49.391C36.85 49.2379 36.7734 49.0848 36.6969 48.8551ZM37.6156 49.7738L37.3859 49.2379C36.9266 49.6207 36.3141 49.8504 35.625 50.0035C35.7016 50.2332 35.7781 50.4629 35.8547 50.5394C36.6203 50.3863 37.2328 50.0801 37.6156 49.7738ZM36.6203 49.1613L36.5438 48.9317C36.6203 49.0082 36.6969 49.1613 36.7734 49.4676H36.6969C36.6969 49.391 36.6203 49.2379 36.6203 49.1613ZM36.5438 49.3145C36.4672 49.1613 36.4672 49.0848 36.4672 49.0082L36.6969 49.391V49.4676L36.5438 49.3145ZM36.4672 49.6207L36.3141 49.391C36.2375 49.2379 36.2375 49.1613 36.2375 49.0848C36.3141 49.1613 36.3906 49.391 36.4672 49.6207ZM36.2375 49.6973L36.0844 49.4676C36.0078 49.3145 36.0078 49.2379 36.0078 49.1613H36.0844L36.2375 49.6973ZM15.4125 49.927C12.6563 48.6254 10.4359 46.5582 8.675 43.802C6.91406 41.0457 5.91875 38.0598 5.45938 34.9207C5.68907 38.1363 6.68438 41.1223 8.36876 43.8785C10.1297 46.6348 12.35 48.7785 15.1828 50.3098L15.4125 49.927ZM36.0078 49.4676C35.9312 49.391 35.9312 49.3145 35.8547 49.2379H35.9313L36.0844 49.6973C36.0844 49.6207 36.0078 49.5441 36.0078 49.4676ZM35.7016 49.3145L36.0078 49.7738H35.9313C35.8547 49.6207 35.7781 49.4676 35.7016 49.3145ZM35.625 49.5441L35.5484 49.3145H35.625L35.7781 49.7738H35.7016C35.7016 49.7738 35.625 49.6973 35.625 49.5441ZM48.1047 65.8519L47.6453 65.5457C47.1094 66.0051 46.4969 66.2348 45.8844 66.3879C45.2719 66.541 44.7359 66.4645 44.1234 66.2348C42.4391 65.4691 41.2141 64.2442 40.6016 62.7129C39.9125 61.1817 39.3766 59.0379 38.9172 56.2816C38.4578 53.4488 37.9219 51.4582 37.3094 50.2332L36.5438 50.616C37.0797 51.7645 37.6922 53.8316 38.2281 56.8176C38.7641 59.6504 39.3 61.7942 39.9891 63.402C40.6781 65.0098 41.8266 66.1582 43.5109 66.9238C44.2 67.2301 45.0422 67.3832 46.1141 67.3067C47.1859 67.2301 47.875 66.9238 48.1813 66.3113C48.1813 66.0816 48.1812 65.9285 48.1047 65.8519ZM35.3953 49.391L35.7016 49.8504V49.927C35.5484 49.7738 35.4719 49.6207 35.3953 49.391ZM35.3953 49.6973C35.3188 49.5442 35.3188 49.4676 35.3188 49.391V49.3145C35.3953 49.5442 35.4719 49.7738 35.5484 49.8504H35.4719L35.3953 49.6973ZM53.5406 62.177C53.3109 61.7941 53.0047 61.5645 52.6984 61.4113C52.5453 61.3348 52.3156 61.3348 52.0094 61.2582V61.3348C52.0859 61.3348 52.3156 61.4113 52.5453 61.4879C53.3875 61.8707 53.6937 62.4067 53.6172 63.0191H53.6938C53.8469 62.7895 53.7703 62.4832 53.5406 62.177ZM24.5234 51.152L24.4469 50.9223C23.9875 51.152 23.2219 51.3816 22.2266 51.6879L22.3031 51.841L24.5234 51.152ZM20.0828 50.8457L20.3125 50.6926L19.5469 48.5488C19.4703 48.5488 19.3938 48.6254 19.3172 48.702C19.2406 48.7785 19.1641 48.7785 19.0875 48.8551L20.0828 50.8457ZM24.4469 51.7645L24.6 51.5348L22.4563 51.9942C22.4563 52.0707 22.4563 52.1473 22.4563 52.3004V52.4535C22.6859 52.3769 23.0688 52.3004 23.5281 52.2238C23.8344 52.2238 24.0641 52.1473 24.2172 52.1473C24.2938 52.0707 24.3703 51.9176 24.4469 51.7645ZM22.2266 52.7598L22.3031 52.6066V52.5301V52.377L22.3797 52.2238C22.4563 51.9941 22.3797 51.7645 22.15 51.5348C21.9203 51.3051 21.6906 51.152 21.4609 50.9988C20.925 50.7691 20.3891 50.6926 20.0063 50.9988V51.0754C20.1594 51.3816 20.2359 51.6113 20.1594 51.6879C20.3125 51.6879 20.5422 51.7645 20.7719 51.9176L21.0781 52.0707C21.3078 52.2238 21.6141 52.377 21.9969 52.6832L22.2266 52.7598ZM17.25 49.0848C17.0203 49.1613 16.8672 49.4676 16.6375 49.8504V49.7738C16.7906 49.6207 17.0203 49.5442 17.0969 49.6207C17.25 49.4676 17.25 49.3145 17.25 49.0848ZM15.9484 51.4582C16.025 51.3816 16.025 51.2285 16.025 51.0754C16.1016 50.7691 16.2547 50.4629 16.3313 50.2332L16.4844 50.0035C16.6375 49.6973 16.7906 49.391 17.0969 49.0848V49.1613L16.7141 49.0082L17.0203 49.1613V49.2379L16.6375 49.0848V49.1613L16.9438 49.3145V49.391L16.5609 49.2379V49.3145L16.9438 49.4676V49.5441C16.7906 49.4676 16.7141 49.4676 16.5609 49.4676H16.4844L16.8672 49.6207V49.6973L16.4844 49.5441V49.6207L16.7906 49.7738V49.8504C16.5609 49.7738 16.4078 49.6973 16.3313 49.6973L16.7141 49.8504C16.6375 49.8504 16.4844 49.8504 16.2547 49.6973V49.7738L16.6375 49.927V50.0035L16.2547 49.8504V49.927L16.6375 50.0801V50.1566L16.2547 50.0035V50.0801C16.4078 50.1567 16.5609 50.2332 16.6375 50.3098L16.2547 50.1566L16.1781 50.3098L16.5609 50.4629C16.4844 50.4629 16.3312 50.4629 16.1016 50.3098V50.3863L16.4844 50.5394V50.616L16.1016 50.4629V50.5394L16.4844 50.6926V50.7692L16.1016 50.616V50.6926L16.4078 50.8457V50.9223L16.1016 50.7692V50.8457L16.4844 50.9988V51.0754L16.1016 50.9223V50.9988L16.4844 51.152V51.2285L16.1016 51.0754V51.152L16.4844 51.3051V51.3816L16.1781 51.2285L16.5609 51.4582L16.2547 51.3051V51.3816L15.9484 51.4582ZM49.3297 66.3113C49.4828 65.9285 49.4828 65.5457 49.2531 65.1629C49.0234 64.7801 48.7938 64.4738 48.4109 64.3207L48.1047 64.1676V64.3207C48.1812 64.3207 48.2578 64.3207 48.3344 64.3207C48.7172 64.4738 48.9469 64.7801 49.1766 65.1629C49.4063 65.5457 49.4063 65.9285 49.3297 66.3113ZM20.0828 51.6879C20.0828 51.6113 20.0063 51.3816 19.8531 51.0754L19.7766 50.9223L17.0969 49.6973H17.0203C16.9438 49.7738 16.7906 50.0035 16.6375 50.3098C16.4844 50.5395 16.4078 50.7691 16.4078 50.9223L17.4797 51.3816C18.1688 51.3051 19.0109 51.3816 20.0828 51.6879ZM48.9469 66.1582C49.1 65.9285 49.0234 65.6223 48.8703 65.3926C48.7172 65.0863 48.4875 64.9332 48.2578 64.8566L48.0281 64.7801V64.8566H48.1813C48.4109 64.9332 48.5641 65.1629 48.7938 65.4691C49.0234 65.6223 49.0234 65.9285 48.9469 66.1582ZM23.2984 53.9848C22.6094 53.1426 21.8438 52.5301 21.0016 52.1473C20.1594 51.7645 19.1641 51.5348 18.0156 51.4582C16.9437 51.4582 16.1781 51.7645 15.8719 52.5301C15.4891 53.2957 15.6422 54.1379 16.3313 54.9035C17.0203 55.6691 17.8625 56.3582 18.7812 56.741C19.6234 57.1238 20.6188 57.3535 21.6906 57.3535C22.7625 57.3535 23.4516 57.0473 23.8344 56.2816C24.1406 55.5926 23.9875 54.827 23.2984 53.9848ZM16.4844 51.152L16.3313 51.0754C16.2547 50.9223 16.2547 50.6926 16.4078 50.3863L16.3313 50.5394C16.1016 50.9988 16.025 51.3051 16.1016 51.5348C16.2547 51.4582 16.4078 51.3051 16.4844 51.152ZM16.7906 54.9035C16.1781 54.2145 16.1016 53.5254 16.4078 52.8363C16.7141 52.1473 17.3266 51.841 18.2453 51.841C19.1641 51.841 20.0063 51.9942 20.7719 52.377C21.5375 52.7598 22.2266 53.2191 22.7625 53.9848C23.375 54.6738 23.5281 55.3629 23.2219 56.052C22.9156 56.741 22.3031 57.0473 21.3844 57.0473C20.4656 57.0473 19.6234 56.8941 18.8578 56.5113C18.0922 56.2051 17.4031 55.6691 16.7906 54.9035ZM22.6094 54.0613C21.9969 53.3723 21.3078 52.9129 20.6188 52.5301C19.9297 52.2238 19.1641 52.0707 18.2453 51.9942C17.4031 51.9942 16.7906 52.3004 16.5609 52.8363C16.2547 53.5254 16.4078 54.1379 16.9438 54.827C17.4797 55.516 18.1688 55.9754 18.9344 56.3582C19.7 56.741 20.4656 56.8941 21.3844 56.8941C22.2266 56.8941 22.8391 56.5879 23.1453 55.9754C23.375 55.3629 23.2219 54.7504 22.6094 54.0613ZM19.2406 54.2145C19.3938 53.9848 19.6234 53.9082 20.0063 54.0613C20.3891 54.2145 20.4656 54.4442 20.3125 54.6738C20.2359 54.9035 20.0063 54.9035 19.6234 54.7504C19.2406 54.6738 19.0875 54.4442 19.2406 54.2145ZM19.5469 54.5973C19.3172 54.5207 19.2406 54.3676 19.3172 54.2145C19.3938 54.1379 19.5469 54.1379 19.7766 54.291L19.9297 54.3676C20.1594 54.4441 20.2359 54.5973 20.1594 54.7504C20.0828 54.9035 19.9297 54.9035 19.7 54.7504L19.5469 54.5973Z" fill="#DCEDFE"/>
<path d="M250.286 48.8594L262.766 37.8344C266.287 34.6953 271.723 35.0016 274.939 38.5234C278.078 42.0453 277.772 47.4812 274.25 50.6969L261.847 61.7219C258.325 64.8609 252.889 64.5547 249.673 61.0328C246.458 57.4344 246.764 51.9984 250.286 48.8594ZM263.761 38.9062L251.358 49.9312C248.448 52.5344 248.142 57.0516 250.745 59.9609C253.348 62.8703 257.866 63.1766 260.775 60.5734L273.178 49.5484C276.087 46.9453 276.394 42.4281 273.791 39.5187C271.111 36.6094 266.67 36.3031 263.761 38.9062Z" fill="#DCEDFE"/>
<path d="M265.675 55.0609L260.775 59.425C258.172 61.7218 254.267 61.4922 251.97 58.889C249.673 56.2859 249.903 52.3812 252.506 50.0843L257.406 45.7203L265.675 55.0609Z" fill="#DCEDFE"/>
<path d="M251.128 46.1797L245.156 47.4047C242.017 48.0172 238.955 46.0266 238.342 42.8875C237.73 39.7484 239.72 36.6859 242.859 36.0734L248.831 34.8484L251.128 46.1797Z" fill="#DCEDFE"/>
<path d="M241.711 34.0828L256.794 31.0203C260.086 30.3312 263.378 31.8625 265.139 34.5422L264.067 35.4609C262.689 33.0875 259.933 31.7859 257.1 32.3984L242.017 35.4609C238.495 36.2266 236.198 39.6719 236.887 43.1937C237.653 46.7156 241.098 49.0125 244.62 48.3234L251.052 47.0219L248.984 48.8594L244.927 49.7015C240.639 50.6203 236.428 47.7875 235.509 43.5C234.591 39.2125 237.423 35.0016 241.711 34.0828Z" fill="#DCEDFE"/>
<path d="M396.048 128.797L391.071 117.849C389.616 114.71 390.995 111.035 394.134 109.58C397.273 108.125 400.948 109.503 402.402 112.642L407.379 123.591C408.834 126.73 407.455 130.405 404.316 131.86C401.177 133.314 397.502 131.936 396.048 128.797ZM392.066 117.389L397.043 128.338C398.191 130.941 401.254 132.089 403.857 130.864C406.46 129.716 407.609 126.653 406.384 124.05L401.407 113.102C400.259 110.499 397.196 109.35 394.593 110.575C392.066 111.724 390.918 114.786 392.066 117.389Z" fill="#DCEDFE"/>
<path d="M403.627 119.533L405.618 123.897C406.69 126.194 405.618 128.874 403.398 129.869C401.101 130.941 398.421 129.869 397.426 127.649L395.435 123.285L403.627 119.533Z" fill="#DCEDFE"/>
<path d="M394.44 127.725L393.981 132.166C393.751 134.463 391.684 136.147 389.387 135.917C387.09 135.688 385.405 133.62 385.635 131.324L386.095 126.883L394.44 127.725Z" fill="#DCEDFE"/>
<path d="M384.027 131.63L385.099 120.528C385.329 118.078 387.09 116.164 389.31 115.552L389.77 116.47C387.855 116.93 386.324 118.538 386.095 120.605L385.023 131.706C384.793 134.31 386.707 136.683 389.31 136.913C391.913 137.142 394.287 135.228 394.516 132.625L394.976 127.878L395.818 129.716L395.512 132.702C395.205 135.841 392.373 138.214 389.234 137.908C386.018 137.602 383.721 134.769 384.027 131.63Z" fill="#DCEDFE"/>
<path d="M295.305 15.1719C294.539 13.8703 293.773 12.5688 293.008 11.2672C292.625 10.5782 292.242 9.96566 291.859 9.27659C291.094 7.89847 289.486 7.51565 288.108 8.20472C286.73 8.89378 286.423 10.7313 287.189 11.9563C287.572 12.6453 287.955 13.2578 288.337 13.9469C289.103 15.2485 289.869 16.55 290.634 17.8516C289.486 19.2297 289.333 21.1438 290.098 22.8282C290.252 23.1344 290.405 23.3641 290.558 23.5938C291.4 25.0485 292.242 26.4266 293.084 27.8813C295.917 32.7047 298.75 37.5282 301.583 42.3516C303.573 45.7203 305.487 49.0125 307.478 52.3813C308.014 53.2235 308.627 53.9125 309.545 54.3719C311.23 55.2141 312.837 54.7547 314.369 53.836C315.747 53.0703 317.048 52.3813 317.737 50.7735C318.273 49.3953 318.197 47.9407 317.431 46.6391C312.761 38.6766 308.091 30.7141 303.42 22.675C302.502 21.0672 301.506 19.4594 300.587 17.8516C300.434 17.6219 300.281 17.3922 300.128 17.086C299.056 15.6313 297.142 14.7891 295.305 15.1719ZM298.827 19.536C299.822 21.2203 300.741 22.8282 301.736 24.5125C304.569 29.4125 307.478 34.3125 310.311 39.2125C311.995 42.1219 313.756 45.0313 315.441 48.0172C316.206 49.3188 315.594 50.7735 314.369 51.4625C313.22 52.1516 312.072 53.0703 310.617 52.7641C309.469 52.4578 308.856 50.9266 308.244 50.0078C303.191 41.3563 298.138 32.7813 293.161 24.1297C292.166 22.4453 290.711 20.6078 292.702 18.9235C293.084 18.6172 293.084 18.0047 292.855 17.6219C292.395 16.7797 291.859 15.9375 291.4 15.0953L292.395 14.4828C292.855 15.325 293.391 16.1672 293.85 17.0094C293.85 17.086 293.927 17.086 293.927 17.1625C294.156 17.4688 294.539 17.6985 294.998 17.5453C296.223 17.086 297.525 17.3922 298.214 18.6172C298.444 18.8469 298.673 19.1532 298.827 19.536Z" fill="#DCEDFE"/>
<path d="M299.822 20.4547L296.07 22.675C295.687 22.9047 295.611 23.3641 295.764 23.7469C295.994 24.1297 296.453 24.2063 296.836 24.0531L300.587 21.8328C300.97 21.6031 301.047 21.1438 300.894 20.761C300.664 20.3781 300.205 20.225 299.822 20.4547Z" fill="#DCEDFE"/>
<path d="M301.813 23.5172L299.056 25.125C298.827 25.2781 298.75 25.7375 298.98 26.0437C299.209 26.4265 299.592 26.5797 299.822 26.4265L302.578 24.8187C302.808 24.6656 302.884 24.2062 302.655 23.9C302.502 23.5172 302.119 23.364 301.813 23.5172Z" fill="#DCEDFE"/>
<path d="M303.573 26.4266L300.817 28.0344C300.588 28.1875 300.511 28.6469 300.741 28.9531C300.97 29.3359 301.353 29.4891 301.583 29.3359L304.339 27.7281C304.569 27.575 304.645 27.1156 304.416 26.8094C304.186 26.4266 303.803 26.2735 303.573 26.4266Z" fill="#DCEDFE"/>
<path d="M304.952 29.2594L301.2 31.4797C300.817 31.7094 300.741 32.1688 300.894 32.5516C301.123 32.9344 301.583 33.011 301.966 32.8579L305.717 30.6375C306.1 30.4079 306.177 29.9485 306.023 29.5657C305.794 29.1063 305.334 29.0297 304.952 29.2594Z" fill="#DCEDFE"/>
<path d="M306.942 32.2454L304.186 33.8532C303.956 34.0063 303.88 34.3891 304.109 34.7719C304.339 35.1547 304.722 35.3079 304.952 35.1547L307.708 33.5469C307.938 33.3938 308.014 33.011 307.784 32.6282C307.631 32.2454 307.248 32.0922 306.942 32.2454Z" fill="#DCEDFE"/>
<path d="M308.627 35.1547L305.87 36.7625C305.641 36.9156 305.564 37.2984 305.794 37.6812C306.023 38.0641 306.406 38.2172 306.636 38.0641L309.392 36.4562C309.622 36.3031 309.698 35.9203 309.469 35.5375C309.316 35.1547 308.933 35.0016 308.627 35.1547Z" fill="#DCEDFE"/>
<path d="M310.158 38.1406L306.406 40.3609C306.023 40.5906 305.947 41.05 306.1 41.4328C306.33 41.8156 306.789 41.8922 307.172 41.739L310.923 39.5187C311.306 39.289 311.383 38.8297 311.23 38.4469C311 37.9875 310.541 37.9109 310.158 38.1406Z" fill="#DCEDFE"/>
<path d="M312.148 41.1265L309.392 42.7344C309.163 42.8875 309.086 43.2703 309.316 43.6531C309.545 44.0359 309.928 44.189 310.158 44.0359L312.914 42.4281C313.144 42.275 313.22 41.8922 312.991 41.5094C312.761 41.1265 312.378 40.9734 312.148 41.1265Z" fill="#DCEDFE"/>
<path d="M313.833 44.036L311.077 45.6438C310.847 45.7969 310.77 46.1797 311 46.5625C311.23 46.9453 311.613 47.0984 311.842 46.9453L314.598 45.3375C314.828 45.1844 314.905 44.8016 314.675 44.4188C314.522 44.036 314.139 43.8828 313.833 44.036Z" fill="#DCEDFE"/>
<path d="M75.2641 15.4781C75.7234 17.6984 76.3359 19.4594 76.9484 20.8375C77.6375 22.139 78.6328 23.5937 79.9344 25.125L80.5469 25.814C82.3078 27.8047 83.15 29.7953 83.15 31.7859C83.15 34.0062 82.3078 35.8437 80.7 37.375C79.0922 38.9062 77.1781 39.6719 74.9578 39.6719C72.7375 39.6719 70.9 38.8297 69.2922 37.2219C67.6844 35.614 66.9188 33.7765 66.9953 31.5562C66.9953 29.5656 67.9141 27.575 69.7516 25.6609L70.3641 25.0484C71.7422 23.5172 72.8141 22.139 73.4266 20.7609C74.1156 19.4594 74.7281 17.6984 75.2641 15.4781Z" fill="#DCEDFE"/>
<path d="M86.9781 29.1828C87.361 30.9437 87.8203 32.3219 88.3563 33.3937C88.8922 34.4656 89.6578 35.5375 90.7297 36.7625L91.1891 37.2984C92.5672 38.9062 93.2563 40.4375 93.2563 41.9687C93.2563 43.6531 92.5672 45.1844 91.3422 46.4094C90.1172 47.6344 88.586 48.2469 86.825 48.1703C85.0641 48.1703 83.6094 47.4812 82.3844 46.2562C81.1594 45.0312 80.5469 43.5 80.5469 41.8156C80.5469 40.2844 81.3125 38.6765 82.6906 37.1453L83.15 36.6094C84.2219 35.3844 85.0641 34.3125 85.6 33.2406C86.0594 32.3219 86.5953 30.9437 86.9781 29.1828Z" fill="#DCEDFE"/>
</svg>
