<svg width="58" height="68" viewBox="0 0 58 68" fill="none" xmlns="http://www.w3.org/2000/svg">
<path d="M39.7664 24.0624L35.7146 16.4065C35.3023 15.5463 34.2715 15.1838 33.4185 15.5961C32.5584 16.0084 32.3735 17.0107 32.7858 17.8637C32.7858 17.8637 35.025 22.1359 37.3851 25.8608C37.3851 25.8608 39.5247 24.4036 39.7664 24.0624Z" fill="#F9C99B"/>
<path d="M44.1594 14.1887L41.4439 13.9754L41.3586 15.2834L40.6549 14.7858C40.1999 14.4943 39.8729 15.0843 39.8729 15.0843C39.8729 15.0843 40.1715 15.2905 40.3279 15.4042L41.3089 16.0866L41.7211 17.1814L43.548 17.3306C43.548 17.3306 43.9603 16.2999 44.0385 15.9374C44.0812 15.717 44.0954 15.0559 44.0954 15.0559L44.1594 14.1887Z" fill="#F9C99B"/>
<path d="M43.605 17.1812C43.079 19.2285 40.7403 25.0931 40.0223 26.1807C39.5247 26.9484 38.6077 26.7778 38.1812 26.5645C37.3139 26.1309 37.058 25.612 37.4988 24.4604C38.2949 22.3918 40.1787 19.7474 41.771 17.0817L43.605 17.1812Z" fill="#F9C99B"/>
<path d="M17.0973 24.0624L21.1492 16.4065C21.5615 15.5463 22.5922 15.1838 23.4452 15.5961C24.3054 16.0084 24.4902 17.0107 24.0779 17.8637C24.0779 17.8637 21.8387 22.1359 19.4787 25.8608C19.4787 25.8608 17.339 24.4036 17.0973 24.0624Z" fill="#F9C99B"/>
<path d="M12.7041 14.1887L15.4196 13.9754L15.5049 15.2834L16.2086 14.7858C16.6707 14.4943 16.9906 15.0843 16.9906 15.0843C16.9906 15.0843 16.692 15.2905 16.5356 15.4042L15.5546 16.0866L15.1423 17.1814L13.3154 17.3306C13.3154 17.3306 12.9031 16.2999 12.8249 15.9374C12.7823 15.717 12.7681 15.0559 12.7681 15.0559L12.7041 14.1887Z" fill="#F9C99B"/>
<path d="M13.2587 17.1812C13.7847 19.2285 16.1234 25.0931 16.8414 26.1807C17.3461 26.9484 18.2631 26.7778 18.6825 26.5645C19.5497 26.1309 19.8056 25.612 19.3649 24.4604C18.5688 22.3918 16.685 19.7474 15.0927 17.0817L13.2587 17.1812Z" fill="#F9C99B"/>
<path d="M0.27124 14.2526C0.278349 13.6626 0.512931 13.0583 0.790164 13.0583H2.13368V15.4539H0.790164C0.512931 15.4539 0.278349 14.8426 0.27124 14.2597V14.2526Z" fill="#5B5858"/>
<path d="M1.03186 14.2455V14.2242C1.03897 13.7337 1.06029 13.2432 1.11005 13.0868C1.30909 12.4471 1.63609 12.2054 2.5602 12.2054V16.2999C1.63609 16.2999 1.30909 16.0511 1.11005 15.4113C1.06029 15.2549 1.03897 14.7645 1.03186 14.274V14.2455Z" fill="#3C3736"/>
<path d="M2.6598 10.1936C2.73089 10.0728 2.85884 9.89508 3.12896 9.89508C3.39198 9.89508 3.79006 9.89508 4.18103 9.89508C3.44885 12.3404 3.36355 16.2572 4.11705 18.6599C3.7403 18.6599 3.36355 18.6599 3.12896 18.6599C2.91571 18.6599 2.73799 18.4751 2.6598 18.3614C1.55087 16.6482 1.68593 11.985 2.6598 10.1936Z" fill="#757475"/>
<path d="M3.69065 18.6599C3.01534 16.1648 3.09353 12.4257 3.76174 9.89508C3.8968 9.89508 4.03897 9.89508 4.18114 9.89508C3.44896 12.3404 3.36366 16.2572 4.11716 18.6599C3.97499 18.6599 3.83282 18.6599 3.69065 18.6599Z" fill="#3C3736"/>
<path d="M4.61462 19.8826C4.72125 20.0461 4.97004 20.2949 5.26149 20.2949C6.09319 20.2949 8.24708 20.2949 8.24708 20.2949V8.26013C8.24708 8.26013 6.15717 8.26013 5.26149 8.26013C4.89185 8.26013 4.70703 8.50893 4.61462 8.67243C3.2711 11.132 3.09339 17.5368 4.61462 19.8826Z" fill="#757475"/>
<path d="M6.02209 14.2811C6.02209 17.6008 7.01729 20.2949 8.24707 20.2949C9.46974 20.2949 10.4649 17.6008 10.4649 14.2811C10.4649 10.9543 9.46974 8.26013 8.24707 8.26013C7.01729 8.26013 6.02209 10.9543 6.02209 14.2811Z" fill="#535150"/>
<path d="M6.73999 14.2811C6.73999 16.5274 7.4153 18.3543 8.247 18.3543C9.07159 18.3543 9.74691 16.5274 9.74691 14.2811C9.74691 12.0277 9.07159 10.2079 8.247 10.2079C7.4153 10.2079 6.73999 12.0277 6.73999 14.2811Z" fill="#3C3736"/>
<path d="M8.49582 18.2904C9.02896 17.6648 9.40571 16.2289 9.40571 14.5513C9.40571 12.305 8.7304 10.4781 7.8987 10.4781C7.8134 10.4781 7.7281 10.4994 7.6499 10.542C7.82762 10.3288 8.02666 10.2079 8.2328 10.2079C8.2328 10.2079 8.2328 10.2079 8.23991 10.2079C8.23991 10.2079 8.23991 10.2079 8.24702 10.2079C9.07161 10.2079 9.74692 12.0277 9.74692 14.2811V14.2883C9.74692 14.2954 9.74692 14.2954 9.74692 14.2954C9.74692 14.3025 9.74692 14.3025 9.74692 14.3025V14.3096V14.3167C9.74692 14.3167 9.74692 14.3167 9.74692 14.3238C9.74692 14.3238 9.74692 14.3238 9.74692 14.3309C9.74692 14.3309 9.74692 14.3309 9.74692 14.338C9.74692 14.3451 9.74692 14.3451 9.74692 14.3451C9.74692 14.3522 9.74692 14.3522 9.74692 14.3522V14.3593V14.3664C9.74692 14.3664 9.74692 14.3664 9.74692 14.3736C9.74692 14.3878 9.74692 14.402 9.74692 14.4162V14.4233C9.74692 14.4304 9.74692 14.4375 9.74692 14.4446V14.4517C9.74692 14.4517 9.74692 14.4517 9.74692 14.4589V14.466C9.71138 16.3995 9.18535 17.9776 8.49582 18.2904Z" fill="#342E2C"/>
<path d="M57.5448 14.2526C57.5377 13.6626 57.296 13.0583 57.0259 13.0583H55.6753V15.4539H57.0259C57.296 15.4539 57.5377 14.8426 57.5448 14.2597V14.2526Z" fill="#5B5858"/>
<path d="M56.7842 14.2455V14.2242C56.7771 13.7337 56.7558 13.2432 56.706 13.0868C56.507 12.4471 56.18 12.2054 55.2559 12.2054V16.2999C56.18 16.2999 56.507 16.0511 56.706 15.4113C56.7558 15.2549 56.7771 14.7645 56.7842 14.274V14.2455Z" fill="#3C3736"/>
<path d="M55.1564 10.1936C55.0853 10.0728 54.9573 9.89508 54.6872 9.89508C54.4242 9.89508 54.0261 9.89508 53.6351 9.89508C54.3673 12.3404 54.4526 16.2572 53.692 18.6599C54.0688 18.6599 54.4526 18.6599 54.6872 18.6599C54.9005 18.6599 55.0782 18.4751 55.1564 18.3614C56.2653 16.6482 56.1302 11.985 55.1564 10.1936Z" fill="#757475"/>
<path d="M54.1256 18.6599C54.7938 16.1648 54.7156 12.4257 54.0545 9.89508C53.9195 9.89508 53.7773 9.89508 53.6351 9.89508C54.3673 12.3404 54.4526 16.2572 53.692 18.6599C53.8413 18.6599 53.9835 18.6599 54.1256 18.6599Z" fill="#3C3736"/>
<path d="M53.1945 19.8826C53.0949 20.0461 52.8461 20.2949 52.5547 20.2949C51.723 20.2949 49.5691 20.2949 49.5691 20.2949V8.26013C49.5691 8.26013 51.659 8.26013 52.5547 8.26013C52.9243 8.26013 53.1091 8.50893 53.1945 8.67243C54.538 11.132 54.7228 17.5368 53.1945 19.8826Z" fill="#757475"/>
<path d="M51.7868 14.2811C51.7868 17.6008 50.7987 20.2949 49.5689 20.2949C48.3463 20.2949 47.3511 17.6008 47.3511 14.2811C47.3511 10.9543 48.3463 8.26013 49.5689 8.26013C50.7987 8.26013 51.7868 10.9543 51.7868 14.2811Z" fill="#535150"/>
<path d="M51.069 14.2811C51.069 16.5274 50.4008 18.3543 49.5691 18.3543C48.7445 18.3543 48.0692 16.5274 48.0692 14.2811C48.0692 12.0277 48.7445 10.2079 49.5691 10.2079C50.4008 10.2079 51.069 12.0277 51.069 14.2811Z" fill="#3C3736"/>
<path d="M49.3203 18.2904C48.6877 17.9989 48.183 16.6341 48.0834 14.9067C48.0834 14.8996 48.0834 14.8996 48.0834 14.8925C48.0834 14.8854 48.0834 14.8854 48.0834 14.8783C48.0834 14.864 48.0834 14.8427 48.0834 14.8214C48.0834 14.8214 48.0834 14.8214 48.0834 14.8143C48.0834 14.8072 48.0834 14.8072 48.0834 14.8072C48.0834 14.8001 48.0834 14.8001 48.0834 14.8001V14.793C48.0834 14.793 48.0763 14.793 48.0763 14.7859C48.0763 14.7859 48.0763 14.7859 48.0763 14.7787C48.0763 14.7787 48.0763 14.7787 48.0763 14.7716C48.0763 14.7645 48.0763 14.7645 48.0763 14.7645V14.7574C48.0763 14.7574 48.0763 14.7574 48.0763 14.7503C48.0763 14.7503 48.0763 14.7503 48.0763 14.7432C48.0763 14.7361 48.0763 14.7361 48.0763 14.7361C48.0763 14.729 48.0763 14.7219 48.0763 14.7219V14.7148C48.0763 14.7148 48.0763 14.7148 48.0763 14.7077C48.0763 14.7077 48.0763 14.7077 48.0763 14.7005C48.0763 14.7005 48.0763 14.7005 48.0763 14.6934C48.0763 14.6863 48.0763 14.6863 48.0763 14.6863C48.0763 14.6792 48.0763 14.6792 48.0763 14.6792V14.6721C48.0763 14.6721 48.0763 14.6721 48.0763 14.665C48.0763 14.665 48.0763 14.665 48.0763 14.6579C48.0763 14.6579 48.0763 14.6579 48.0763 14.6508V14.6437V14.6366C48.0763 14.6295 48.0763 14.6152 48.0763 14.6081C48.0763 14.601 48.0692 14.601 48.0692 14.601V14.5939C48.0692 14.5939 48.0692 14.5939 48.0692 14.5868C48.0692 14.5868 48.0692 14.5868 48.0692 14.5797C48.0692 14.5797 48.0692 14.5797 48.0692 14.5726C48.0692 14.5655 48.0692 14.5655 48.0692 14.5655C48.0692 14.5584 48.0692 14.5584 48.0692 14.5584V14.5513V14.5442V14.5371C48.0692 14.5371 48.0692 14.5371 48.0692 14.5299C48.0692 14.5299 48.0692 14.5299 48.0692 14.5228C48.0692 14.5228 48.0692 14.5228 48.0692 14.5157C48.0692 14.5086 48.0692 14.4944 48.0692 14.4873C48.0692 14.4873 48.0692 14.4802 48.0692 14.4731C48.0692 14.466 48.0692 14.466 48.0692 14.466V14.4589V14.4517V14.4446C48.0692 14.4446 48.0692 14.4446 48.0692 14.4375C48.0692 14.4304 48.0692 14.4304 48.0692 14.4233C48.0692 14.4162 48.0692 14.4162 48.0692 14.4162C48.0692 14.4091 48.0692 14.4091 48.0692 14.4091C48.0692 14.4091 48.0692 14.402 48.0692 14.3949C48.0692 14.3878 48.0692 14.3807 48.0692 14.3736C48.0692 14.3664 48.0692 14.3664 48.0692 14.3664V14.3593V14.3522C48.0692 14.3522 48.0692 14.3522 48.0692 14.3451C48.0692 14.3451 48.0692 14.3451 48.0692 14.338C48.0692 14.3309 48.0692 14.3309 48.0692 14.3309C48.0692 14.3238 48.0692 14.3238 48.0692 14.3238V14.3167V14.3096V14.3025C48.0692 14.3025 48.0692 14.3025 48.0692 14.2954C48.0692 14.2954 48.0692 14.2954 48.0692 14.2883V14.2811C48.0692 12.0277 48.7445 10.2079 49.5691 10.2079H49.5762C49.5762 10.2079 49.5762 10.2079 49.5833 10.2079C49.5833 10.2079 49.5833 10.2079 49.5904 10.2079H49.5976C49.6047 10.2079 49.6047 10.2079 49.6047 10.2079C49.6118 10.2079 49.6118 10.2079 49.6118 10.2079C49.6189 10.2079 49.6189 10.2079 49.6189 10.2079C49.6189 10.2079 49.6189 10.2079 49.626 10.2079C49.6331 10.2079 49.6331 10.2079 49.6331 10.2079C49.6331 10.2079 49.6331 10.2079 49.6402 10.2079C49.6473 10.2079 49.6473 10.2079 49.6473 10.2079C49.6473 10.2079 49.6473 10.2079 49.6544 10.2151C49.6615 10.2151 49.6615 10.2151 49.6615 10.2151H49.6686C49.7255 10.2222 49.7824 10.2435 49.8392 10.2719H49.8464L49.8535 10.279C49.9672 10.3359 50.0667 10.4212 50.1662 10.542C50.0809 10.4994 50.0027 10.4781 49.9174 10.4781C49.0857 10.4781 48.4104 12.305 48.4104 14.5513C48.4104 16.2289 48.7872 17.6648 49.3203 18.2904Z" fill="#342E2C"/>
<path d="M51.0405 13.5277H6.76842C6.75421 13.7552 6.73999 13.9613 6.73999 14.1959C6.73999 14.4874 6.75421 14.7646 6.76842 15.0276H51.012C51.0618 14.7717 51.0973 14.4874 51.0973 14.1959C51.0973 13.9613 51.076 13.741 51.0405 13.5277Z" fill="#565453"/>
<path d="M28.6629 10.542H26.0896C26.0896 10.542 26.0896 12.6603 26.0896 13.4494C26.0896 14.2384 27.4971 15.7526 28.6629 15.7526H28.67C29.8358 15.7526 31.2433 14.2384 31.2433 13.4494C31.2433 12.6603 31.2433 10.542 31.2433 10.542H28.6629Z" fill="#F9C99B"/>
<path d="M31.2433 10.9899C31.2433 10.7197 31.2433 10.542 31.2433 10.542H26.0896C26.0896 10.4709 26.0896 10.4283 26.0896 10.4283H31.2433C31.2433 10.4283 31.2433 10.6558 31.2433 10.9899Z" fill="#EEEEEF"/>
<path d="M28.7269 12.5537C27.9663 12.5537 26.9426 12.0135 26.0896 11.0396C26.0896 10.8263 26.0896 10.6486 26.0896 10.542H31.2433C31.2433 10.542 31.2433 10.7197 31.2433 10.9898C30.4756 12.0561 29.5159 12.5537 28.7269 12.5537Z" fill="#E9BD92"/>
<path d="M28.7269 1.40039C28.7269 1.40039 32.5655 1.1516 32.5655 5.73661C32.5655 10.3287 30.305 12.2978 28.7269 12.2978C27.1488 12.2978 24.4618 10.0017 24.4618 6.3124C24.4618 2.62306 26.1821 1.50702 28.7269 1.40039Z" fill="#F9C99B"/>
<path d="M32.3878 6.40488C32.3878 6.40488 32.5015 5.64426 32.9138 5.74378C33.319 5.8433 33.2835 6.98778 32.9138 7.54224C32.5371 8.10382 32.3309 7.92611 32.3309 7.92611L32.3878 6.40488Z" fill="#F9C99B"/>
<path d="M24.5755 6.40488C24.5755 6.40488 24.4618 5.64426 24.0495 5.74378C23.6372 5.8433 23.6727 6.98778 24.0495 7.54224C24.4262 8.10382 24.6395 7.92611 24.6395 7.92611L24.5755 6.40488Z" fill="#F9C99B"/>
<path d="M28.9045 37.3979C28.9045 37.3979 29.2386 41.9971 29.6154 43.1843C29.9921 44.3714 30.5395 47.0655 30.4258 49.7526C30.2836 53.186 30.831 56.0792 31.8546 58.5387C32.473 60.0315 31.748 62.5337 31.6129 63.1522L33.255 63.5076L34.4919 62.9318C34.4919 62.9318 34.5416 56.9819 34.7549 55.4394C34.9681 53.8968 34.7478 49.653 34.6269 47.8332C34.5061 46.0206 34.0511 42.4734 34.0938 42.0042C34.1364 41.5351 34.2999 38.713 34.0298 37.014L28.9045 37.3979Z" fill="#F9C99B"/>
<path d="M34.5487 62.5765C34.5487 62.5765 34.6127 63.2447 35.1458 63.6855C35.7572 64.1902 36.3472 64.7162 36.9727 64.9792C37.2642 65.1001 37.6267 65.946 37.5059 66.145C37.5059 66.145 36.9656 66.6 34.9255 66.4933C33.3616 66.4151 33.0559 64.4461 31.8261 64.3821C31.4636 64.3608 31.2859 63.8987 31.3001 63.6215C31.3143 63.4082 31.6058 62.7898 31.62 62.5197C31.6271 62.4415 31.7551 62.541 31.7551 62.541C31.7551 62.541 31.9328 62.6832 32.5441 63.0173C33.0133 63.2732 34.3994 63.0954 34.4421 62.6974C34.4563 62.5481 34.5487 62.5765 34.5487 62.5765Z" fill="#474443"/>
<path d="M37.52 66.1023C37.5129 66.1237 37.5129 66.1379 37.4987 66.1521C37.4987 66.1521 36.9656 66.6141 34.9254 66.5004C33.3615 66.4222 33.0559 64.4532 31.8261 64.3892C31.4635 64.3678 31.2858 63.9058 31.3001 63.6286L31.3072 63.593C31.229 63.7992 31.1508 64.0053 31.1508 64.1119C31.1294 64.3821 31.3214 64.8512 31.691 64.8654C32.9777 64.9365 33.2976 66.9056 34.9254 66.9909C37.0509 67.1046 37.6053 66.6497 37.6053 66.6497C37.6622 66.5573 37.6124 66.3369 37.52 66.1023Z" fill="#C9CACA"/>
<path d="M28.3501 37.3979C28.3501 37.3979 28.0232 41.9971 27.6464 43.1843C27.2696 44.3714 26.7223 47.0655 26.8289 49.7526C26.9711 53.186 26.4237 56.0792 25.4072 58.5387C24.7888 60.0315 25.5138 62.5337 25.6418 63.1522L24.0068 63.5076L22.7699 62.9318C22.7699 62.9318 22.7131 56.9819 22.4998 55.4394C22.2937 53.8968 22.5069 49.653 22.6278 47.8332C22.7557 46.0206 23.2107 42.4734 23.168 42.0042C23.1254 41.5351 22.9619 38.713 23.232 37.014L28.3501 37.3979Z" fill="#F9C99B"/>
<path d="M22.713 62.5765C22.713 62.5765 22.6419 63.2447 22.1159 63.6855C21.4974 64.1902 20.9145 64.7162 20.2819 64.9792C19.9975 65.1001 19.635 65.946 19.7558 66.145C19.7558 66.145 20.289 66.6 22.3362 66.4933C23.893 66.4151 24.1987 64.4461 25.4356 64.3821C25.791 64.3608 25.9758 63.8987 25.9545 63.6215C25.9474 63.4082 25.6488 62.7898 25.6417 62.5197C25.6346 62.4415 25.5066 62.541 25.5066 62.541C25.5066 62.541 25.3289 62.6832 24.7105 63.0173C24.2484 63.2732 22.8623 63.0954 22.8196 62.6974C22.8054 62.5481 22.713 62.5765 22.713 62.5765Z" fill="#474443"/>
<path d="M19.7416 66.1023C19.7416 66.1237 19.7487 66.1379 19.7559 66.1521C19.7559 66.1521 20.289 66.6141 22.3363 66.5004C23.893 66.4222 24.2058 64.4532 25.4356 64.3892C25.7981 64.3678 25.9758 63.9058 25.9616 63.6286L25.9545 63.593C26.0327 63.7992 26.1038 64.0053 26.1109 64.1119C26.1251 64.3821 25.9403 64.8512 25.5635 64.8654C24.284 64.9365 23.957 66.9056 22.3363 66.9909C20.2108 67.1046 19.6563 66.6497 19.6563 66.6497C19.5995 66.5573 19.6421 66.3369 19.7416 66.1023Z" fill="#C9CACA"/>
<path d="M28.2362 43.6891L28.6201 36.5806L29.1319 43.6891H34.6339L34.0226 32.2586H23.1678L22.72 43.6891H28.2362Z" fill="#3C3736"/>
<path d="M34.7549 15.3046C33.6033 14.5297 32.2598 13.9255 31.2433 13.3853C31.2433 13.3853 30.3476 15.0202 28.7553 15.0202C26.9355 15.0202 26.0896 13.3853 26.0896 13.3853C25.073 13.9255 23.4452 14.4515 22.2865 15.2335L23.1751 21.2544L23.0045 35.436H34.2431L33.9232 21.2544L34.7549 15.3046Z" fill="#EB6622"/>
<path d="M32.4729 3.70355C32.0535 2.72968 31.4848 2.11835 30.909 1.72027C30.8308 1.62075 30.1981 0.838808 29.6863 0.533141C29.6863 0.533141 29.864 0.78194 29.9209 1.08761C29.9209 1.08761 29.7148 0.668203 29.3025 0.454947C28.8973 0.234582 28.748 0 28.748 0C28.748 0 28.5774 0.554467 28.2931 0.611335C28.2931 0.611335 28.4708 0.497598 28.5134 0.241691C28.5134 0.241691 28.0585 0.753506 26.7789 1.28665C26.715 1.31508 26.6581 1.33641 26.5941 1.36484L26.5515 1.37906V1.38617C25.8264 1.70605 25.0729 2.3316 24.5397 3.52584C24.2696 4.13007 24.2341 4.52104 24.1985 5.06839C24.1843 5.28876 24.2341 5.62997 24.2696 5.82901C24.2838 5.87166 24.2981 5.97118 24.3052 6.02094C24.4118 6.85975 24.7672 7.6488 24.7672 7.6488C24.7672 7.6488 24.8738 7.22228 25.0018 7.16541C25.0729 7.12987 24.6819 6.156 24.8028 5.27454C24.8952 4.84803 25.2719 3.81018 25.5563 3.68934C26.3311 3.35523 26.8927 4.51393 28.5347 4.52814H28.549C30.1839 4.51393 30.7455 3.36945 31.5274 3.68934C32.4516 4.05898 32.2952 6.88107 32.3734 6.90951C32.5013 6.96638 32.4942 7.37156 32.4942 7.37156C32.4942 7.37156 33.397 5.8219 32.4729 3.70355Z" fill="#693823"/>
<path d="M37.904 19.9607L35.8567 16.4989C35.2951 15.3402 34.2573 14.9065 33.3403 15.2691C32.4233 15.6387 31.9897 16.6623 32.3593 17.558C32.3593 17.558 33.4185 19.4631 34.8473 22.2852C36.0558 21.5601 37.4632 20.1455 37.904 19.9607Z" fill="#EB6622"/>
<path d="M18.9596 20.096L21.1988 16.2361C21.5684 15.3404 22.6134 14.9068 23.5233 15.2693C24.4403 15.6389 24.8739 16.6626 24.5043 17.5583C24.5043 17.5583 23.5304 18.9373 22.1087 21.7594C20.9002 21.0343 18.9951 20.096 18.9596 20.096Z" fill="#EB6622"/>
<path d="M43.7046 15.2051C43.5411 15.1909 43.4274 15.0558 43.4416 14.8994L43.5483 13.4848C43.5625 13.3284 43.6975 13.2147 43.861 13.2289L43.9606 13.236C44.1169 13.2431 44.2378 13.3853 44.2236 13.5417L44.1098 14.9492C44.1027 15.1056 43.9606 15.2264 43.8042 15.2122L43.7046 15.2051Z" fill="#F9C99B"/>
<path d="M43.9887 15.0062L44.01 14.7787C44.0171 14.6579 43.9247 14.5512 43.8039 14.5441C43.683 14.537 43.5764 14.6223 43.5693 14.7432L43.548 14.9777C43.548 14.9777 43.6475 15.0559 43.7754 15.063C43.875 15.0701 43.9887 15.0062 43.9887 15.0062Z" fill="#FAD6B1"/>
<path d="M43.0079 15.1483C42.8444 15.1341 42.7306 14.9991 42.7449 14.8427L42.8515 13.4352C42.8657 13.2788 43.0008 13.1579 43.1643 13.1722L43.2638 13.1793C43.4202 13.1935 43.541 13.3285 43.5268 13.4849L43.4131 14.8924C43.4059 15.0559 43.2638 15.1697 43.1074 15.1554L43.0079 15.1483Z" fill="#F9C99B"/>
<path d="M43.2923 14.9563L43.3136 14.7217C43.3278 14.6008 43.2283 14.4942 43.1075 14.4871C42.9866 14.48 42.88 14.5653 42.8729 14.6861L42.8516 14.9207C42.8516 14.9207 42.9511 14.9989 43.079 15.006C43.1786 15.0202 43.2923 14.9563 43.2923 14.9563Z" fill="#FAD6B1"/>
<path d="M42.3113 15.0913C42.1549 15.0842 42.034 14.942 42.0483 14.7857L42.1549 13.3782C42.1691 13.2218 42.3113 13.1009 42.4677 13.1152L42.5672 13.1223C42.7236 13.1365 42.8444 13.2715 42.8302 13.4279L42.7236 14.8425C42.7094 14.9989 42.5672 15.1127 42.4108 15.1055L42.3113 15.0913Z" fill="#F9C99B"/>
<path d="M42.6026 14.8995L42.6168 14.665C42.6311 14.5512 42.5386 14.4446 42.4107 14.4304C42.2898 14.4233 42.1832 14.5157 42.1761 14.6294L42.1548 14.864C42.1548 14.864 42.2543 14.9422 42.3823 14.9564C42.4818 14.9635 42.6026 14.8995 42.6026 14.8995Z" fill="#FAD6B1"/>
<path d="M41.6147 15.0417C41.4584 15.0275 41.3375 14.8925 41.3517 14.7361L41.4655 13.3215C41.4726 13.1651 41.6147 13.0442 41.7711 13.0584L41.8706 13.0656C42.027 13.0798 42.1479 13.2219 42.1337 13.3783L42.027 14.7858C42.0128 14.9422 41.8706 15.0631 41.7143 15.0488L41.6147 15.0417Z" fill="#F9C99B"/>
<path d="M41.9061 14.8426L41.9203 14.6151C41.9345 14.4943 41.8421 14.3876 41.7213 14.3805C41.5933 14.3663 41.4867 14.4587 41.4796 14.5796L41.4583 14.807C41.4583 14.807 41.5578 14.8852 41.6857 14.8995C41.7924 14.9066 41.9061 14.8426 41.9061 14.8426Z" fill="#FAD6B1"/>
<path d="M13.1592 15.2051C13.3227 15.1909 13.4365 15.0558 13.4222 14.8994L13.3156 13.4848C13.3014 13.3284 13.1663 13.2147 13.0099 13.2289L12.9033 13.236C12.7469 13.2431 12.6261 13.3853 12.6403 13.5417L12.754 14.9492C12.7611 15.1056 12.9033 15.2264 13.0597 15.2122L13.1592 15.2051Z" fill="#F9C99B"/>
<path d="M12.8749 15.0062L12.8535 14.7787C12.8464 14.6579 12.9388 14.5512 13.0597 14.5441C13.1805 14.537 13.2872 14.6223 13.2943 14.7432L13.3156 14.9777C13.3156 14.9777 13.2161 15.0559 13.0881 15.063C12.9886 15.0701 12.8749 15.0062 12.8749 15.0062Z" fill="#FAD6B1"/>
<path d="M13.8558 15.1483C14.0193 15.1341 14.133 14.9991 14.1188 14.8427L14.0121 13.4352C13.9979 13.2788 13.8558 13.1579 13.6994 13.1722L13.5998 13.1793C13.4435 13.1935 13.3226 13.3285 13.3368 13.4849L13.4506 14.8924C13.4577 15.0559 13.5998 15.1697 13.7562 15.1554L13.8558 15.1483Z" fill="#F9C99B"/>
<path d="M13.5714 14.9563L13.5501 14.7217C13.543 14.6008 13.6354 14.4942 13.7562 14.4871C13.8771 14.48 13.9837 14.5653 13.9908 14.6861L14.0121 14.9207C14.0121 14.9207 13.9126 14.9989 13.7846 15.006C13.6851 15.0202 13.5714 14.9563 13.5714 14.9563Z" fill="#FAD6B1"/>
<path d="M14.5523 15.0913C14.7087 15.0842 14.8295 14.942 14.8153 14.7857L14.7016 13.3782C14.6945 13.2218 14.5523 13.1009 14.3959 13.1152L14.2964 13.1223C14.14 13.1365 14.0191 13.2715 14.0334 13.4279L14.14 14.8425C14.1542 14.9989 14.2964 15.1127 14.4528 15.1055L14.5523 15.0913Z" fill="#F9C99B"/>
<path d="M14.261 14.8995L14.2468 14.665C14.2326 14.5512 14.325 14.4446 14.453 14.4304C14.5738 14.4233 14.6804 14.5157 14.6875 14.6294L14.7089 14.864C14.7089 14.864 14.6093 14.9422 14.4814 14.9564C14.3819 14.9635 14.261 14.8995 14.261 14.8995Z" fill="#FAD6B1"/>
<path d="M15.2489 15.0417C15.4053 15.0275 15.5262 14.8925 15.512 14.7361L15.3982 13.3215C15.3911 13.1651 15.2489 13.0442 15.0926 13.0584L14.993 13.0656C14.8366 13.0798 14.7158 13.2219 14.73 13.3783L14.8438 14.7858C14.8509 14.9422 14.993 15.0631 15.1494 15.0488L15.2489 15.0417Z" fill="#F9C99B"/>
<path d="M14.9576 14.8426L14.9433 14.6151C14.9291 14.4943 15.0215 14.3876 15.1495 14.3805C15.2703 14.3663 15.377 14.4587 15.3841 14.5796L15.4054 14.807C15.4054 14.807 15.2988 14.8852 15.1779 14.8995C15.0713 14.9066 14.9576 14.8426 14.9576 14.8426Z" fill="#FAD6B1"/>
</svg>
