<svg width="120" height="120" viewBox="0 0 120 120" fill="none" xmlns="http://www.w3.org/2000/svg">
<path d="M51.7999 58.5498L15.95 33.1006C19.9 26.7506 27 22.5 35 22.5H85C93 22.5 100.05 26.7005 104.05 33.0505L68.2999 58.4497C63.2499 61.7997 56.7499 61.7998 51.7999 58.5498ZM107.4 43.0005L73.9999 66.7004C69.6999 69.5504 64.8 70.9497 59.95 70.9497C55.15 70.9497 50.3499 69.5505 46.1499 66.7505L12.6001 43.0005C12.5501 43.6505 12.5 44.35 12.5 45V75C12.5 87.4 22.6 97.5 35 97.5H85C97.4 97.5 107.5 87.4 107.5 75V45C107.5 44.35 107.45 43.6505 107.4 43.0005Z" fill="#1F3C88"/>
</svg>
