<svg width="27" height="24" viewBox="0 0 27 24" fill="none" xmlns="http://www.w3.org/2000/svg">
<path d="M23.5036 10.1144C22.8819 9.1544 21.8458 7.8504 20.4039 6.7004L22.7459 4.53042C23.0622 4.23742 23.0622 3.76238 22.7459 3.46938C22.4297 3.17638 21.917 3.17638 21.6008 3.46938L15.6292 9.0024L15.6271 9.00338L15.626 9.00442L4.33144 19.4694C4.01521 19.7624 4.01521 20.2374 4.33144 20.5304C4.48901 20.6764 4.69623 20.7504 4.90345 20.7504C5.11067 20.7504 5.31789 20.6774 5.47546 20.5304L7.96857 18.2204C9.67813 19.2324 11.5485 19.7504 13.5397 19.7504C18.8789 19.7504 22.0725 16.0774 23.5025 13.8854C24.2558 12.7224 24.2558 11.2784 23.5036 10.1144ZM16.5077 12.0004C16.5077 13.5174 15.1759 14.7504 13.5397 14.7504C13.0238 14.7504 12.5371 14.6184 12.1032 14.3924L16.1203 10.6704C16.3653 11.0714 16.5077 11.5224 16.5077 12.0004ZM22.1178 13.1124C20.8658 15.0314 18.0867 18.2504 13.5419 18.2504C11.9867 18.2504 10.5221 17.8553 9.16117 17.1173L10.9258 15.4824C11.6845 15.9774 12.5857 16.2504 13.5387 16.2504C16.0674 16.2504 18.1256 14.3434 18.1256 12.0004C18.1256 11.1174 17.8309 10.2824 17.2967 9.57937L19.2577 7.76241C20.5874 8.80041 21.5447 10.0044 22.1156 10.8854C22.5592 11.5734 22.5592 12.4274 22.1178 13.1124ZM5.04699 15.7833C4.50951 15.1933 4.01628 14.5554 3.58134 13.8874C2.83017 12.7214 2.83016 11.2774 3.58025 10.1154C5.01028 7.92338 8.20386 4.25039 13.543 4.25039C14.5748 4.25039 15.572 4.38839 16.5919 4.67239C17.0193 4.79139 17.2632 5.20941 17.1337 5.60641C17.0053 6.00341 16.5542 6.22836 16.1257 6.10836C15.259 5.86736 14.414 5.75039 13.5419 5.75039C8.99819 5.75039 6.21798 8.96939 4.96603 10.8884C4.52461 11.5734 4.52462 12.4274 4.9682 13.1154C5.35782 13.7134 5.80031 14.2864 6.28382 14.8164C6.57199 15.1324 6.52883 15.6064 6.18778 15.8734C6.0356 15.9924 5.85105 16.0504 5.66649 16.0504C5.43553 16.0504 5.20672 15.9593 5.04699 15.7833ZM13.7459 8.43539C13.8139 8.84439 13.5117 9.22737 13.0692 9.29037C11.8173 9.46937 10.8092 10.4044 10.616 11.5634C10.5545 11.9344 10.2102 12.1994 9.81737 12.1994C9.77636 12.1994 9.73424 12.1964 9.69323 12.1904C9.25073 12.1274 8.94855 11.7444 9.01655 11.3354C9.3209 9.50741 10.8513 8.09037 12.8231 7.80837C13.2581 7.74637 13.6768 8.02639 13.7459 8.43539Z" fill="#1F3C88"/>
</svg>
