<svg width="41" height="87" viewBox="0 0 41 87" fill="none" xmlns="http://www.w3.org/2000/svg">
<mask id="mask0_304_2192" style="mask-type:luminance" maskUnits="userSpaceOnUse" x="25" y="29" width="14" height="8">
<path d="M27.8026 32.2679C27.8026 32.2679 32.7032 32.2237 33.8365 31.7989C34.4999 31.5508 34.8104 30.7867 35.338 30.1907C36.0781 29.3553 36.0374 29.6005 37.0609 29.7894C38.2937 30.0168 38.2934 30.4345 38.1045 31.0889C38.4296 31.3562 38.7007 31.7583 38.3815 32.3763C38.8764 32.7562 38.8651 33.4627 38.2871 33.8497C36.5393 35.0195 35.927 34.7486 33.7545 35.3103C32.4439 35.6496 29.4345 36.6547 27.4676 36.4388C25.8504 36.2613 26.0632 36.1522 25.7754 35.6475C25.0118 34.3102 27.8026 32.2679 27.8026 32.2679Z" fill="white"/>
</mask>
<g mask="url(#mask0_304_2192)">
<path d="M27.8026 32.2679C27.8026 32.2679 32.7032 32.2237 33.8365 31.7989C34.4999 31.5508 34.8104 30.7867 35.338 30.1907C36.0781 29.3553 36.0374 29.6005 37.0609 29.7894C38.2937 30.0168 38.2934 30.4345 38.1045 31.0889C38.4296 31.3562 38.7007 31.7583 38.3815 32.3763C38.8764 32.7562 38.8651 33.4627 38.2871 33.8497C36.5393 35.0195 35.927 34.7486 33.7545 35.3103C32.4439 35.6496 29.4345 36.6547 27.4676 36.4388C25.8504 36.2613 26.0632 36.1522 25.7754 35.6475C25.0118 34.3102 27.8026 32.2679 27.8026 32.2679Z" fill="url(#paint0_linear_304_2192)"/>
</g>
<path d="M3.70532 71.561C3.70532 71.561 4.58934 68.5371 7.20786 65.3799C7.94682 66.7037 11.0398 68.1401 12.2722 68.9171C9.06459 71.2651 6.04051 73.6981 6.04051 73.6981L3.01196 73.9718L3.70532 71.561Z" fill="#F68C83"/>
<path d="M28.7305 52.8918C28.3406 53.7251 24.702 61.0004 23.1319 63.1425C21.562 65.2845 19.7915 65.3066 17.3158 66.6838C15.6214 67.6262 10.129 70.5146 10.129 70.5146C10.129 70.5146 8.23682 70.2267 7.57555 69.6756C6.7256 68.9678 5.71655 67.4252 5.71655 67.4252C5.71655 67.4252 6.4755 62.1295 8.64353 59.7422C11.0185 57.1275 12.2722 56.8281 12.2722 56.8281C12.2722 56.8281 11.0755 51.2152 12.7345 45.4783C13.7389 42.0061 28.7305 52.8918 28.7305 52.8918Z" fill="#611D52"/>
<mask id="mask1_304_2192" style="mask-type:luminance" maskUnits="userSpaceOnUse" x="19" y="5" width="14" height="19">
<path d="M28.5642 23.9678L19.4424 19.8347C19.4424 19.8347 21.5695 16.9563 21.8133 15.7323C22.22 13.69 21.4962 10.9727 21.5258 10.6377H21.5261C21.4314 10.3426 21.3581 9.98329 21.3219 9.51709C21.0521 6.03986 25.4184 4.85014 28.5011 5.27072C29.7454 5.43966 30.1087 5.33985 30.597 6.55809C31.0867 7.7799 30.5472 7.80485 30.6836 9.57198C30.7212 10.0624 31.4655 10.669 31.8357 11.0825C32.1104 11.3897 32.4076 11.5159 32.3561 11.6542C32.1298 12.2637 31.7372 12.1011 31.4616 12.4048C31.359 12.5189 31.1305 12.7534 31.3468 13.0891C30.8155 13.3728 30.3338 13.5268 30.3178 13.6402C30.2663 13.9902 31.0009 13.8469 30.9299 14.1456C30.8148 14.6303 31.4306 15.3716 31.2774 16.0467C31.0499 17.0468 30.1859 16.7275 29.5478 17.9813C28.9972 19.0634 28.6414 18.8696 28.2895 20.5775C28.0438 21.773 28.5642 23.9678 28.5642 23.9678Z" fill="white"/>
</mask>
<g mask="url(#mask1_304_2192)">
<path d="M28.5642 23.9678L19.4424 19.8347C19.4424 19.8347 21.5695 16.9563 21.8133 15.7323C22.22 13.69 21.4962 10.9727 21.5258 10.6377H21.5261C21.4314 10.3426 21.3581 9.98329 21.3219 9.51709C21.0521 6.03986 25.4184 4.85014 28.5011 5.27072C29.7454 5.43966 30.1087 5.33985 30.597 6.55809C31.0867 7.7799 30.5472 7.80485 30.6836 9.57198C30.7212 10.0624 31.4655 10.669 31.8357 11.0825C32.1104 11.3897 32.4076 11.5159 32.3561 11.6542C32.1298 12.2637 31.7372 12.1011 31.4616 12.4048C31.359 12.5189 31.1305 12.7534 31.3468 13.0891C30.8155 13.3728 30.3338 13.5268 30.3178 13.6402C30.2663 13.9902 31.0009 13.8469 30.9299 14.1456C30.8148 14.6303 31.4306 15.3716 31.2774 16.0467C31.0499 17.0468 30.1859 16.7275 29.5478 17.9813C28.9972 19.0634 28.6414 18.8696 28.2895 20.5775C28.0438 21.773 28.5642 23.9678 28.5642 23.9678Z" fill="url(#paint1_linear_304_2192)"/>
</g>
<mask id="mask2_304_2192" style="mask-type:luminance" maskUnits="userSpaceOnUse" x="15" y="0" width="7" height="9">
<path d="M16.8597 7.86101C17.1026 7.89523 17.3546 7.85816 17.5906 7.79543C16.7562 7.60867 15.894 7.1553 15.8457 6.07534C15.8423 5.99337 15.844 5.92209 15.844 5.84795C15.7922 6.0725 15.7541 6.33483 15.7817 6.56864C15.8457 7.1104 16.0676 7.75052 16.8597 7.86101ZM15.8545 5.56995C15.9743 4.04875 17.0611 4.36026 17.8092 2.35932C18.6321 0.158783 21.074 0.0632648 21.4586 1.88029C21.8432 3.69875 21.4586 5.31903 21.4586 5.31903L19.173 7.90807C19.173 7.90807 18.8376 7.93658 18.3814 7.90664C18.0173 8.08628 17.5486 8.288 17.2083 8.32222C16.5747 8.38637 15.497 7.44043 15.4336 6.86089C15.3905 6.46384 15.6716 5.89358 15.8545 5.56995Z" fill="white"/>
</mask>
<g mask="url(#mask2_304_2192)">
<path d="M16.8597 7.86101C17.1026 7.89523 17.3546 7.85816 17.5906 7.79543C16.7562 7.60867 15.894 7.1553 15.8457 6.07534C15.8423 5.99337 15.844 5.92209 15.844 5.84795C15.7922 6.0725 15.7541 6.33483 15.7817 6.56864C15.8457 7.1104 16.0676 7.75052 16.8597 7.86101ZM15.8545 5.56995C15.9743 4.04875 17.0611 4.36026 17.8092 2.35932C18.6321 0.158783 21.074 0.0632648 21.4586 1.88029C21.8432 3.69875 21.4586 5.31903 21.4586 5.31903L19.173 7.90807C19.173 7.90807 18.8376 7.93658 18.3814 7.90664C18.0173 8.08628 17.5486 8.288 17.2083 8.32222C16.5747 8.38637 15.497 7.44043 15.4336 6.86089C15.3905 6.46384 15.6716 5.89358 15.8545 5.56995Z" fill="url(#paint2_linear_304_2192)"/>
</g>
<path d="M21.984 3.92265C21.984 3.92265 22.067 3.09861 20.7846 3.92265C19.0509 5.03825 18.7064 7.04704 19.1729 7.90815C19.6394 8.76926 20.2334 8.57607 20.2334 8.57607L21.984 3.92265Z" fill="#F13FA8"/>
<path d="M18.9831 9.54046C19.2674 8.59452 19.5538 7.92089 19.5538 7.92089C19.5538 7.92089 19.5621 7.91875 19.5666 7.91732C19.6 7.68209 19.6349 7.44614 19.7013 7.20591C21.0421 2.35931 25.9694 2.78988 27.5211 3.21972C30.8274 4.13714 30.4185 5.86506 30.4185 5.86506C30.4185 5.86506 28.9405 6.04256 27.5211 5.65905C26.8535 6.23075 27.1033 7.25368 26.9365 7.90664C26.7447 8.65797 25.8745 9.54047 25.9694 10.403C25.4465 9.84556 24.6176 9.86836 24.2109 10.9939C23.9024 11.8465 24.3229 12.2535 24.6469 12.8887C24.5429 14.8525 21.8132 15.7322 21.8132 15.7322C21.8132 15.7322 19.7876 14.6572 18.9831 13.0362C18.4678 11.9983 18.7924 10.1756 18.9831 9.54046Z" fill="#772619"/>
<path d="M31.1815 12.821C31.1815 12.821 31.5177 12.764 31.4374 13.0976C31.3752 13.3571 30.6506 13.6329 30.6506 13.6329C30.6506 13.6329 31.2233 13.8154 31.2773 14.1932C31.3252 14.5311 30.9298 14.4556 30.9298 14.4556C30.9298 14.4556 30.417 14.1932 29.8416 13.7185C30.4345 13.2722 31.1815 12.821 31.1815 12.821Z" fill="#F13FA8"/>
<path d="M29.8872 9.21558C29.8872 9.21558 29.9177 9.53136 29.9069 9.72739C29.8964 9.92343 29.8692 10.2492 29.3933 10.2385C28.9177 10.2278 28.4817 9.92771 28.4817 9.92771L29.8872 9.21558Z" fill="white"/>
<path d="M29.8979 9.30745C29.8979 9.30745 30.0382 10.0367 29.7361 10.1507C29.3208 10.3069 29.3573 9.4821 29.3573 9.4821L29.8979 9.30745Z" fill="#4794B9"/>
<path d="M29.5476 9.81505C29.5476 9.94907 29.6184 10.0588 29.706 10.0588C29.7935 10.0588 29.8642 9.94907 29.8642 9.81505C29.8642 9.68104 29.7935 9.57196 29.706 9.57196C29.6184 9.57196 29.5476 9.68104 29.5476 9.81505Z" fill="#55191D"/>
<path d="M29.6433 9.57236C29.6433 9.65772 29.6877 9.72742 29.7427 9.72742C29.7973 9.72742 29.842 9.65772 29.842 9.57236C29.842 9.4863 29.7973 9.41731 29.7427 9.41731C29.6877 9.41731 29.6433 9.4863 29.6433 9.57236Z" fill="white"/>
<path d="M29.7735 7.27843C30.1349 7.29982 30.4625 7.45236 30.2511 7.60918C29.9271 7.85012 29.5757 7.57924 29.0268 7.9157C28.6436 8.15094 27.7903 9.21521 27.7903 9.21521C27.7903 9.21521 28.259 7.1879 29.7735 7.27843Z" fill="#55191D"/>
<path d="M28.4817 9.92749C28.4817 9.92749 29.1164 9.58248 29.3569 9.41639C29.7171 9.1669 30.0278 8.90458 30.0278 8.90458C30.0278 8.90458 30.1086 9.13339 30.3977 9.23104C30.6213 9.30661 30.9301 9.28593 30.9301 9.28593C30.9301 9.28593 30.3977 9.42709 30.0546 9.36863C30.1089 9.51405 30.2331 9.62312 30.3415 9.68799C29.9359 9.71436 29.7486 9.52546 29.6764 9.42281C29.4797 9.56324 29.245 9.69439 29.055 9.76425C28.6115 9.92749 28.4817 9.92749 28.4817 9.92749Z" fill="#55191D"/>
<path d="M31.8004 11.8759C31.8004 11.8759 31.498 11.9193 31.3464 12.0715C31.1951 12.2237 31.3134 12.3539 31.4922 12.2237C31.6709 12.0936 31.8004 11.8759 31.8004 11.8759Z" fill="#F68C83"/>
<mask id="mask3_304_2192" style="mask-type:luminance" maskUnits="userSpaceOnUse" x="28" y="8" width="3" height="2">
<path d="M30.1081 8.37161V8.63322C30.1081 8.63322 29.7229 8.89412 29.3564 9.13363C28.9895 9.37243 28.73 9.41663 28.73 9.41663C28.73 9.41663 29.1951 8.85064 30.1081 8.37161Z" fill="white"/>
</mask>
<g mask="url(#mask3_304_2192)">
<path d="M30.1081 8.37161V8.63322C30.1081 8.63322 29.7229 8.89412 29.3564 9.13363C28.9895 9.37243 28.73 9.41663 28.73 9.41663C28.73 9.41663 29.1951 8.85064 30.1081 8.37161Z" fill="url(#paint3_linear_304_2192)"/>
</g>
<mask id="mask4_304_2192" style="mask-type:luminance" maskUnits="userSpaceOnUse" x="24" y="10" width="3" height="3">
<path d="M24.7095 11.3574C24.7095 11.3574 24.8489 10.7393 25.3674 10.8527C25.8867 10.966 26.0162 11.7487 26.0162 11.7487C26.0162 11.7487 25.5622 11.6839 25.5838 12.0538C25.6054 12.4238 25.8217 12.4886 25.8217 12.4886C25.8217 12.4886 25.6701 12.7381 25.454 12.6897C25.2379 12.6412 25.0215 12.3368 25.1729 12.0538C25.3243 11.7708 25.4551 11.5648 25.363 11.4443C25.1082 11.11 24.7095 11.3574 24.7095 11.3574Z" fill="white"/>
</mask>
<g mask="url(#mask4_304_2192)">
<path d="M24.7095 11.3574C24.7095 11.3574 24.8489 10.7393 25.3674 10.8527C25.8867 10.966 26.0162 11.7487 26.0162 11.7487C26.0162 11.7487 25.5622 11.6839 25.5838 12.0538C25.6054 12.4238 25.8217 12.4886 25.8217 12.4886C25.8217 12.4886 25.6701 12.7381 25.454 12.6897C25.2379 12.6412 25.0215 12.3368 25.1729 12.0538C25.3243 11.7708 25.4551 11.5648 25.363 11.4443C25.1082 11.11 24.7095 11.3574 24.7095 11.3574Z" fill="url(#paint4_linear_304_2192)"/>
</g>
<mask id="mask5_304_2192" style="mask-type:luminance" maskUnits="userSpaceOnUse" x="20" y="5" width="7" height="6">
<path d="M26.3913 9.03143C25.5566 8.50322 24.288 8.92808 22.6866 7.92084C22.2132 7.62287 20.7844 5.31898 20.7844 5.31898C20.7844 5.31898 21.1632 7.77613 21.9849 8.57594C22.9752 9.54041 23.8722 10.0558 24.6148 10.3195C25.4894 9.7899 25.9697 10.403 25.9697 10.403C25.9697 10.403 26.0809 9.5404 26.3913 9.03143Z" fill="white"/>
</mask>
<g mask="url(#mask5_304_2192)">
<path d="M26.3913 9.03143C25.5566 8.50322 24.288 8.92808 22.6866 7.92084C22.2132 7.62287 20.7844 5.31898 20.7844 5.31898C20.7844 5.31898 21.1632 7.77613 21.9849 8.57594C22.9752 9.54041 23.8722 10.0558 24.6148 10.3195C25.4894 9.7899 25.9697 10.403 25.9697 10.403C25.9697 10.403 26.0809 9.5404 26.3913 9.03143Z" fill="url(#paint5_linear_304_2192)"/>
</g>
<mask id="mask6_304_2192" style="mask-type:luminance" maskUnits="userSpaceOnUse" x="21" y="2" width="10" height="5">
<path d="M26.0179 2.83699C26.1163 2.84625 26.2041 2.85979 26.2981 2.87049C25.8084 2.70226 25.2074 2.50339 24.7703 2.38292C23.9013 2.1434 22.9414 2.72151 22.5541 3.35379C22.553 3.35451 22.5522 3.35522 22.5513 3.35665C23.2375 2.99167 24.3265 2.688 26.0179 2.83699ZM21.7653 3.93832C21.9604 3.61897 22.351 3.04442 22.8319 2.6937C23.5211 2.19187 23.976 2.04787 24.7703 2.19186C25.5649 2.33514 27.79 3.15562 27.79 3.15562H27.7872C29.8208 3.74871 30.1852 4.84862 30.1852 4.84862C30.1852 4.84862 29.2694 3.82712 26.3905 3.31601C24.5531 2.98882 23.15 3.31815 22.5704 3.74586C23.2101 3.887 24.158 3.90126 25.3986 4.26267C26.6282 4.62194 27.5205 5.65912 27.5205 5.65912C27.5205 5.65912 27.1807 5.97063 27.031 6.86096C26.3905 6.20943 26.0427 5.22927 24.9769 4.82937C23.0458 4.10512 21.5151 4.26267 21.5151 4.26267C21.5151 4.26267 21.5882 4.12651 21.7653 3.93832Z" fill="white"/>
</mask>
<g mask="url(#mask6_304_2192)">
<path d="M26.0179 2.83699C26.1163 2.84625 26.2041 2.85979 26.2981 2.87049C25.8084 2.70226 25.2074 2.50339 24.7703 2.38292C23.9013 2.1434 22.9414 2.72151 22.5541 3.35379C22.553 3.35451 22.5522 3.35522 22.5513 3.35665C23.2375 2.99167 24.3265 2.688 26.0179 2.83699ZM21.7653 3.93832C21.9604 3.61897 22.351 3.04442 22.8319 2.6937C23.5211 2.19187 23.976 2.04787 24.7703 2.19186C25.5649 2.33514 27.79 3.15562 27.79 3.15562H27.7872C29.8208 3.74871 30.1852 4.84862 30.1852 4.84862C30.1852 4.84862 29.2694 3.82712 26.3905 3.31601C24.5531 2.98882 23.15 3.31815 22.5704 3.74586C23.2101 3.887 24.158 3.90126 25.3986 4.26267C26.6282 4.62194 27.5205 5.65912 27.5205 5.65912C27.5205 5.65912 27.1807 5.97063 27.031 6.86096C26.3905 6.20943 26.0427 5.22927 24.9769 4.82937C23.0458 4.10512 21.5151 4.26267 21.5151 4.26267C21.5151 4.26267 21.5882 4.12651 21.7653 3.93832Z" fill="url(#paint6_linear_304_2192)"/>
</g>
<mask id="mask7_304_2192" style="mask-type:luminance" maskUnits="userSpaceOnUse" x="17" y="0" width="5" height="4">
<path d="M17.0815 2.13914C17.1446 1.53608 17.5566 0.605111 18.7062 0.732709C18.8171 0.744827 18.9189 0.776196 19.0202 0.80756C19.2352 0.563056 19.8647 -0.00435615 20.7843 0.47681C21.5158 0.860318 21.6761 1.64301 21.771 2.01725C21.8662 2.39078 21.771 3.55627 21.771 3.55627H21.3592C21.3592 3.55627 21.4569 1.56674 20.4841 1.1148C19.8779 0.83394 19.4256 0.824666 19.1699 0.858169C20.0215 1.20889 20.4841 2.13914 20.4841 2.13914C19.9679 1.38496 18.9192 1.05135 18.6085 1.01927C18.2984 0.987907 17.7782 1.27447 17.4932 1.78486C17.208 2.29525 17.5328 2.97459 17.5328 2.97459L17.2885 3.37378C17.2885 3.37378 17.0176 2.74149 17.0815 2.13914Z" fill="white"/>
</mask>
<g mask="url(#mask7_304_2192)">
<path d="M17.0815 2.13914C17.1446 1.53608 17.5566 0.605111 18.7062 0.732709C18.8171 0.744827 18.9189 0.776196 19.0202 0.80756C19.2352 0.563056 19.8647 -0.00435615 20.7843 0.47681C21.5158 0.860318 21.6761 1.64301 21.771 2.01725C21.8662 2.39078 21.771 3.55627 21.771 3.55627H21.3592C21.3592 3.55627 21.4569 1.56674 20.4841 1.1148C19.8779 0.83394 19.4256 0.824666 19.1699 0.858169C20.0215 1.20889 20.4841 2.13914 20.4841 2.13914C19.9679 1.38496 18.9192 1.05135 18.6085 1.01927C18.2984 0.987907 17.7782 1.27447 17.4932 1.78486C17.208 2.29525 17.5328 2.97459 17.5328 2.97459L17.2885 3.37378C17.2885 3.37378 17.0176 2.74149 17.0815 2.13914Z" fill="url(#paint7_linear_304_2192)"/>
</g>
<mask id="mask8_304_2192" style="mask-type:luminance" maskUnits="userSpaceOnUse" x="15" y="2" width="6" height="4">
<path d="M20.1456 4.43097C20.1456 4.43097 19.9657 3.57626 18.7057 3.15569C17.4454 2.73511 16.5421 3.0003 16.0668 3.55703C15.5915 4.11304 15.852 5.5437 15.852 5.5437L16.0349 4.82943C16.0349 4.82943 15.7815 3.89349 16.7004 3.55703C17.6195 3.21985 18.5967 3.57056 18.9318 3.76232C19.2674 3.95336 19.9793 4.60062 19.9793 4.60062L20.1456 4.43097Z" fill="white"/>
</mask>
<g mask="url(#mask8_304_2192)">
<path d="M20.1456 4.43097C20.1456 4.43097 19.9657 3.57626 18.7057 3.15569C17.4454 2.73511 16.5421 3.0003 16.0668 3.55703C15.5915 4.11304 15.852 5.5437 15.852 5.5437L16.0349 4.82943C16.0349 4.82943 15.7815 3.89349 16.7004 3.55703C17.6195 3.21985 18.5967 3.57056 18.9318 3.76232C19.2674 3.95336 19.9793 4.60062 19.9793 4.60062L20.1456 4.43097Z" fill="url(#paint8_linear_304_2192)"/>
</g>
<path d="M31.5797 74.5833C30.3294 77.7604 30.2636 79.6773 30.2636 79.6773L25.9396 81.3717C26.2611 82.0446 25.9123 79.8412 24.9998 72.9908C26.2697 73.6096 30.2193 74.9739 31.5797 74.5833Z" fill="#FABAAC"/>
<mask id="mask9_304_2192" style="mask-type:luminance" maskUnits="userSpaceOnUse" x="8" y="37" width="33" height="39">
<path d="M8.99204 48.2484C8.69767 45.9781 13.3957 38.2651 13.3019 37.6621C13.3019 37.6621 21.8773 38.6451 24.5434 39.3444C27.0263 39.9959 28.5646 40.6809 28.5646 40.6809C28.5956 42.7489 30.9346 44.1888 31.2777 44.6222C34.6391 45.8348 37.8043 50.7327 39.0062 52.529C40.6726 55.0197 41.5564 56.8282 40.1129 59.5869C39.4622 60.8293 31.185 75.5652 31.185 75.5652C31.185 75.5652 29.6755 76.1176 28.4819 75.9686C26.9405 75.7755 25.3637 75.6457 25.3637 75.6457C25.3637 75.6457 23.3024 72.6447 23.8182 66.3332C24.0633 63.3321 25.9027 61.652 25.9027 61.652C25.9027 61.652 23.145 61.2628 20.2338 60.0017C17.8292 58.9603 10.0282 56.2408 8.99204 48.2484Z" fill="white"/>
</mask>
<g mask="url(#mask9_304_2192)">
<path d="M8.99204 48.2484C8.69767 45.9781 13.3957 38.2651 13.3019 37.6621C13.3019 37.6621 21.8773 38.6451 24.5434 39.3444C27.0263 39.9959 28.5646 40.6809 28.5646 40.6809C28.5956 42.7489 30.9346 44.1888 31.2777 44.6222C34.6391 45.8348 37.8043 50.7327 39.0062 52.529C40.6726 55.0197 41.5564 56.8282 40.1129 59.5869C39.4622 60.8293 31.185 75.5652 31.185 75.5652C31.185 75.5652 29.6755 76.1176 28.4819 75.9686C26.9405 75.7755 25.3637 75.6457 25.3637 75.6457C25.3637 75.6457 23.3024 72.6447 23.8182 66.3332C24.0633 63.3321 25.9027 61.652 25.9027 61.652C25.9027 61.652 23.145 61.2628 20.2338 60.0017C17.8292 58.9603 10.0282 56.2408 8.99204 48.2484Z" fill="url(#paint9_linear_304_2192)"/>
</g>
<mask id="mask10_304_2192" style="mask-type:luminance" maskUnits="userSpaceOnUse" x="8" y="17" width="29" height="32">
<path d="M10.5347 36.0652C12.1784 32.2123 13.3427 28.1106 17.0715 24.684C17.0715 24.684 21.7936 27.0863 23.7085 25.8474C24.0117 25.652 24.2973 25.3348 24.5413 24.9413C25.3105 23.7039 25.6646 21.6951 24.8208 20.1846C23.7084 18.195 18.529 18.54 18.529 18.54C18.529 18.54 21.5562 15.7878 25.3633 17.9812C28.9397 20.042 29.0221 22.6745 31.3839 24.6968C33.7885 26.7555 34.5156 27.5019 33.5851 30.1016C32.8098 32.2686 35.1907 36.4958 35.884 39.7627C36.9155 44.6221 35.9305 48.3125 35.9305 48.3125C35.9305 48.3125 27.79 43.5593 23.0464 43.2492C17.251 42.8714 8.99162 48.2483 8.99162 48.2483C8.99162 48.2483 8.18735 41.5662 10.5347 36.0652Z" fill="white"/>
</mask>
<g mask="url(#mask10_304_2192)">
<path d="M10.5347 36.0652C12.1784 32.2123 13.3427 28.1106 17.0715 24.684C17.0715 24.684 21.7936 27.0863 23.7085 25.8474C24.0117 25.652 24.2973 25.3348 24.5413 24.9413C25.3105 23.7039 25.6646 21.6951 24.8208 20.1846C23.7084 18.195 18.529 18.54 18.529 18.54C18.529 18.54 21.5562 15.7878 25.3633 17.9812C28.9397 20.042 29.0221 22.6745 31.3839 24.6968C33.7885 26.7555 34.5156 27.5019 33.5851 30.1016C32.8098 32.2686 35.1907 36.4958 35.884 39.7627C36.9155 44.6221 35.9305 48.3125 35.9305 48.3125C35.9305 48.3125 27.79 43.5593 23.0464 43.2492C17.251 42.8714 8.99162 48.2483 8.99162 48.2483C8.99162 48.2483 8.18735 41.5662 10.5347 36.0652Z" fill="url(#paint10_linear_304_2192)"/>
</g>
<path d="M33.9183 28.8955C33.9183 28.8955 32.7266 29.8315 31.5388 30.6348C30.3516 31.4382 28.3053 31.754 29.1306 32.5281C29.9565 33.3023 33.4939 34.3252 33.4939 34.3252C33.4939 34.3252 33.0774 32.0484 33.1989 31.4867C33.3206 30.9257 33.972 29.6846 33.9183 28.8955Z" fill="#E02997"/>
<mask id="mask11_304_2192" style="mask-type:luminance" maskUnits="userSpaceOnUse" x="11" y="17" width="23" height="20">
<path d="M24.7614 24.5466C24.7614 24.5466 24.3013 25.6344 23.3934 26.0236C22.077 26.5889 20.7088 26.5967 20.2338 26.7314C19.8478 27.8271 19.4428 28.5535 19.4428 28.5535C19.4428 28.5535 21.4744 29.0175 23.5882 29.6035C25.9112 30.2479 28.8634 30.893 29.743 30.451C30.7266 29.9556 32.3573 30.2992 33.0996 30.8367C34.1784 31.6172 34.0888 32.0285 33.7437 32.7343C33.9767 33.3794 33.7427 34.0281 33.3473 34.0281C33.6417 34.7438 33.0396 34.758 32.8794 35.1479C32.5811 35.8736 31.3676 35.6156 30.4349 35.9306C28.7765 36.4902 28.0669 34.7573 26.6027 35.1437C22.8849 36.1259 16.2427 36.024 14.2589 34.8621C12.862 34.0437 12.4303 33.9233 11.8529 32.8333C11.4434 32.0613 11.8426 29.8066 12.3708 28.294C12.9278 26.6994 13.4496 24.851 15.7724 21.1278C17.5475 18.2814 19.8558 17.9314 21.4191 17.9863C23.9817 18.0768 26.4416 21.4778 24.7614 24.5466Z" fill="white"/>
</mask>
<g mask="url(#mask11_304_2192)">
<path d="M24.7614 24.5466C24.7614 24.5466 24.3013 25.6344 23.3934 26.0236C22.077 26.5889 20.7088 26.5967 20.2338 26.7314C19.8478 27.8271 19.4428 28.5535 19.4428 28.5535C19.4428 28.5535 21.4744 29.0175 23.5882 29.6035C25.9112 30.2479 28.8634 30.893 29.743 30.451C30.7266 29.9556 32.3573 30.2992 33.0996 30.8367C34.1784 31.6172 34.0888 32.0285 33.7437 32.7343C33.9767 33.3794 33.7427 34.0281 33.3473 34.0281C33.6417 34.7438 33.0396 34.758 32.8794 35.1479C32.5811 35.8736 31.3676 35.6156 30.4349 35.9306C28.7765 36.4902 28.0669 34.7573 26.6027 35.1437C22.8849 36.1259 16.2427 36.024 14.2589 34.8621C12.862 34.0437 12.4303 33.9233 11.8529 32.8333C11.4434 32.0613 11.8426 29.8066 12.3708 28.294C12.9278 26.6994 13.4496 24.851 15.7724 21.1278C17.5475 18.2814 19.8558 17.9314 21.4191 17.9863C23.9817 18.0768 26.4416 21.4778 24.7614 24.5466Z" fill="url(#paint11_linear_304_2192)"/>
</g>
<mask id="mask12_304_2192" style="mask-type:luminance" maskUnits="userSpaceOnUse" x="20" y="24" width="5" height="3">
<path d="M22.3769 25.1803C21.2427 26.3215 20.2334 26.7314 20.2334 26.7314C20.2334 26.7314 22.1204 27.0365 23.2926 26.246C24.2342 25.6115 24.543 24.9415 24.543 24.9415C24.543 24.9415 23.2954 24.2557 22.3769 25.1803Z" fill="white"/>
</mask>
<g mask="url(#mask12_304_2192)">
<path d="M22.3769 25.1803C21.2427 26.3215 20.2334 26.7314 20.2334 26.7314C20.2334 26.7314 22.1204 27.0365 23.2926 26.246C24.2342 25.6115 24.543 24.9415 24.543 24.9415C24.543 24.9415 23.2954 24.2557 22.3769 25.1803Z" fill="url(#paint12_linear_304_2192)"/>
</g>
<mask id="mask13_304_2192" style="mask-type:luminance" maskUnits="userSpaceOnUse" x="13" y="31" width="2" height="2">
<path d="M13.7027 31.2449C13.7027 31.2449 14.0735 32.6 14.2588 32.8331C13.9669 32.8182 13.2376 32.6399 13.2838 32.0383C13.3303 31.4381 13.7027 31.2449 13.7027 31.2449Z" fill="white"/>
</mask>
<g mask="url(#mask13_304_2192)">
<path d="M13.7027 31.2449C13.7027 31.2449 14.0735 32.6 14.2588 32.8331C13.9669 32.8182 13.2376 32.6399 13.2838 32.0383C13.3303 31.4381 13.7027 31.2449 13.7027 31.2449Z" fill="url(#paint13_linear_304_2192)"/>
</g>
<mask id="mask14_304_2192" style="mask-type:luminance" maskUnits="userSpaceOnUse" x="24" y="77" width="14" height="10">
<path d="M25.8421 79.8343C26.2573 79.8864 26.5334 80.6912 27.0008 80.9C27.4678 81.1089 28.4027 79.9598 28.9737 79.6468C29.0291 79.6162 29.1013 79.5934 29.1738 79.572L29.1437 79.5071C29.1437 79.5071 29.2471 78.9333 29.7665 78.2996C30.2855 77.6659 31.2198 77.3066 31.2198 77.3066C31.8548 76.9637 31.5568 78.6881 31.354 79.6276C31.9873 80.0318 34.0996 81.3505 34.9381 81.5273C35.9303 81.7362 37.057 81.3548 37.057 81.3548C37.057 81.3548 37.4991 81.9358 37.7835 82.4519C38.1988 83.2053 37.6438 83.5653 36.9687 83.9831C36.2939 84.4008 34.8922 85.4458 33.075 85.7067C31.258 85.969 30.2553 85.1849 29.8743 85.3417C29.4928 85.4986 29.1923 86.1779 29.1923 86.1779C29.1923 86.1779 27.9735 86.247 26.6375 86.1779C25.7272 86.1301 24.924 84.8099 24.976 84.5533C25.0277 84.2967 25.4267 79.7823 25.8421 79.8343Z" fill="white"/>
</mask>
<g mask="url(#mask14_304_2192)">
<path d="M25.8421 79.8343C26.2573 79.8864 26.5334 80.6912 27.0008 80.9C27.4678 81.1089 28.4027 79.9598 28.9737 79.6468C29.0291 79.6162 29.1013 79.5934 29.1738 79.572L29.1437 79.5071C29.1437 79.5071 29.2471 78.9333 29.7665 78.2996C30.2855 77.6659 31.2198 77.3066 31.2198 77.3066C31.8548 76.9637 31.5568 78.6881 31.354 79.6276C31.9873 80.0318 34.0996 81.3505 34.9381 81.5273C35.9303 81.7362 37.057 81.3548 37.057 81.3548C37.057 81.3548 37.4991 81.9358 37.7835 82.4519C38.1988 83.2053 37.6438 83.5653 36.9687 83.9831C36.2939 84.4008 34.8922 85.4458 33.075 85.7067C31.258 85.969 30.2553 85.1849 29.8743 85.3417C29.4928 85.4986 29.1923 86.1779 29.1923 86.1779C29.1923 86.1779 27.9735 86.247 26.6375 86.1779C25.7272 86.1301 24.924 84.8099 24.976 84.5533C25.0277 84.2967 25.4267 79.7823 25.8421 79.8343Z" fill="url(#paint14_linear_304_2192)"/>
</g>
<path d="M37.7837 82.4519C37.7837 82.4519 35.544 84.2988 33.1819 84.4557C30.8197 84.6118 29.459 83.8433 28.5343 84.4706C27.6099 85.0979 25.376 84.2161 25.376 84.2161C25.376 84.2161 27.1064 84.7408 28.311 84.1328C29.6867 83.437 31.5817 84.142 33.2686 84.0265C34.419 83.9481 37.6298 82.1917 37.6298 82.1917L37.7837 82.4519Z" fill="#E02997"/>
<path d="M34.3088 81.3036C34.3088 81.3036 33.8133 81.6364 33.0085 82.1917C32.2036 82.7463 31.7825 82.8575 31.7825 82.8575C31.7825 82.8575 32.3334 82.1917 33.0085 81.6493C33.2093 81.4882 33.88 81.0983 33.88 81.0983L34.3088 81.3036Z" fill="white"/>
<path d="M33.0461 80.6433C33.0461 80.6433 32.0988 81.2806 31.7831 81.4923C31.4419 81.7211 30.6943 82.4069 30.6943 82.4069C30.6943 82.4069 31.263 81.3996 31.5797 81.0981C31.8003 80.8885 32.6939 80.4352 32.6939 80.4352L33.0461 80.6433Z" fill="white"/>
<path d="M32.0075 80.0425C32.0075 80.0425 31.0601 80.6797 30.7441 80.8922C30.4036 81.1203 29.6602 81.806 29.6602 81.806C29.6602 81.806 30.224 80.7988 30.5408 80.4973C30.7613 80.2877 31.655 79.8343 31.655 79.8343L32.0075 80.0425Z" fill="white"/>
<mask id="mask15_304_2192" style="mask-type:luminance" maskUnits="userSpaceOnUse" x="0" y="69" width="11" height="13">
<path d="M0.381527 72.5677C0.606766 72.4358 4.31315 69.4761 4.55001 69.8233C4.78658 70.1711 4.28581 71.177 4.44044 71.6674C4.59513 72.1578 6.06981 72.0987 6.68185 72.3203C6.74106 72.3417 6.8058 72.3817 6.86997 72.4223L6.89788 72.356C6.89788 72.356 7.39369 72.053 8.20908 72.0238C9.02476 71.9939 9.91176 72.4594 9.91176 72.4594C10.588 72.7103 9.10827 73.6298 8.27552 74.1003C8.39558 74.8452 8.81666 77.3102 9.24221 78.0594C9.74496 78.9448 10.7764 79.54 10.7764 79.54C10.7764 79.54 10.6378 80.2592 10.443 80.8153C10.1586 81.6279 9.52277 81.4483 8.76411 81.218C8.00545 80.9871 6.29866 80.6256 4.89863 79.4309C3.49833 78.2362 3.4156 76.9609 3.04629 76.7785C2.67663 76.5953 1.97244 76.8198 1.97244 76.8198C1.97244 76.8198 1.11171 75.9487 0.276699 74.8958C-0.292136 74.1794 0.156358 72.6989 0.381527 72.5677Z" fill="white"/>
</mask>
<g mask="url(#mask15_304_2192)">
<path d="M0.381527 72.5677C0.606766 72.4358 4.31315 69.4761 4.55001 69.8233C4.78658 70.1711 4.28581 71.177 4.44044 71.6674C4.59513 72.1578 6.06981 72.0987 6.68185 72.3203C6.74106 72.3417 6.8058 72.3817 6.86997 72.4223L6.89788 72.356C6.89788 72.356 7.39369 72.053 8.20908 72.0238C9.02476 71.9939 9.91176 72.4594 9.91176 72.4594C10.588 72.7103 9.10827 73.6298 8.27552 74.1003C8.39558 74.8452 8.81666 77.3102 9.24221 78.0594C9.74496 78.9448 10.7764 79.54 10.7764 79.54C10.7764 79.54 10.6378 80.2592 10.443 80.8153C10.1586 81.6279 9.52277 81.4483 8.76411 81.218C8.00545 80.9871 6.29866 80.6256 4.89863 79.4309C3.49833 78.2362 3.4156 76.9609 3.04629 76.7785C2.67663 76.5953 1.97244 76.8198 1.97244 76.8198C1.97244 76.8198 1.11171 75.9487 0.276699 74.8958C-0.292136 74.1794 0.156358 72.6989 0.381527 72.5677Z" fill="url(#paint15_linear_304_2192)"/>
</g>
<path d="M10.4433 80.8153C10.4433 80.8153 7.58468 80.3555 5.90027 78.6803C4.2158 77.0059 3.88438 75.4719 2.80472 75.1917C1.72513 74.9116 0.898193 72.6447 0.898193 72.6447C0.898193 72.6447 1.656 74.2964 2.90799 74.7989C4.33755 75.3728 5.07128 77.2675 6.2768 78.4608C7.09857 79.2749 10.5349 80.5266 10.5349 80.5266L10.4433 80.8153Z" fill="#E02997"/>
<path d="M8.99202 77.4377C8.99202 77.4377 8.41539 77.2852 7.46889 77.0478C6.52239 76.8104 6.15967 76.5674 6.15967 76.5674C6.15967 76.5674 7.02096 76.5396 7.87177 76.6878C8.1252 76.732 8.85949 76.9787 8.85949 76.9787L8.99202 77.4377Z" fill="white"/>
<path d="M8.64331 76.0493C8.64331 76.0493 7.54126 75.7585 7.17415 75.6608C6.77765 75.556 5.77222 75.4484 5.77222 75.4484C5.77222 75.4484 6.89799 75.2075 7.3321 75.2467C7.63455 75.2737 8.56447 75.6451 8.56447 75.6451L8.64331 76.0493Z" fill="white"/>
<path d="M8.40055 74.8679C8.40055 74.8679 7.29858 74.5778 6.9314 74.4801C6.53489 74.3754 5.53223 74.2713 5.53223 74.2713C5.53223 74.2713 6.65531 74.0268 7.08935 74.066C7.39151 74.0931 8.32172 74.4645 8.32172 74.4645L8.40055 74.8679Z" fill="white"/>
<path d="M22.607 41.8066C22.607 41.8066 18.382 41.8066 14.8406 43.1139C11.2991 44.4206 10.5352 45.2524 10.5352 45.2524C10.5352 45.2524 11.1308 43.5887 14.7816 42.163C18.4327 40.7373 22.607 41.8066 22.607 41.8066Z" fill="#E02997"/>
<defs>
<linearGradient id="paint0_linear_304_2192" x1="38.7377" y1="33.0364" x2="25.6431" y2="33.0364" gradientUnits="userSpaceOnUse">
<stop stop-color="#F09080"/>
<stop offset="0.994845" stop-color="#DD6B60"/>
<stop offset="1" stop-color="#DD6B60"/>
</linearGradient>
<linearGradient id="paint1_linear_304_2192" x1="32.3619" y1="14.579" x2="19.4424" y2="14.579" gradientUnits="userSpaceOnUse">
<stop stop-color="#FABAAC"/>
<stop offset="1" stop-color="#F09080"/>
</linearGradient>
<linearGradient id="paint2_linear_304_2192" x1="21.6298" y1="4.46504" x2="15.4293" y2="4.46504" gradientUnits="userSpaceOnUse">
<stop stop-color="#772619"/>
<stop offset="1" stop-color="#621E15"/>
</linearGradient>
<linearGradient id="paint3_linear_304_2192" x1="30.1083" y1="8.89412" x2="28.7299" y2="8.89412" gradientUnits="userSpaceOnUse">
<stop stop-color="#F09080"/>
<stop offset="0.994845" stop-color="#DD6B60"/>
<stop offset="1" stop-color="#DD6B60"/>
</linearGradient>
<linearGradient id="paint4_linear_304_2192" x1="26.0163" y1="11.7673" x2="24.7095" y2="11.7673" gradientUnits="userSpaceOnUse">
<stop stop-color="#F09080"/>
<stop offset="0.994845" stop-color="#DD6B60"/>
<stop offset="1" stop-color="#DD6B60"/>
</linearGradient>
<linearGradient id="paint5_linear_304_2192" x1="26.3914" y1="7.86097" x2="20.7844" y2="7.86097" gradientUnits="userSpaceOnUse">
<stop stop-color="#B14025"/>
<stop offset="1" stop-color="#A1361F"/>
</linearGradient>
<linearGradient id="paint6_linear_304_2192" x1="30.1854" y1="4.50004" x2="21.515" y2="4.50004" gradientUnits="userSpaceOnUse">
<stop stop-color="#B14025"/>
<stop offset="1" stop-color="#A1361F"/>
</linearGradient>
<linearGradient id="paint7_linear_304_2192" x1="21.8133" y1="1.92316" x2="17.0716" y2="1.92316" gradientUnits="userSpaceOnUse">
<stop stop-color="#B14025"/>
<stop offset="1" stop-color="#A1361F"/>
</linearGradient>
<linearGradient id="paint8_linear_304_2192" x1="20.1453" y1="4.24633" x2="15.7808" y2="4.24633" gradientUnits="userSpaceOnUse">
<stop stop-color="#B14025"/>
<stop offset="1" stop-color="#A1361F"/>
</linearGradient>
<linearGradient id="paint9_linear_304_2192" x1="40.8396" y1="56.8282" x2="8.97865" y2="56.8282" gradientUnits="userSpaceOnUse">
<stop stop-color="#8F2A7F"/>
<stop offset="1" stop-color="#7A2364"/>
</linearGradient>
<linearGradient id="paint10_linear_304_2192" x1="22.6066" y1="17.1329" x2="22.6066" y2="48.3127" gradientUnits="userSpaceOnUse">
<stop stop-color="#F359AB"/>
<stop offset="1" stop-color="#E02997"/>
</linearGradient>
<linearGradient id="paint11_linear_304_2192" x1="33.9768" y1="27.0123" x2="11.684" y2="27.0123" gradientUnits="userSpaceOnUse">
<stop stop-color="#FABAAC"/>
<stop offset="1" stop-color="#F09080"/>
</linearGradient>
<linearGradient id="paint12_linear_304_2192" x1="24.5431" y1="25.7434" x2="20.2333" y2="25.7434" gradientUnits="userSpaceOnUse">
<stop stop-color="#F09080"/>
<stop offset="0.994845" stop-color="#DD6B60"/>
<stop offset="1" stop-color="#DD6B60"/>
</linearGradient>
<linearGradient id="paint13_linear_304_2192" x1="14.2589" y1="32.039" x2="13.2816" y2="32.039" gradientUnits="userSpaceOnUse">
<stop stop-color="#F09080"/>
<stop offset="0.994845" stop-color="#DD6B60"/>
<stop offset="1" stop-color="#DD6B60"/>
</linearGradient>
<linearGradient id="paint14_linear_304_2192" x1="37.9267" y1="81.7355" x2="24.9736" y2="81.7355" gradientUnits="userSpaceOnUse">
<stop stop-color="#F359AB"/>
<stop offset="1" stop-color="#E02997"/>
</linearGradient>
<linearGradient id="paint15_linear_304_2192" x1="10.7763" y1="75.6037" x2="3.72543e-05" y2="75.6037" gradientUnits="userSpaceOnUse">
<stop stop-color="#F359AB"/>
<stop offset="1" stop-color="#E02997"/>
</linearGradient>
</defs>
</svg>
