<svg width="200" height="209" viewBox="0 0 200 209" fill="none" xmlns="http://www.w3.org/2000/svg">
<path d="M100 199.75C155.09 199.75 199.75 155.09 199.75 100C199.75 44.9096 155.09 0.25 100 0.25C44.9096 0.25 0.25 44.9096 0.25 100C0.25 155.09 44.9096 199.75 100 199.75Z" fill="#DCEDFE"/>
<path d="M194.088 155.094H7V208.789H194.088V155.094Z" fill="#C1EAC4"/>
<path d="M194.088 197.28H7V208.789H194.088V197.28Z" fill="#A1D3A3"/>
<path d="M194.072 151.216H7V155.093H194.072V151.216Z" fill="#58A565"/>
<path d="M194.072 135H7V151.216H194.072V135Z" fill="#79BF82"/>
<path d="M194.072 135H7V142H194.072V135Z" fill="#467F4E"/>
<path d="M170.346 62.5468H28.6599V71.8944H170.346V62.5468Z" fill="#1377AC"/>
<path opacity="0.7" d="M170.346 62.5468H28.6599V71.8944H170.346V62.5468Z" fill="white"/>
<path opacity="0.5" d="M170.346 62.5468H28.6599V65.1987L170.346 64.2179V62.5468Z" fill="#1377AC"/>
<path d="M171.877 60.5742H27.1257V62.5495H171.877V60.5742Z" fill="#1377AC"/>
<path d="M53.7248 57.6703H40.7883V60.5716H53.7248V57.6703Z" fill="#C7C7C7"/>
<path d="M44.5745 55.958H42.7444V57.6703H44.5745V55.958Z" fill="#C7C7C7"/>
<path d="M51.766 55.958H49.9359V57.6703H51.766V55.958Z" fill="#C7C7C7"/>
<path d="M164.436 57.6703H151.5V60.5716H164.436V57.6703Z" fill="#C7C7C7"/>
<path d="M155.286 55.958H153.456V57.6703H155.286V55.958Z" fill="#C7C7C7"/>
<path d="M162.48 55.958H160.65V57.6703H162.48V55.958Z" fill="#C7C7C7"/>
<path d="M148.398 57.6703H135.462V60.5716H148.398V57.6703Z" fill="#C7C7C7"/>
<path d="M139.248 55.958H137.418V57.6703H139.248V55.958Z" fill="#C7C7C7"/>
<path d="M146.44 55.958H144.609V57.6703H146.44V55.958Z" fill="#C7C7C7"/>
<path d="M179.469 73.8696H19.5342V134.7H179.469V73.8696Z" fill="#1377AC"/>
<path opacity="0.7" d="M179.469 73.8696H19.5342V134.7H179.469V73.8696Z" fill="white"/>
<path opacity="0.5" d="M179.469 126.038H19.5342V134.701H179.469V126.038Z" fill="#1377AC"/>
<path d="M181 71.8972H18V73.8725H181V71.8972Z" fill="#1377AC"/>
<path opacity="0.5" d="M179.469 73.8696H19.5342V76.5216L179.469 75.5408V73.8696Z" fill="#1377AC"/>
<path d="M29.4599 79.5956H22.4409V89.8719H29.4599V79.5956Z" fill="#37474F"/>
<path d="M37.0021 79.5956H29.9832V89.8719H37.0021V79.5956Z" fill="#37474F"/>
<path d="M44.5443 79.5956H37.5254V89.8719H44.5443V79.5956Z" fill="#37474F"/>
<path d="M54.1139 79.5956H47.0949V89.8719H54.1139V79.5956Z" fill="#37474F"/>
<path d="M61.6561 79.5956H54.6371V89.8719H61.6561V79.5956Z" fill="#37474F"/>
<path d="M69.1983 79.5956H62.1793V89.8719H69.1983V79.5956Z" fill="#37474F"/>
<path d="M29.4599 93.4744H22.4409V103.751H29.4599V93.4744Z" fill="#37474F"/>
<path d="M37.0021 93.4744H29.9832V103.751H37.0021V93.4744Z" fill="#37474F"/>
<path d="M44.5443 93.4744H37.5254V103.751H44.5443V93.4744Z" fill="#37474F"/>
<path d="M54.1139 93.4744H47.0949V103.751H54.1139V93.4744Z" fill="#37474F"/>
<path d="M61.6561 93.4744H54.6371V103.751H61.6561V93.4744Z" fill="#37474F"/>
<path d="M69.1983 93.4744H62.1793V103.751H69.1983V93.4744Z" fill="#37474F"/>
<path d="M29.4599 107.351H22.4409V117.627H29.4599V107.351Z" fill="#37474F"/>
<path d="M37.0021 107.351H29.9832V117.627H37.0021V107.351Z" fill="#37474F"/>
<path d="M44.5443 107.351H37.5254V117.627H44.5443V107.351Z" fill="#37474F"/>
<path d="M54.1139 107.351H47.0949V117.627H54.1139V107.351Z" fill="#37474F"/>
<path d="M61.6561 107.351H54.6371V117.627H61.6561V107.351Z" fill="#37474F"/>
<path d="M69.1983 107.351H62.1793V117.627H69.1983V107.351Z" fill="#37474F"/>
<path d="M136.823 79.5956H129.804V89.8719H136.823V79.5956Z" fill="#37474F"/>
<path d="M144.366 79.5956H137.347V89.8719H144.366V79.5956Z" fill="#37474F"/>
<path d="M151.908 79.5956H144.889V89.8719H151.908V79.5956Z" fill="#37474F"/>
<path d="M161.477 79.5956H154.458V89.8719H161.477V79.5956Z" fill="#37474F"/>
<path d="M169.02 79.5956H162.001V89.8719H169.02V79.5956Z" fill="#37474F"/>
<path d="M176.562 79.5956H169.543V89.8719H176.562V79.5956Z" fill="#37474F"/>
<path d="M136.823 93.4744H129.804V103.751H136.823V93.4744Z" fill="#37474F"/>
<path d="M144.366 93.4744H137.347V103.751H144.366V93.4744Z" fill="#37474F"/>
<path d="M151.908 93.4744H144.889V103.751H151.908V93.4744Z" fill="#37474F"/>
<path d="M161.477 93.4744H154.458V103.751H161.477V93.4744Z" fill="#37474F"/>
<path d="M169.02 93.4744H162.001V103.751H169.02V93.4744Z" fill="#37474F"/>
<path d="M176.562 93.4744H169.543V103.751H176.562V93.4744Z" fill="#37474F"/>
<path d="M136.823 107.351H129.804V117.627H136.823V107.351Z" fill="#37474F"/>
<path d="M144.366 107.351H137.347V117.627H144.366V107.351Z" fill="#37474F"/>
<path d="M151.908 107.351H144.889V117.627H151.908V107.351Z" fill="#37474F"/>
<path d="M161.477 107.351H154.458V117.627H161.477V107.351Z" fill="#37474F"/>
<path d="M169.02 107.351H162.001V117.627H169.02V107.351Z" fill="#37474F"/>
<path d="M176.562 107.351H169.543V117.627H176.562V107.351Z" fill="#37474F"/>
<path d="M179.469 91.0635H19.5342V92.2497H179.469V91.0635Z" fill="white"/>
<path d="M179.469 104.94H19.5342V106.126H179.469V104.94Z" fill="white"/>
<path d="M179.469 118.819H19.5342V120.005H179.469V118.819Z" fill="white"/>
<path opacity="0.5" d="M179.469 92.2499H19.5342V93.1046L179.469 92.6773V92.2499Z" fill="#1377AC"/>
<path opacity="0.5" d="M179.469 106.126H19.5342V106.981L179.469 106.554V106.126Z" fill="#1377AC"/>
<path opacity="0.5" d="M179.469 120.005H19.5342V120.857L179.469 120.433V120.005Z" fill="#1377AC"/>
<path opacity="0.2" d="M22.4409 88.2227L29.4599 81.2037V84.316L23.9039 89.8719H22.4409V88.2227ZM31.0681 79.5956L29.9722 80.6914V83.8037L34.1721 79.6065L31.0681 79.5956ZM49.8647 117.627H52.9796L61.6561 108.951V107.351H60.1411L49.8647 117.627ZM62.193 108.427L63.2697 107.351H62.193V108.427ZM63.7574 103.748H66.8723L69.212 101.409V98.2936L63.7574 103.748ZM132.202 79.5956L129.818 81.9791V85.0913L135.317 79.5956H132.202ZM136.837 117.627V116.863L136.073 117.627H136.837ZM137.36 117.627H139.188L144.393 112.436V109.321L137.374 116.34L137.36 117.627ZM146.349 107.351L144.903 108.797V111.912L149.464 107.351H146.349ZM151.922 103.748V101.778L149.952 103.748H151.922ZM154.458 99.2415V102.356L161.477 95.3375V93.4883H160.212L154.458 99.2415ZM162.001 94.8142L163.335 93.4883H162.009L162.001 94.8142ZM166.932 89.8829L169.022 87.7926V84.6666L163.817 89.8719L166.932 89.8829ZM174.093 79.6065L169.546 84.1543V87.2693L176.565 80.2503V79.6065H174.093ZM173.137 117.638H176.252L176.565 117.326V114.2L173.137 117.638ZM22.4574 94.1047V95.6635L24.6491 93.4855H23.0656L22.4574 94.1047ZM28.238 89.8829L29.4763 88.6446V87.0857L26.6627 89.8719L28.238 89.8829ZM36.9555 79.6065L29.9996 86.5625V88.1213L37.0185 81.1024V79.6065H36.9555ZM37.5418 79.6065V80.5791L38.5144 79.6065H37.5418ZM129.821 97.5429V99.1018L135.437 93.4855H133.878L129.821 97.5429ZM139.04 89.8719L144.382 84.5297V82.9708L137.464 89.8719H139.04ZM147.757 79.5956L144.889 82.4475V84.0064L149.302 79.5956H147.757ZM164.132 117.627L169.036 112.723V111.164L162.573 117.627H164.132ZM172.85 107.351L169.562 110.638V112.197L174.411 107.348L172.85 107.351ZM176.452 103.748H176.578V103.625L176.452 103.748ZM144.366 117.627V116.161L142.9 117.627H144.366ZM144.889 117.197L151.908 110.178V108.619L144.889 115.638V117.197ZM154.458 107.628L154.732 107.354H154.458V107.628ZM158.338 103.748L161.477 100.611V99.0497L156.779 103.748H158.338ZM167.053 93.4883L162.001 98.5401V100.099L168.611 93.4883H167.053ZM170.655 89.8856H172.214L176.562 85.5378V83.979L170.655 89.8856ZM22.4409 98.4196V98.7758L27.723 93.4883H27.3668L22.4409 98.4196ZM41.254 79.6065L30.9776 89.8719H31.3338L37.0021 84.2036L37.5254 83.6804L41.6102 79.5956L41.254 79.6065ZM56.0042 117.638L61.6561 111.986V111.63L55.648 117.638H56.0042ZM65.9244 107.362L62.1793 111.107V111.463L66.2888 107.354L65.9244 107.362ZM38.013 117.627L44.5443 111.096V110.748L37.6569 117.635L38.013 117.627ZM47.9332 107.351L47.0949 108.189V108.556L48.2894 107.362L47.9332 107.351ZM51.892 103.748L54.1139 101.526V101.159L51.5359 103.737L51.892 103.748ZM54.6316 100.647V101.003L61.6506 93.9841V93.628L54.6316 100.647ZM65.4066 89.8719H65.7628L69.1928 86.4419V86.0913L65.4066 89.8719ZM24.86 117.627L29.4599 113.027V111.468L23.3012 117.627H24.86ZM33.5776 107.351L29.9832 110.945V112.504L35.1364 107.351H33.5776ZM37.5254 103.748H38.739L44.5443 97.9429V96.3841L37.5254 103.403V103.748ZM47.4483 93.4883L47.0894 93.8472V95.406L49.0072 93.4883H47.4483ZM52.6098 89.8856L54.1084 88.3871V86.8282L51.0564 89.8719L52.6098 89.8856ZM61.3273 79.6093L54.6316 86.3049V87.8638L61.6506 80.8476V79.6093H61.3273ZM62.1739 79.6093V80.3243L62.8889 79.6093H62.1739ZM58.2151 117.627L61.6561 114.186V112.627L56.6562 117.627H58.2151ZM66.9326 107.351L62.1793 112.118V113.677L68.4805 107.375L66.9326 107.351ZM66.9682 117.627H67.3244L69.1983 115.753V115.405L66.9682 117.627ZM133.837 117.627L136.823 114.641V114.285L133.473 117.627H133.837ZM143.757 107.351L137.347 113.762V114.118L144.114 107.351H143.757ZM147.719 103.748L151.911 99.5566V99.2004L147.363 103.748H147.719ZM157.636 93.4746L154.458 96.6498V97.006L157.99 93.4883L157.636 93.4746ZM161.472 89.8719V89.6309L161.231 89.8719H161.472ZM161.995 89.4637L169.014 82.4475V82.0914L162.001 89.1048L161.995 89.4637ZM171.51 79.6011L169.537 81.5736V81.9297L171.866 79.6011H171.51ZM162.001 112.156L161.477 112.679L156.53 117.627H156.886L161.477 113.036L162.001 112.512L167.17 107.351H166.814L162.001 112.156ZM170.409 103.748H170.765L176.562 97.9511V97.5977L170.409 103.748ZM171.315 117.627H171.672L176.562 112.737V112.392L171.315 117.627Z" fill="white"/>
<path opacity="0.5" d="M70.9708 134.709H71.9297V62.5468H69.9215L70.9708 134.709Z" fill="#1377AC"/>
<path opacity="0.5" d="M128.032 134.709H127.073V62.5468H129.081L128.032 134.709Z" fill="#1377AC"/>
<path d="M118.728 33.1943H80.2719V40.8763H118.728V33.1943Z" fill="#1377AC"/>
<path opacity="0.6" d="M118.728 33.1943H80.2719V40.8763H118.728V33.1943Z" fill="white"/>
<path opacity="0.5" d="M118.731 33.1943H80.2719V35.8463L118.731 34.8655V33.1943Z" fill="#1377AC"/>
<path d="M120.262 31.2217H78.7404V33.197H120.262V31.2217Z" fill="#1377AC"/>
<path d="M127.073 47.6843H71.9297V134.701H127.073V47.6843Z" fill="#1377AC"/>
<path opacity="0.7" d="M127.073 47.6843H71.9297V134.701H127.073V47.6843Z" fill="white"/>
<path d="M77.0282 42.5283H71.9297V134.701H77.0282V42.5283Z" fill="#1377AC"/>
<path opacity="0.8" d="M77.0282 42.5283H71.9297V134.701H77.0282V42.5283Z" fill="white"/>
<path d="M127.073 42.5283H121.975V134.701H127.073V42.5283Z" fill="#1377AC"/>
<path opacity="0.8" d="M127.073 42.5283H121.975V134.701H127.073V42.5283Z" fill="white"/>
<path d="M121.972 39.3394H77.0282V47.6815H121.972V39.3394Z" fill="#1377AC"/>
<path d="M82.102 45.8185V41.3529C82.1012 41.298 82.1115 41.2435 82.1321 41.1927C82.1528 41.1418 82.1835 41.0956 82.2223 41.0568C82.2611 41.018 82.3073 40.9873 82.3581 40.9667C82.409 40.946 82.4635 40.9357 82.5184 40.9365C82.5738 40.9354 82.6288 40.9454 82.6803 40.9658C82.7317 40.9862 82.7786 41.0167 82.8182 41.0555C82.8577 41.0943 82.8891 41.1406 82.9106 41.1916C82.932 41.2427 82.943 41.2975 82.943 41.3529V43.1693H84.9019V41.3529C84.9011 41.298 84.9114 41.2435 84.9321 41.1927C84.9527 41.1418 84.9834 41.0956 85.0222 41.0568C85.061 41.018 85.1072 40.9873 85.1581 40.9667C85.2089 40.946 85.2634 40.9357 85.3183 40.9365C85.3737 40.9354 85.4287 40.9454 85.4802 40.9658C85.5316 40.9862 85.5785 41.0167 85.6181 41.0555C85.6576 41.0943 85.689 41.1406 85.7105 41.1916C85.7319 41.2427 85.7429 41.2975 85.7429 41.3529V45.8185C85.7426 45.8738 85.7313 45.9285 85.7097 45.9793C85.6882 46.0302 85.6567 46.0764 85.6173 46.1151C85.5778 46.1538 85.5311 46.1843 85.4797 46.2049C85.4284 46.2254 85.3736 46.2357 85.3183 46.2349C85.2635 46.2353 85.2092 46.2248 85.1585 46.204C85.1078 46.1832 85.0618 46.1525 85.023 46.1138C84.9843 46.075 84.9536 46.029 84.9328 45.9783C84.912 45.9276 84.9015 45.8733 84.9019 45.8185V44.0021H82.943V45.8185C82.9427 45.8738 82.9314 45.9285 82.9098 45.9793C82.8882 46.0302 82.8568 46.0764 82.8174 46.1151C82.7779 46.1538 82.7311 46.1843 82.6798 46.2049C82.6285 46.2254 82.5737 46.2357 82.5184 46.2349C82.4636 46.2353 82.4093 46.2248 82.3586 46.204C82.3079 46.1832 82.2618 46.1525 82.2231 46.1138C82.1844 46.075 82.1537 46.029 82.1329 45.9783C82.1121 45.9276 82.1016 45.8733 82.102 45.8185Z" fill="white"/>
<path d="M91.4194 41.5967C91.9119 42.1137 92.1865 42.8004 92.1865 43.5144C92.1865 44.2284 91.9119 44.9151 91.4194 45.4322C91.1915 45.687 90.9131 45.8917 90.6018 46.0332C90.2905 46.1747 89.9532 46.2499 89.6113 46.254C89.2623 46.2515 88.9176 46.1773 88.5985 46.0359C88.2794 45.8945 87.9928 45.689 87.7566 45.4322C87.2727 44.9108 87.0037 44.2257 87.0037 43.5144C87.0037 42.8031 87.2727 42.118 87.7566 41.5967C87.992 41.3388 88.2784 41.1326 88.5977 40.9911C88.9169 40.8496 89.2621 40.776 89.6113 40.7748C89.9532 40.7789 90.2905 40.8541 90.6018 40.9956C90.9131 41.1371 91.1915 41.3418 91.4194 41.5967ZM91.3208 43.5144C91.3207 43.0244 91.1369 42.5523 90.8058 42.1912C90.6551 42.0226 90.4712 41.8869 90.2657 41.7926C90.0601 41.6984 89.8374 41.6475 89.6113 41.6432C89.3796 41.6429 89.1506 41.6916 88.939 41.786C88.7275 41.8805 88.5384 42.0185 88.3839 42.1912C88.0493 42.5501 87.8649 43.0237 87.8689 43.5144C87.8641 44.0037 88.0486 44.4758 88.3839 44.8322C88.5356 45.0037 88.722 45.1411 88.9307 45.2352C89.1395 45.3292 89.3659 45.3779 89.5948 45.3779C89.8238 45.3779 90.0502 45.3292 90.2589 45.2352C90.4677 45.1411 90.6541 45.0037 90.8058 44.8322C91.1384 44.473 91.3224 44.0012 91.3208 43.5117V43.5144Z" fill="white"/>
<path d="M93.4742 44.9199C93.5403 44.8409 93.6349 44.7912 93.7375 44.7814C93.84 44.7717 93.9423 44.8027 94.0221 44.8678C94.4288 45.2128 94.9363 45.4166 95.4686 45.4486C95.8044 45.4572 96.1346 45.3615 96.4138 45.1747C96.5087 45.1168 96.5879 45.0366 96.6448 44.9411C96.7016 44.8457 96.7342 44.7377 96.7398 44.6267C96.7411 44.5414 96.7173 44.4576 96.6713 44.3857C96.6139 44.2935 96.5361 44.2157 96.4439 44.1583C96.1234 43.9773 95.7724 43.8566 95.4084 43.8021H95.3919C95.0557 43.7448 94.728 43.6454 94.4166 43.5062C94.1297 43.3823 93.8851 43.1777 93.7125 42.9172C93.5962 42.7318 93.5354 42.5169 93.5372 42.2981C93.5463 42.081 93.6058 41.869 93.7109 41.6788C93.8159 41.4887 93.9637 41.3255 94.1426 41.2022C94.5267 40.9355 94.9846 40.7957 95.4522 40.8022C96.0485 40.8342 96.6214 41.0452 97.096 41.4077C97.1396 41.4361 97.177 41.473 97.2061 41.5162C97.2352 41.5594 97.2553 41.608 97.2653 41.6591C97.2752 41.7101 97.2748 41.7627 97.2641 41.8137C97.2534 41.8646 97.2325 41.9129 97.2028 41.9556C97.1756 42.0006 97.1394 42.0394 97.0965 42.0697C97.0536 42.1 97.0049 42.1211 96.9534 42.1316C96.902 42.1422 96.8489 42.142 96.7975 42.131C96.7461 42.12 96.6976 42.0986 96.6549 42.0679C96.3072 41.7866 95.8818 41.6183 95.4357 41.5858C95.1339 41.5801 94.8378 41.6692 94.5892 41.8405C94.5061 41.8913 94.4365 41.9614 94.3864 42.0449C94.3363 42.1284 94.3072 42.2228 94.3015 42.32C94.2969 42.394 94.315 42.4676 94.3536 42.5309C94.4089 42.6092 94.4786 42.6761 94.5591 42.7282C94.8498 42.8985 95.1708 43.0111 95.5042 43.0597H95.5207C95.8799 43.124 96.2303 43.2307 96.5645 43.3775C96.8705 43.5113 97.1326 43.7288 97.3206 44.0049C97.4383 44.199 97.5008 44.4216 97.5014 44.6487C97.4947 44.8818 97.4322 45.1098 97.3193 45.3138C97.2063 45.5178 97.0461 45.6918 96.8521 45.8212C96.4432 46.1103 95.9529 46.2619 95.4522 46.2541C94.7414 46.22 94.0612 45.9545 93.5153 45.498C93.4738 45.4632 93.4397 45.4205 93.4151 45.3724C93.3905 45.3242 93.3758 45.2716 93.372 45.2176C93.3682 45.1637 93.3752 45.1095 93.3928 45.0584C93.4103 45.0072 93.438 44.9601 93.4742 44.9199Z" fill="white"/>
<path d="M100.455 44.1748H99.5233V45.8186C99.5233 45.9297 99.4791 46.0363 99.4005 46.115C99.3219 46.1936 99.2153 46.2377 99.1041 46.2377C98.9929 46.2377 98.8863 46.1936 98.8077 46.115C98.7291 46.0363 98.685 45.9297 98.685 45.8186V41.353C98.6846 41.2982 98.6951 41.2439 98.7159 41.1932C98.7367 41.1425 98.7674 41.0964 98.8061 41.0577C98.8449 41.0189 98.8909 40.9883 98.9416 40.9675C98.9923 40.9467 99.0466 40.9362 99.1014 40.9365H100.455C100.884 40.9365 101.296 41.1071 101.6 41.4108C101.903 41.7144 102.074 42.1262 102.074 42.5557C102.074 42.9851 101.903 43.3969 101.6 43.7006C101.296 44.0042 100.884 44.1748 100.455 44.1748ZM99.5233 43.3365H100.455C100.561 43.3428 100.667 43.3273 100.767 43.2909C100.867 43.2546 100.959 43.1982 101.037 43.1252C101.114 43.0522 101.176 42.9642 101.218 42.8665C101.26 42.7688 101.282 42.6635 101.282 42.557C101.282 42.4506 101.26 42.3453 101.218 42.2476C101.176 42.1499 101.114 42.0618 101.037 41.9888C100.959 41.9158 100.867 41.8594 100.767 41.8231C100.667 41.7868 100.561 41.7713 100.455 41.7776H99.5233V43.3365Z" fill="white"/>
<path d="M103.148 41.3555C103.147 41.3007 103.157 41.2462 103.178 41.1953C103.199 41.1445 103.229 41.0983 103.268 41.0594C103.307 41.0206 103.353 40.99 103.404 40.9693C103.455 40.9487 103.509 40.9384 103.564 40.9391C103.676 40.9384 103.783 40.9818 103.862 41.0598C103.942 41.1378 103.987 41.2441 103.989 41.3555V45.8184C103.987 45.9296 103.941 46.0355 103.862 46.1134C103.782 46.1912 103.675 46.2349 103.564 46.2348C103.509 46.2352 103.455 46.2247 103.404 46.2039C103.354 46.1831 103.308 46.1524 103.269 46.1137C103.23 46.0749 103.2 46.0289 103.179 45.9782C103.158 45.9275 103.147 45.8732 103.148 45.8184V41.3555Z" fill="white"/>
<path d="M108.644 41.7802H107.446V45.8184C107.43 45.9159 107.38 46.0045 107.305 46.0685C107.23 46.1324 107.134 46.1675 107.035 46.1675C106.937 46.1675 106.841 46.1324 106.766 46.0685C106.69 46.0045 106.64 45.9159 106.624 45.8184V41.7802H105.427C105.316 41.778 105.21 41.7324 105.132 41.6529C105.054 41.5735 105.011 41.4668 105.011 41.3555C105.01 41.3007 105.02 41.2462 105.041 41.1953C105.062 41.1445 105.092 41.0983 105.131 41.0594C105.17 41.0206 105.216 40.99 105.267 40.9693C105.318 40.9487 105.372 40.9384 105.427 40.9391H108.66C108.715 40.9388 108.769 40.9493 108.82 40.9701C108.87 40.9909 108.916 41.0215 108.955 41.0603C108.994 41.099 109.025 41.1451 109.045 41.1958C109.066 41.2464 109.077 41.3008 109.076 41.3555C109.076 41.4119 109.065 41.4676 109.043 41.5195C109.021 41.5714 108.989 41.6185 108.948 41.6579C108.908 41.6974 108.86 41.7285 108.808 41.7495C108.756 41.7705 108.7 41.7809 108.644 41.7802Z" fill="white"/>
<path d="M112.29 44.9965H110.46L110.09 45.98C110.06 46.0602 110.006 46.1292 109.935 46.1781C109.865 46.227 109.781 46.2535 109.696 46.254C109.647 46.2545 109.599 46.2461 109.553 46.2293C109.448 46.1894 109.362 46.1093 109.316 46.0067C109.269 45.9041 109.265 45.7871 109.304 45.6814L110.975 41.2268C111.005 41.1455 111.06 41.0756 111.132 41.0266C111.203 40.9776 111.288 40.9518 111.375 40.9528C111.462 40.9504 111.548 40.9756 111.621 41.0248C111.693 41.0739 111.748 41.1446 111.778 41.2268L113.449 45.6814C113.488 45.7871 113.484 45.9041 113.437 46.0067C113.39 46.1093 113.305 46.1894 113.2 46.2293C113.154 46.2466 113.106 46.255 113.057 46.254C112.972 46.2546 112.889 46.2284 112.82 46.1793C112.75 46.1301 112.698 46.0604 112.671 45.98L112.29 44.9965ZM111.98 44.1746L111.367 42.5308L110.756 44.1582L111.98 44.1746Z" fill="white"/>
<path d="M114.479 45.8186V41.353C114.479 41.2982 114.489 41.2439 114.51 41.1932C114.531 41.1425 114.561 41.0964 114.6 41.0577C114.639 41.0189 114.685 40.9883 114.736 40.9675C114.786 40.9467 114.841 40.9362 114.895 40.9365C115.006 40.9365 115.113 40.9802 115.192 41.0582C115.271 41.1361 115.316 41.242 115.317 41.353V45.3939H117.369C117.475 45.4025 117.574 45.4505 117.645 45.5284C117.717 45.6063 117.757 45.7084 117.757 45.8145C117.757 45.9205 117.717 46.0226 117.645 46.1005C117.574 46.1784 117.475 46.2264 117.369 46.235H114.904C114.848 46.2365 114.793 46.2268 114.741 46.2065C114.69 46.1861 114.643 46.1557 114.603 46.1168C114.563 46.078 114.532 46.0315 114.511 45.9803C114.489 45.9291 114.479 45.8741 114.479 45.8186Z" fill="white"/>
<path opacity="0.5" d="M121.016 134.701H121.975V47.6843L119.972 50.5363L121.016 134.701Z" fill="#1377AC"/>
<path opacity="0.5" d="M77.987 134.701H77.0282V47.6843L79.0308 50.5363L77.987 134.701Z" fill="#1377AC"/>
<path d="M121.972 63.0619H77.0282V64.2482H121.972V63.0619Z" fill="white"/>
<path opacity="0.5" d="M121.975 64.2479H77.0282V65.1027L121.975 64.6753V64.2479Z" fill="#1377AC"/>
<path opacity="0.5" d="M121.975 80.1844H77.0282V81.0392L121.975 80.6118V80.1844Z" fill="#1377AC"/>
<path opacity="0.5" d="M121.975 96.121H77.0282V96.9757L121.975 96.5484V96.121Z" fill="#1377AC"/>
<path d="M121.972 78.9983H77.0282V80.1846H121.972V78.9983Z" fill="white"/>
<path d="M88.5045 50.5471H81.4855V60.8235H88.5045V50.5471Z" fill="#37474F"/>
<path d="M98.1754 50.5471H91.1564V60.8235H98.1754V50.5471Z" fill="#37474F"/>
<path d="M107.846 50.5471H100.827V60.8235H107.846V50.5471Z" fill="#37474F"/>
<path d="M117.517 50.5471H110.498V60.8235H117.517V50.5471Z" fill="#37474F"/>
<path d="M88.5045 66.4863H81.4855V76.7627H88.5045V66.4863Z" fill="#37474F"/>
<path d="M98.1754 66.4863H91.1564V76.7627H98.1754V66.4863Z" fill="#37474F"/>
<path d="M107.846 66.4863H100.827V76.7627H107.846V66.4863Z" fill="#37474F"/>
<path d="M117.517 66.4863H110.498V76.7627H117.517V66.4863Z" fill="#37474F"/>
<path d="M88.5045 82.4227H81.4855V92.6991H88.5045V82.4227Z" fill="#37474F"/>
<path d="M98.1754 82.4227H91.1564V92.6991H98.1754V82.4227Z" fill="#37474F"/>
<path d="M107.846 82.4227H100.827V92.6991H107.846V82.4227Z" fill="#37474F"/>
<path d="M117.517 82.4227H110.498V92.6991H117.517V82.4227Z" fill="#37474F"/>
<path d="M88.5045 98.3566H81.4855V108.633H88.5045V98.3566Z" fill="#37474F"/>
<path d="M98.1754 98.3566H91.1564V108.633H98.1754V98.3566Z" fill="#37474F"/>
<path d="M107.846 98.3566H100.827V108.633H107.846V98.3566Z" fill="#37474F"/>
<path d="M117.517 98.3566H110.498V108.633H117.517V98.3566Z" fill="#37474F"/>
<path opacity="0.5" d="M121.975 96.121H77.0282V96.973L121.975 96.5484V96.121Z" fill="#1377AC"/>
<path d="M121.972 94.9346H77.0282V96.1208H121.972V94.9346Z" fill="white"/>
<path opacity="0.5" d="M121.975 112.057H77.0282V112.912L121.975 112.485V112.057Z" fill="#1377AC"/>
<path opacity="0.5" d="M121.975 112.055H77.0282V112.909L121.975 112.482V112.055Z" fill="#1377AC"/>
<path d="M121.972 110.868H77.0282V112.055H121.972V110.868Z" fill="white"/>
<path d="M108.153 118.098H90.4524V134.7H108.153V118.098Z" fill="white"/>
<path d="M98.8493 119.191H90.4524V134.7H98.8493V119.191Z" fill="#37474F"/>
<path d="M108.156 119.191H99.7589V134.7H108.156V119.191Z" fill="#37474F"/>
<path d="M90.4524 118.098H87.7456V134.7H90.4524V118.098Z" fill="white"/>
<path d="M112.665 118.098V115.392H86.3374V118.098H112.665Z" fill="white"/>
<path d="M110.86 118.098H108.153V134.7H110.86V118.098Z" fill="white"/>
<path d="M87.7456 118.098V118.561L110.863 118.728V118.098H87.7456Z" fill="#EBEBEB"/>
<g opacity="0.2">
<path d="M95.7043 119.191L90.4524 124.443V121.331L92.592 119.191H95.7043Z" fill="white"/>
<path d="M98.8493 128.49V130.046L94.1947 134.7H92.6386L98.8493 128.49Z" fill="white"/>
<path d="M108.153 119.191V120.742L99.7589 129.136V127.58L108.148 119.191H108.153Z" fill="white"/>
</g>
<g opacity="0.2">
<path d="M85.069 82.4227H88.1839L81.4855 89.1211V86.0062L85.069 82.4227Z" fill="white"/>
<path d="M91.1564 76.3353L98.1754 69.3164V72.4314L93.8468 76.76H91.1564V76.3353Z" fill="white"/>
<path d="M101.005 66.4863H104.12L100.827 69.7794V66.6644L101.005 66.4863Z" fill="white"/>
<path d="M107.846 59.6455V60.8236H106.668L107.846 59.6455Z" fill="white"/>
<path d="M103.151 108.633L107.846 103.937V107.049L106.263 108.633H103.151Z" fill="white"/>
<path d="M116.539 98.3563L110.498 104.397V101.285L113.427 98.3563H116.539Z" fill="white"/>
<path d="M100.827 108.082L107.846 101.063V101.419L100.827 108.438V108.082Z" fill="white"/>
<path d="M110.909 98.3563L110.498 98.7673V98.4111L110.553 98.3563H110.909Z" fill="white"/>
<path d="M117.517 91.3922V91.7484L116.567 92.699H116.21L117.517 91.3922Z" fill="white"/>
<path d="M81.4855 91.7896L88.5045 84.7706V85.1268L81.4855 92.1457V91.7896Z" fill="white"/>
<path d="M91.1564 82.4227H91.2102L91.1564 82.4766V82.4227Z" fill="white"/>
<path d="M96.5152 76.7599L98.1754 75.0997V75.4559L96.8713 76.7599H96.5152Z" fill="white"/>
<path d="M106.789 66.4863H107.145L100.827 72.8039V72.4478L106.789 66.4863Z" fill="white"/>
<path d="M117.517 55.7579V56.1141L112.808 60.8235H112.452L117.517 55.7579Z" fill="white"/>
<path d="M81.4855 73.7982L88.5045 66.7793V67.1355L81.4855 74.1544V73.7982Z" fill="white"/>
<path d="M94.4604 60.8232L98.1754 57.1083V57.4644L94.8166 60.8232H94.4604Z" fill="white"/>
<path d="M105.093 50.5471L100.827 54.8127V54.4566L104.737 50.5471H105.093Z" fill="white"/>
<path d="M88.5045 52.4237V53.9853L81.6664 60.8234H81.4855V59.4426L88.5045 52.4237Z" fill="white"/>
<path d="M81.4855 105.397L88.5045 98.3783V99.9399L81.4855 106.959V105.397Z" fill="white"/>
<path d="M104.46 82.4227H106.022L100.827 87.6171L98.1754 90.269L95.7453 92.6991H94.1837L98.1754 88.7075L100.827 86.0555L104.46 82.4227Z" fill="white"/>
<path d="M117.517 69.3683V70.9271L111.685 76.7598H110.498V76.3872L117.517 69.3683Z" fill="white"/>
<path d="M81.5842 92.6989L88.5045 85.7786V87.3374L83.143 92.6989H81.5842Z" fill="white"/>
<path d="M91.8605 82.4227H93.4194L91.1564 84.6857V83.1268L91.8605 82.4227Z" fill="white"/>
<path d="M97.5234 76.7598L98.1754 76.1078V76.7598H97.5234Z" fill="white"/>
<path d="M107.797 66.4863H107.846V67.9959L100.827 75.0148V73.456L107.797 66.4863Z" fill="white"/>
<path d="M117.517 56.766V58.3248L115.019 60.8234H113.46L117.517 56.766Z" fill="white"/>
<path d="M86.2388 98.3563H86.595L81.4855 103.466V103.11L86.2388 98.3563Z" fill="white"/>
<path d="M102.173 82.4227H102.529L100.827 84.124L98.1754 86.776L92.2523 92.6991H91.8961L102.173 82.4227Z" fill="white"/>
<path d="M107.835 76.7617L107.848 76.7489V76.7617H107.835Z" fill="white"/>
<path d="M117.517 67.078V67.4342L110.498 74.4531V74.0969L117.517 67.078Z" fill="white"/>
</g>
<path d="M99.5014 36.4435C102.385 36.4435 104.723 34.1056 104.723 31.2217C104.723 28.3379 102.385 26 99.5014 26C96.6175 26 94.2796 28.3379 94.2796 31.2217C94.2796 34.1056 96.6175 36.4435 99.5014 36.4435Z" fill="#37474F"/>
<path d="M100.351 27.9535H98.6521V34.4875H100.351V27.9535Z" fill="white"/>
<path d="M96.233 30.3726V32.0712H102.767V30.3726H96.233Z" fill="white"/>
<path d="M52.675 16.1499H48.52C47.395 16.1499 46.465 15.5199 46.465 14.3499C46.465 13.1949 47.38 12.5499 48.52 12.5499H48.895C50.02 12.5499 50.95 11.4549 50.95 10.2999C50.95 9.14493 50.035 8.04993 48.895 8.04993H30.28C29.155 8.04993 28.225 9.14493 28.225 10.2999C28.225 11.4549 29.14 12.5499 30.28 12.5499H38.425C37.3 12.5499 36.37 13.1949 36.37 14.3499C36.37 15.5049 37.285 16.1499 38.425 16.1499H34.06C32.935 16.1499 32.005 17.3949 32.005 18.5499C32.005 19.7049 32.92 20.9499 34.06 20.9499H52.69C53.815 20.9499 54.73 19.7049 54.73 18.5499C54.73 17.3949 53.815 16.1499 52.675 16.1499Z" fill="#F1F1F1"/>
<path d="M64.15 12.5499H59.02C57.895 12.5499 56.965 13.1949 56.965 14.3499C56.965 15.5049 57.88 16.1499 59.02 16.1499H64.15C65.275 16.1499 66.205 15.5199 66.205 14.3499C66.205 13.1949 65.29 12.5499 64.15 12.5499Z" fill="#F1F1F1"/>
<path d="M49 3.20498C49 2.69498 48.505 2.34998 47.995 2.34998H43.15C42.64 2.34998 42.1 2.67998 42.1 3.20498V4.37497C42.1 4.89997 42.64 4.74997 43.15 4.74997H47.995C48.505 4.74997 49 4.89997 49 4.37497V3.20498Z" fill="#F1F1F1"/>
<path d="M36.4 26.365C36.4 25.84 35.965 25.45 35.455 25.45H30.61C30.115 25.45 29.5 25.84 29.5 26.365V27.535C29.5 28.045 30.115 28.75 30.61 28.75H35.455C35.95 28.75 36.4 28.045 36.4 27.535V26.365Z" fill="#F1F1F1"/>
<path d="M159.925 39.25H155.77C154.645 39.25 153.715 38.755 153.715 37.6C153.715 36.445 154.63 35.95 155.77 35.95H156.145C157.27 35.95 158.2 34.855 158.2 33.7C158.2 32.545 157.285 31.45 156.145 31.45H137.515C136.39 31.45 135.46 32.545 135.46 33.7C135.46 34.855 136.375 35.95 137.515 35.95H145.66C144.535 35.95 143.605 36.445 143.605 37.6C143.605 38.755 144.52 39.25 145.66 39.25H141.295C140.17 39.25 139.24 40.495 139.24 41.65C139.24 42.82 140.155 44.05 141.295 44.05H159.925C161.05 44.05 161.965 42.8049 161.965 41.65C161.98 40.495 161.065 39.25 159.925 39.25Z" fill="#F1F1F1"/>
<path d="M171.4 35.95H166.285C165.16 35.95 164.23 36.445 164.23 37.6C164.23 38.755 165.145 39.25 166.285 39.25H171.4C172.525 39.25 173.455 38.755 173.455 37.6C173.455 36.445 172.54 35.95 171.4 35.95Z" fill="#F1F1F1"/>
<path d="M156.1 26.455C156.1 25.945 155.74 25.75 155.245 25.75H150.4C149.89 25.75 149.5 25.945 149.5 26.455V27.625C149.5 28.15 149.89 27.85 150.4 27.85H155.245C155.755 27.85 156.1 28.15 156.1 27.625V26.455Z" fill="#F1F1F1"/>
<path d="M143.8 49.6151C143.8 49.0901 143.215 48.55 142.705 48.55H137.86C137.365 48.55 136.6 49.0901 136.6 49.6151V50.7851C136.6 51.2951 137.35 52.1501 137.86 52.1501H142.705C143.2 52.1501 143.8 51.2951 143.8 50.7851V49.6151Z" fill="#F1F1F1"/>
<path d="M136.78 160.825H132.715V191.635H136.78V160.825Z" fill="#563720"/>
<path d="M136.765 160.825H134.74V191.635H136.765V160.825Z" fill="#75492C"/>
<path d="M146.875 162.655C146.71 160.255 143.785 156.31 140.215 156.31C136.645 156.31 133.72 160.255 133.555 162.655H146.875Z" fill="#408746"/>
<path d="M145.48 162.655C145.345 160.255 143.035 157.63 140.2 157.63C137.365 157.63 135.055 160.255 134.92 162.655H145.48Z" fill="#3C773F"/>
<path d="M136.36 162.655C136.195 160.255 133.27 156.31 129.7 156.31C126.13 156.31 123.205 160.255 123.04 162.655H136.36Z" fill="#408746"/>
<path d="M134.95 162.655C134.815 160.255 132.505 157.63 129.67 157.63C126.835 157.63 124.525 160.255 124.39 162.655H134.95Z" fill="#3C773F"/>
<path d="M136.84 162.595C136.84 163.75 135.895 164.695 134.74 164.695C134.365 164.695 134.02 164.605 133.72 164.425C133.075 164.065 132.64 163.375 132.64 162.595C132.64 161.8 133.075 161.125 133.72 160.765C134.02 160.6 134.365 160.495 134.74 160.495C135.895 160.495 136.84 161.44 136.84 162.595Z" fill="#BF7F6B"/>
<path d="M134.8 162.595C134.8 163.39 134.365 164.065 133.72 164.425C133.075 164.065 132.64 163.375 132.64 162.595C132.64 161.8 133.075 161.125 133.72 160.765C134.365 161.125 134.8 161.8 134.8 162.595Z" fill="#D39C88"/>
<path d="M180.37 160.825H176.305V191.635H180.37V160.825Z" fill="#563720"/>
<path d="M180.355 160.825H178.33V191.635H180.355V160.825Z" fill="#75492C"/>
<path d="M190.48 162.655C190.315 160.255 187.39 156.31 183.82 156.31C180.25 156.31 177.325 160.255 177.16 162.655H190.48Z" fill="#408746"/>
<path d="M189.085 162.655C188.95 160.255 186.64 157.63 183.805 157.63C180.97 157.63 178.66 160.255 178.525 162.655H189.085Z" fill="#3C773F"/>
<path d="M179.95 162.655C179.785 160.255 176.86 156.31 173.29 156.31C169.72 156.31 166.795 160.255 166.63 162.655H179.95Z" fill="#408746"/>
<path d="M178.555 162.655C178.42 160.255 176.11 157.63 173.275 157.63C170.44 157.63 168.13 160.255 167.995 162.655H178.555Z" fill="#3C773F"/>
<path d="M180.43 162.595C180.43 163.75 179.485 164.695 178.33 164.695C177.955 164.695 177.61 164.605 177.31 164.425C176.665 164.065 176.23 163.375 176.23 162.595C176.23 161.8 176.665 161.125 177.31 160.765C177.61 160.6 177.955 160.495 178.33 160.495C179.5 160.495 180.43 161.44 180.43 162.595Z" fill="#BF7F6B"/>
<path d="M178.405 162.595C178.405 163.39 177.97 164.065 177.325 164.425C176.68 164.065 176.245 163.375 176.245 162.595C176.245 161.8 176.68 161.125 177.325 160.765C177.97 161.125 178.405 161.8 178.405 162.595Z" fill="#D39C88"/>
<path d="M26.755 160.825H22.69V191.635H26.755V160.825Z" fill="#563720"/>
<path d="M26.74 160.825H24.715V191.635H26.74V160.825Z" fill="#75492C"/>
<path d="M36.85 162.655C36.685 160.255 33.76 156.31 30.19 156.31C26.62 156.31 23.695 160.255 23.53 162.655H36.85Z" fill="#408746"/>
<path d="M35.455 162.655C35.32 160.255 33.01 157.63 30.175 157.63C27.34 157.63 25.03 160.255 24.895 162.655H35.455Z" fill="#3C773F"/>
<path d="M26.335 162.655C26.17 160.255 23.245 156.31 19.675 156.31C16.105 156.31 13.18 160.255 13.015 162.655H26.335Z" fill="#408746"/>
<path d="M24.925 162.655C24.79 160.255 22.48 157.63 19.645 157.63C16.81 157.63 14.5 160.255 14.365 162.655H24.925Z" fill="#3C773F"/>
<path d="M26.815 162.595C26.815 163.75 25.87 164.695 24.715 164.695C24.34 164.695 23.995 164.605 23.695 164.425C23.05 164.065 22.615 163.375 22.615 162.595C22.615 161.8 23.05 161.125 23.695 160.765C23.995 160.6 24.34 160.495 24.715 160.495C25.87 160.495 26.815 161.44 26.815 162.595Z" fill="#BF7F6B"/>
<path d="M23.695 164.425C24.2915 164.425 24.775 163.606 24.775 162.595C24.775 161.584 24.2915 160.765 23.695 160.765C23.0986 160.765 22.615 161.584 22.615 162.595C22.615 163.606 23.0986 164.425 23.695 164.425Z" fill="#D39C88"/>
<path d="M70.345 160.825H66.28V191.635H70.345V160.825Z" fill="#563720"/>
<path d="M70.33 160.825H68.305V191.635H70.33V160.825Z" fill="#75492C"/>
<path d="M80.455 162.655C80.29 160.255 77.365 156.31 73.795 156.31C70.225 156.31 67.3 160.255 67.135 162.655H80.455Z" fill="#408746"/>
<path d="M79.045 162.655C78.91 160.255 76.6 157.63 73.765 157.63C70.93 157.63 68.62 160.255 68.485 162.655H79.045Z" fill="#3C773F"/>
<path d="M69.925 162.655C69.76 160.255 66.835 156.31 63.265 156.31C59.695 156.31 56.77 160.255 56.605 162.655H69.925Z" fill="#408746"/>
<path d="M68.53 162.655C68.395 160.255 66.085 157.63 63.25 157.63C60.415 157.63 58.105 160.255 57.97 162.655H68.53Z" fill="#3C773F"/>
<path d="M70.405 162.595C70.405 163.75 69.475 164.695 68.305 164.695C67.93 164.695 67.585 164.605 67.285 164.425C66.64 164.065 66.205 163.375 66.205 162.595C66.205 161.8 66.64 161.125 67.285 160.765C67.585 160.6 67.93 160.495 68.305 160.495C69.46 160.495 70.405 161.44 70.405 162.595Z" fill="#BF7F6B"/>
<path d="M67.3 164.425C67.8965 164.425 68.38 163.606 68.38 162.595C68.38 161.584 67.8965 160.765 67.3 160.765C66.7035 160.765 66.22 161.584 66.22 162.595C66.22 163.606 66.7035 164.425 67.3 164.425Z" fill="#D39C88"/>
</svg>
