<svg width="94" height="65" viewBox="0 0 94 65" fill="none" xmlns="http://www.w3.org/2000/svg">
<path d="M3.00994 -12.2323C1.67661 -0.305647 -6.98987 22.1342 26.0099 29.9085C45.01 34.3847 72.5099 35.0768 93.5099 65.2909" stroke="white" stroke-opacity="0.24"/>
<path d="M6.02019 -14.2201C4.68686 -2.29344 -3.97961 20.1464 29.0202 27.9207C48.0203 32.3969 75.5201 33.089 96.5201 63.3031" stroke="white" stroke-opacity="0.24"/>
<path d="M9.0302 -16.2078C7.69687 -4.28111 -0.969604 18.1587 32.0302 25.9331C51.0303 30.4093 78.5302 31.1013 99.5302 61.3155" stroke="white" stroke-opacity="0.24"/>
<path d="M12.0402 -18.1956C10.7069 -6.2689 2.04041 16.1709 35.0402 23.9453C54.0403 28.4215 81.5402 29.1135 102.54 59.3277" stroke="white" stroke-opacity="0.24"/>
<path d="M15.0505 -20.1833C13.7171 -8.2567 5.05066 14.1831 38.0505 21.9575C57.0506 26.4337 84.5504 27.1257 105.55 57.3399" stroke="white" stroke-opacity="0.24"/>
<path d="M18.0607 -22.1711C16.7274 -10.2445 8.06091 12.1954 41.0607 19.9697C60.0608 24.4459 87.5607 25.1379 108.561 55.3521" stroke="white" stroke-opacity="0.24"/>
<path d="M21.0707 -24.1589C19.7374 -12.2323 11.0709 10.2076 44.0707 17.9819C63.0708 22.4581 90.5707 23.1501 111.571 53.3643" stroke="white" stroke-opacity="0.24"/>
<path d="M24.0807 -26.1467C22.7474 -14.2201 14.0809 8.21977 47.0807 15.9941C66.0808 20.4703 93.5807 21.1623 114.581 51.3765" stroke="white" stroke-opacity="0.24"/>
<path d="M27.091 -28.1345C25.7577 -16.2079 17.0912 6.23197 50.091 14.0063C69.0911 18.4825 96.591 19.1745 117.591 49.3887" stroke="white" stroke-opacity="0.24"/>
<path d="M30.1012 -30.1222C28.7679 -18.1955 20.1014 4.2443 53.1012 12.0186C72.1013 16.4948 99.6012 17.1869 120.601 47.401" stroke="white" stroke-opacity="0.24"/>
<path d="M33.1113 -32.11C31.7779 -20.1833 23.1115 2.25651 56.1113 10.0309C75.1113 14.507 102.611 15.1991 123.611 45.4133" stroke="white" stroke-opacity="0.24"/>
<path d="M36.1213 -34.0978C34.7879 -22.1711 26.1215 0.268718 59.1213 8.04306C78.1214 12.5192 105.621 13.2113 126.621 43.4255" stroke="white" stroke-opacity="0.24"/>
<path d="M39.1315 -36.0856C37.7982 -24.1589 29.1317 -1.71908 62.1315 6.05527C81.1316 10.5315 108.631 11.2235 129.631 41.4377" stroke="white" stroke-opacity="0.24"/>
<path d="M42.1418 -38.0734C40.8084 -26.1467 32.142 -3.70687 65.1418 4.06747C84.1419 8.54366 111.642 9.23569 132.642 39.4499" stroke="white" stroke-opacity="0.24"/>
<path d="M45.1518 -40.0612C43.8185 -28.1345 35.152 -5.69466 68.1518 2.07968C87.1519 6.55586 114.652 7.2479 135.652 37.4621" stroke="white" stroke-opacity="0.24"/>
<path d="M48.1618 -42.049C46.8285 -30.1223 38.162 -7.68245 71.1618 0.0918886C90.1619 4.56807 117.662 5.2601 138.662 35.4743" stroke="white" stroke-opacity="0.24"/>
<path d="M51.172 -44.0366C49.8387 -32.11 41.1722 -9.67013 74.1721 -1.89578C93.1721 2.5804 120.672 3.27243 141.672 33.4866" stroke="white" stroke-opacity="0.24"/>
<path d="M54.1823 -46.0244C52.849 -34.0978 44.1825 -11.6579 77.1823 -3.88358C96.1824 0.592607 123.682 1.28464 144.682 31.4988" stroke="white" stroke-opacity="0.24"/>
<path d="M57.1923 -48.0122C55.859 -36.0856 47.1925 -13.6457 80.1923 -5.87137C99.1924 -1.39519 126.692 -0.703152 147.692 29.511" stroke="white" stroke-opacity="0.24"/>
<path d="M60.2023 -50C58.869 -38.0733 50.2025 -15.6335 83.2023 -7.85916C102.202 -3.38298 129.702 -2.69095 150.702 27.5232" stroke="white" stroke-opacity="0.24"/>
</svg>
