<svg width="124" height="34" viewBox="0 0 124 34" fill="none" xmlns="http://www.w3.org/2000/svg">
<path d="M-10.5 3.67924C-3.83333 0.763835 13.8 -1.88652 31 10.8352C48.2 23.557 53 66.4929 123.5 51.3859" stroke="white" stroke-opacity="0.1"/>
<path d="M-15 4.90055C-8.33333 1.98515 9.29999 -0.665204 26.5 12.0565C43.7 24.7783 48.5 67.7143 119 52.6072" stroke="white" stroke-opacity="0.1"/>
<path d="M-19.5 6.12187C-12.8333 3.20646 4.79999 0.556109 22 13.2779C39.2 25.9996 44 68.9356 114.5 53.8285" stroke="white" stroke-opacity="0.1"/>
<path d="M-24 7.34318C-17.3333 4.42778 0.299986 1.77742 17.5 14.4992C34.7 27.2209 39.5 70.1569 110 55.0498" stroke="white" stroke-opacity="0.1"/>
<path d="M-28.5 8.56449C-21.8333 5.64909 -4.20001 2.99874 13 15.7205C30.2 28.4422 35 71.3782 105.5 56.2711" stroke="white" stroke-opacity="0.1"/>
<path d="M-33 9.78568C-26.3333 6.87028 -8.70001 4.21993 8.5 16.9417C25.7 29.6634 30.5 72.5994 101 57.4923" stroke="white" stroke-opacity="0.1"/>
<path d="M-37.5 11.007C-30.8333 8.09159 -13.2 5.44124 4 18.163C21.2 30.8847 26 73.8207 96.5 58.7136" stroke="white" stroke-opacity="0.1"/>
<path d="M-42 12.2283C-35.3333 9.31291 -17.7 6.66255 -0.5 19.3843C16.7 32.106 21.5 75.042 92 59.9349" stroke="white" stroke-opacity="0.1"/>
<path d="M-46.5 13.4496C-39.8333 10.5342 -22.2 7.88387 -5 20.6056C12.2 33.3274 17 76.2633 87.5 61.1562" stroke="white" stroke-opacity="0.1"/>
<path d="M-51 14.6709C-44.3333 11.7555 -26.7 9.10518 -9.5 21.8269C7.7 34.5487 12.5 77.4846 83 62.3776" stroke="white" stroke-opacity="0.1"/>
<path d="M-55.5 15.8923C-48.8333 12.9768 -31.2 10.3265 -14 23.0482C3.2 35.77 8 78.706 78.5 63.5989" stroke="white" stroke-opacity="0.1"/>
<path d="M-60 17.1136C-53.3333 14.1982 -35.7 11.5478 -18.5 24.2696C-1.3 36.9913 3.5 79.9273 74 64.8202" stroke="white" stroke-opacity="0.1"/>
</svg>
