<svg width="154" height="48" viewBox="0 0 154 48" fill="none" xmlns="http://www.w3.org/2000/svg">
<path d="M57.7 4.9C59.18 4.9 60.4733 5.2 61.58 5.8C62.7 6.38667 63.56 7.21333 64.16 8.28C64.76 9.34667 65.06 10.5667 65.06 11.94C65.06 13.3 64.7533 14.5133 64.14 15.58C63.54 16.6467 62.68 17.4867 61.56 18.1C60.4533 18.7 59.1667 19 57.7 19H52.12V4.9H57.7ZM57.4 15.54C58.5467 15.54 59.4467 15.2267 60.1 14.6C60.7533 13.9733 61.08 13.0867 61.08 11.94C61.08 10.78 60.7533 9.88667 60.1 9.26C59.4467 8.62 58.5467 8.3 57.4 8.3H56.04V15.54H57.4ZM70.747 4.9V19H66.827V4.9H70.747ZM81.8994 16.7H76.8994L76.1394 19H72.0194L77.1594 4.9H81.6794L86.7994 19H82.6594L81.8994 16.7ZM80.9194 13.7L79.3994 9.14L77.8994 13.7H80.9194ZM97.077 11.76C97.9037 11.9467 98.557 12.36 99.037 13C99.5304 13.6267 99.777 14.3467 99.777 15.16C99.777 16.36 99.3637 17.3 98.537 17.98C97.7104 18.66 96.5504 19 95.057 19H88.077V4.9H94.837C96.277 4.9 97.4037 5.22 98.217 5.86C99.0437 6.5 99.457 7.4 99.457 8.56C99.457 9.38667 99.237 10.08 98.797 10.64C98.3704 11.1867 97.797 11.56 97.077 11.76ZM91.997 10.5H93.977C94.9637 10.5 95.457 10.0933 95.457 9.28C95.457 8.44 94.9637 8.02 93.977 8.02H91.997V10.5ZM94.277 15.84C95.2637 15.84 95.757 15.4267 95.757 14.6C95.757 14.1733 95.6237 13.8467 95.357 13.62C95.1037 13.3933 94.737 13.28 94.257 13.28H91.997V15.84H94.277ZM105.415 8.04V10.34H109.915V13.32H105.415V15.86H110.515V19H101.495V4.9H110.515V8.04H105.415ZM123.072 4.9V8.02H119.312V19H115.392V8.02H111.672V4.9H123.072ZM128.442 8.04V10.34H132.942V13.32H128.442V15.86H133.542V19H124.522V4.9H133.542V8.04H128.442ZM140.799 19.14C139.159 19.14 137.813 18.7533 136.759 17.98C135.706 17.1933 135.139 16.0733 135.059 14.62H139.239C139.279 15.1133 139.426 15.4733 139.679 15.7C139.933 15.9267 140.259 16.04 140.659 16.04C141.019 16.04 141.313 15.9533 141.539 15.78C141.779 15.5933 141.899 15.34 141.899 15.02C141.899 14.6067 141.706 14.2867 141.319 14.06C140.933 13.8333 140.306 13.58 139.439 13.3C138.519 12.9933 137.773 12.7 137.199 12.42C136.639 12.1267 136.146 11.7067 135.719 11.16C135.306 10.6 135.099 9.87333 135.099 8.98C135.099 8.07333 135.326 7.3 135.779 6.66C136.233 6.00667 136.859 5.51333 137.659 5.18C138.459 4.84667 139.366 4.68 140.379 4.68C142.019 4.68 143.326 5.06667 144.299 5.84C145.286 6.6 145.813 7.67333 145.879 9.06H141.619C141.606 8.63333 141.473 8.31333 141.219 8.1C140.979 7.88667 140.666 7.78 140.279 7.78C139.986 7.78 139.746 7.86667 139.559 8.04C139.373 8.21333 139.279 8.46 139.279 8.78C139.279 9.04667 139.379 9.28 139.579 9.48C139.793 9.66667 140.053 9.83333 140.359 9.98C140.666 10.1133 141.119 10.2867 141.719 10.5C142.613 10.8067 143.346 11.1133 143.919 11.42C144.506 11.7133 145.006 12.1333 145.419 12.68C145.846 13.2133 146.059 13.8933 146.059 14.72C146.059 15.56 145.846 16.3133 145.419 16.98C145.006 17.6467 144.399 18.1733 143.599 18.56C142.813 18.9467 141.879 19.14 140.799 19.14ZM57.44 42.14C55.8 42.14 54.4533 41.7533 53.4 40.98C52.3467 40.1933 51.78 39.0733 51.7 37.62H55.88C55.92 38.1133 56.0667 38.4733 56.32 38.7C56.5733 38.9267 56.9 39.04 57.3 39.04C57.66 39.04 57.9533 38.9533 58.18 38.78C58.42 38.5933 58.54 38.34 58.54 38.02C58.54 37.6067 58.3467 37.2867 57.96 37.06C57.5733 36.8333 56.9467 36.58 56.08 36.3C55.16 35.9933 54.4133 35.7 53.84 35.42C53.28 35.1267 52.7867 34.7067 52.36 34.16C51.9467 33.6 51.74 32.8733 51.74 31.98C51.74 31.0733 51.9667 30.3 52.42 29.66C52.8733 29.0067 53.5 28.5133 54.3 28.18C55.1 27.8467 56.0067 27.68 57.02 27.68C58.66 27.68 59.9667 28.0667 60.94 28.84C61.9267 29.6 62.4533 30.6733 62.52 32.06H58.26C58.2467 31.6333 58.1133 31.3133 57.86 31.1C57.62 30.8867 57.3067 30.78 56.92 30.78C56.6267 30.78 56.3867 30.8667 56.2 31.04C56.0133 31.2133 55.92 31.46 55.92 31.78C55.92 32.0467 56.02 32.28 56.22 32.48C56.4333 32.6667 56.6933 32.8333 57 32.98C57.3067 33.1133 57.76 33.2867 58.36 33.5C59.2533 33.8067 59.9867 34.1133 60.56 34.42C61.1467 34.7133 61.6467 35.1333 62.06 35.68C62.4867 36.2133 62.7 36.8933 62.7 37.72C62.7 38.56 62.4867 39.3133 62.06 39.98C61.6467 40.6467 61.04 41.1733 60.24 41.56C59.4533 41.9467 58.52 42.14 57.44 42.14ZM68.4423 31.04V33.34H72.9423V36.32H68.4423V38.86H73.5423V42H64.5223V27.9H73.5423V31.04H68.4423ZM88.0994 27.9V42H84.1794V36.34H79.3994V42H75.4794V27.9H79.3994V33.2H84.1794V27.9H88.0994ZM99.2627 39.7H94.2627L93.5027 42H89.3827L94.5227 27.9H99.0427L104.163 42H100.023L99.2627 39.7ZM98.2827 36.7L96.7627 32.14L95.2627 36.7H98.2827ZM116.06 27.9V31.02H112.3V42H108.38V31.02H104.66V27.9H116.06Z" fill="#1F3C88"/>
<g clip-path="url(#clip0_451_5086)">
<path fill-rule="evenodd" clip-rule="evenodd" d="M24 48C24 48 24 48 24 48C25.9052 47.3094 30.1659 44.1325 31.967 36.9504C32.7176 34.5907 35.2232 29.8026 39.2413 29.5263C39.3569 29.6413 39.38 30.1824 38.5486 31.4254C37.4517 32.8067 35.4657 35.7763 36.297 36.605C36.759 36.9504 37.3645 36.633 39.2413 34.5331C41.1554 32.3918 41.9623 29.8669 42.5843 27.9208L42.5843 27.9207C42.865 27.0424 43.108 26.2821 43.3981 25.728C43.7445 25.728 44.3681 26.3495 44.0909 28.8357C43.7445 31.368 42.4652 36.7749 39.7891 39.893C36.723 43.4655 34.4552 45.4662 31.9891 46.6382C41.3164 43.3466 48 34.4539 48 24C48 10.7452 37.2549 0 24 0C10.7452 0 0 10.7452 0 24C0 34.4538 6.68352 43.3464 16.0106 46.6381C13.5447 45.4661 11.2769 43.4654 8.21094 39.893C5.53482 36.7749 4.25541 31.368 3.90902 28.8357C3.63191 26.3495 4.25541 25.728 4.60182 25.728C4.89197 26.2821 5.13503 27.0426 5.41577 27.921C6.03775 29.8671 6.84468 32.3919 8.75856 34.5331C10.6354 36.633 11.2411 36.9504 11.7029 36.605C12.5343 35.7763 10.5483 32.8067 9.45135 31.4254C8.61999 30.1824 8.64309 29.6413 8.75856 29.5263C12.7767 29.8026 15.2823 34.5907 16.0329 36.9504C17.8341 44.1325 22.0947 47.3094 24 48ZM19.2 10.752C19.2 9.69162 20.0596 8.832 21.12 8.832H26.88C27.9404 8.832 28.8 9.69162 28.8 10.752V18.432H36.48C37.5404 18.432 38.4 19.2916 38.4 20.352V26.112C38.4 27.1724 37.5404 28.032 36.48 28.032H28.8V35.712C28.8 36.7724 27.9404 37.632 26.88 37.632H21.12C20.0596 37.632 19.2 36.7724 19.2 35.712V28.032H11.52C10.4596 28.032 9.6 27.1724 9.6 26.112V20.352C9.6 19.2916 10.4596 18.432 11.52 18.432H19.2V10.752Z" fill="#1F3C88"/>
</g>
<defs>
<clipPath id="clip0_451_5086">
<rect width="48" height="48" fill="white"/>
</clipPath>
</defs>
</svg>
