<svg width="30" height="31" viewBox="0 0 30 31" fill="none" xmlns="http://www.w3.org/2000/svg">
<path d="M8.75 12.601C8.75 11.9042 9.31 11.3409 10 11.3409H20C20.69 11.3409 21.25 11.9042 21.25 12.601C21.25 13.2978 20.69 13.861 20 13.861H10C9.31 13.861 8.75 13.2978 8.75 12.601ZM11.25 10.0809H18.75C19.44 10.0809 20 9.51765 20 8.82085C20 8.12405 19.44 7.56081 18.75 7.56081H11.25C10.56 7.56081 10 8.12405 10 8.82085C10 9.51765 10.56 10.0809 11.25 10.0809ZM27.5 16.9948V20.1612C27.5 23.6351 24.6962 26.4613 21.25 26.4613H8.75C5.30375 26.4613 2.5 23.6351 2.5 20.1612V16.9948C2.5 16.4504 2.58627 15.9135 2.75627 15.3994L5.17502 8.08747C6.02752 5.5107 8.40999 3.77948 11.1037 3.77948H18.8963C21.59 3.77948 23.9737 5.5107 24.825 8.08747L27.2437 15.3994C27.4137 15.9135 27.5 16.4517 27.5 16.9948ZM5.48378 15.121H11.25C11.94 15.121 12.5 15.6843 12.5 16.3811C12.5 17.7709 13.6213 18.9011 15 18.9011C16.3787 18.9011 17.5 17.7709 17.5 16.3811C17.5 15.6843 18.06 15.121 18.75 15.121H24.5162L22.4538 8.88637C21.9425 7.33905 20.5125 6.30078 18.8963 6.30078H11.1037C9.48749 6.30078 8.05748 7.33905 7.54623 8.88637L5.48378 15.121ZM25 20.1612V17.6411H19.8425C19.2863 19.8134 17.3263 21.4212 15 21.4212C12.6737 21.4212 10.715 19.8134 10.1575 17.6411H5V20.1612C5 22.2453 6.6825 23.9413 8.75 23.9413H21.25C23.3175 23.9413 25 22.2453 25 20.1612Z" fill="white"/>
</svg>
