<svg width="26" height="24" viewBox="0 0 26 24" fill="none" xmlns="http://www.w3.org/2000/svg">
<path d="M6.75 9.60095C6.75 8.90415 7.31 8.34092 8 8.34092H18C18.69 8.34092 19.25 8.90415 19.25 9.60095C19.25 10.2978 18.69 10.861 18 10.861H8C7.31 10.861 6.75 10.2978 6.75 9.60095ZM9.25 7.08088H16.75C17.44 7.08088 18 6.51765 18 5.82085C18 5.12405 17.44 4.56081 16.75 4.56081H9.25C8.56 4.56081 8 5.12405 8 5.82085C8 6.51765 8.56 7.08088 9.25 7.08088ZM25.5 13.9948V17.1612C25.5 20.6351 22.6963 23.4613 19.25 23.4613H6.75C3.30375 23.4613 0.5 20.6351 0.5 17.1612V13.9948C0.5 13.4504 0.586271 12.9135 0.756271 12.3994L3.17502 5.08747C4.02752 2.5107 6.41 0.77948 9.10374 0.77948H16.8963C19.59 0.77948 21.9737 2.5107 22.825 5.08747L25.2437 12.3994C25.4137 12.9135 25.5 13.4517 25.5 13.9948ZM3.48378 12.121H9.25C9.94 12.121 10.5 12.6843 10.5 13.3811C10.5 14.7709 11.6213 15.9011 13 15.9011C14.3787 15.9011 15.5 14.7709 15.5 13.3811C15.5 12.6843 16.06 12.121 16.75 12.121H22.5162L20.4538 5.88637C19.9425 4.33905 18.5125 3.30078 16.8963 3.30078H9.10374C7.48749 3.30078 6.05748 4.33905 5.54623 5.88637L3.48378 12.121ZM23 17.1612V14.6411H17.8425C17.2863 16.8134 15.3263 18.4212 13 18.4212C10.6737 18.4212 8.71497 16.8134 8.15747 14.6411H3V17.1612C3 19.2453 4.6825 20.9413 6.75 20.9413H19.25C21.3175 20.9413 23 19.2453 23 17.1612Z" fill="black"/>
</svg>
