<svg width="27" height="24" viewBox="0 0 27 24" fill="none" xmlns="http://www.w3.org/2000/svg">
<path d="M18.9331 9.42395V7C18.9331 4.243 16.5123 2 13.5367 2C10.5612 2 8.14039 4.243 8.14039 7V9.42395C6.23764 10.198 4.90259 11.955 4.90259 14V17C4.90259 19.757 7.32339 22 10.2989 22H16.7745C19.7501 22 22.1709 19.757 22.1709 17V14C22.1709 11.955 20.8358 10.198 18.9331 9.42395ZM10.2989 7C10.2989 5.346 11.7516 4 13.5367 4C15.3218 4 16.7745 5.346 16.7745 7V9H10.2989V7ZM20.0123 17C20.0123 18.654 18.5596 20 16.7745 20H10.2989C8.51382 20 7.06112 18.654 7.06112 17V14C7.06112 12.346 8.51382 11 10.2989 11H16.7745C18.5596 11 20.0123 12.346 20.0123 14V17ZM14.616 15V16C14.616 16.553 14.1325 17 13.5367 17C12.941 17 12.4575 16.553 12.4575 16V15C12.4575 14.447 12.941 14 13.5367 14C14.1325 14 14.616 14.447 14.616 15Z" fill="#1F3C88"/>
</svg>
