<svg width="17" height="20" viewBox="0 0 17 20" fill="none" xmlns="http://www.w3.org/2000/svg">
<path d="M8.07082 10.5C11.0864 10.5 13.5396 8.145 13.5396 5.25C13.5396 2.355 11.0864 0 8.07082 0C5.05519 0 2.60207 2.355 2.60207 5.25C2.60207 8.145 5.05519 10.5 8.07082 10.5ZM8.07082 1.5C10.225 1.5 11.9771 3.182 11.9771 5.25C11.9771 7.318 10.225 9 8.07082 9C5.91665 9 4.16457 7.318 4.16457 5.25C4.16457 3.182 5.91665 1.5 8.07082 1.5ZM16.1437 15.717V16.728C16.1437 17.663 15.7885 18.559 15.1427 19.25C14.9885 19.416 14.775 19.5 14.5604 19.5C14.375 19.5 14.1885 19.437 14.0395 19.309C13.7177 19.033 13.6916 18.559 13.9791 18.25C14.3677 17.833 14.5823 17.293 14.5823 16.729V15.718C14.5823 14.204 13.5364 12.894 12.0375 12.533C11.7739 12.469 11.4906 12.504 11.2604 12.629C9.28021 13.687 6.85726 13.683 4.88955 12.632C4.65414 12.503 4.37083 12.466 4.10728 12.532C2.60833 12.894 1.56142 14.204 1.56142 15.718V16.729C1.56142 17.294 1.77604 17.834 2.16459 18.25C2.45209 18.559 2.42496 19.033 2.10412 19.309C1.78121 19.586 1.2875 19.559 1.00104 19.251C0.355207 18.559 0 17.663 0 16.729V15.718C0 13.516 1.53226 11.608 3.72601 11.078C4.37496 10.92 5.08018 11.01 5.65726 11.326C7.14684 12.122 8.99272 12.125 10.4948 11.323C11.0646 11.011 11.7698 10.922 12.4208 11.079C14.6115 11.606 16.1437 13.514 16.1437 15.717Z" fill="#070D59"/>
</svg>
