<svg width="55" height="64" viewBox="0 0 55 64" fill="none" xmlns="http://www.w3.org/2000/svg">
<path d="M33.8318 33.6174C33.8318 33.6174 35.9679 38.0863 36.8156 39.1238C37.6564 40.1614 39.2636 42.6365 40.2062 45.3626C41.42 48.855 43.1018 51.5268 45.0887 53.5816C46.2958 54.8361 46.5535 57.6164 46.6688 58.281L48.4455 57.9962L49.4559 56.9383C49.4559 56.9383 47.1706 50.9708 46.7705 49.3432C46.3772 47.7225 44.4852 43.5656 43.6511 41.7957C42.817 40.0325 40.9657 36.669 40.8233 36.1808C40.6809 35.6993 39.7383 32.8172 38.7957 31.2169L33.8318 33.6174Z" fill="#F9C99B"/>
<path d="M49.3746 56.5585C49.3746 56.5585 49.7069 57.196 50.4054 57.4266C51.2192 57.6979 52.0127 57.9895 52.7451 58.003C53.0774 58.0098 53.7759 58.7151 53.7284 58.9592C53.7284 58.9592 53.3758 59.6306 51.2938 60.3224C49.7001 60.8581 48.6218 59.0135 47.3604 59.4272C46.9942 59.556 46.6348 59.1627 46.5399 58.8779C46.4653 58.6609 46.5195 57.9217 46.4246 57.6572C46.3974 57.5758 46.567 57.6165 46.567 57.6165C46.567 57.6165 46.7976 57.6911 47.5435 57.786C48.1132 57.8606 49.4289 57.135 49.3136 56.7213C49.2661 56.5653 49.3746 56.5585 49.3746 56.5585Z" fill="#474443"/>
<path d="M53.7286 58.9187C53.7353 58.939 53.7353 58.9526 53.7286 58.9729C53.7286 58.9729 53.3827 59.6375 51.2939 60.336C49.7002 60.865 48.622 59.0204 47.3606 59.4408C46.9944 59.5629 46.6349 59.1696 46.54 58.8915L46.5332 58.8441C46.54 59.0882 46.54 59.3188 46.5807 59.4273C46.6756 59.7121 47.0418 60.0987 47.4216 59.9698C48.7305 59.5358 49.8291 61.3736 51.4838 60.8175C53.654 60.0987 54.027 59.4205 54.027 59.4205C54.0473 59.312 53.9117 59.1018 53.7286 58.9187Z" fill="#C9CACA"/>
<path d="M35.0661 37.3675C35.0661 37.3675 32.7944 41.7822 31.8518 42.7315C30.9092 43.6809 29.0579 45.9798 27.8373 48.5906C26.2776 51.9405 24.3314 54.4293 22.1478 56.2738C20.8187 57.3927 20.2761 60.1391 20.0998 60.7901L18.3638 60.3222L17.4619 59.1694C17.4619 59.1694 20.344 53.4595 20.9 51.8863C21.4561 50.313 23.7617 46.3663 24.7721 44.6981C25.7826 43.0231 27.9661 39.863 28.156 39.3951C28.3527 38.9272 29.5801 36.1605 30.6854 34.6686L35.0661 37.3675Z" fill="#F9C99B"/>
<path d="M17.5841 58.7964C17.5841 58.7964 17.1908 59.4 16.4652 59.556C15.631 59.7391 14.8172 59.9561 14.0848 59.8951C13.7457 59.868 12.9862 60.4919 13.0065 60.7428C13.0065 60.7428 13.2913 61.4481 15.2919 62.35C16.8246 63.0418 18.086 61.3125 19.2931 61.8618C19.6458 62.0177 20.0391 61.6651 20.168 61.3938C20.2561 61.1904 20.2832 60.4444 20.3985 60.1867C20.4392 60.1121 20.2697 60.1392 20.2697 60.1392C20.2697 60.1392 20.0255 60.1867 19.2796 60.207C18.7099 60.2206 17.4688 59.3593 17.6248 58.966C17.6859 58.81 17.5841 58.7964 17.5841 58.7964Z" fill="#474443"/>
<path d="M13.0067 60.702C13.0067 60.7156 12.9999 60.7359 13.0067 60.7563C13.0067 60.7563 13.2848 61.4548 15.2854 62.3568C16.818 63.0485 18.0794 61.3259 19.2866 61.8685C19.646 62.0245 20.0393 61.6718 20.1614 61.4005L20.175 61.3598C20.1478 61.604 20.1139 61.8346 20.0732 61.9363C19.9512 62.2076 19.5443 62.5602 19.1781 62.3907C17.9167 61.821 16.6417 63.5436 15.048 62.8247C12.966 61.882 12.6609 61.1767 12.6609 61.1767C12.6473 61.0615 12.8033 60.8716 13.0067 60.702Z" fill="#C9CACA"/>
<path d="M10.4092 30.227L10.2194 32.7702C10.2194 32.7702 12.3217 32.9261 13.1016 32.9872C13.8815 33.0414 15.4819 31.7597 15.5701 30.6068C15.6583 29.4539 14.2545 27.9484 13.4746 27.8941C12.6947 27.8331 10.5991 27.6771 10.5991 27.6771L10.4092 30.227Z" fill="#F9C99B"/>
<path d="M10.7214 32.8107C10.6264 32.804 10.545 32.7972 10.4704 32.7904C10.5383 32.7972 10.6264 32.804 10.7214 32.8107ZM10.2195 32.7701C10.1517 32.7701 10.1178 32.7633 10.1178 32.7633L10.3077 30.2201L10.4908 27.6702C10.4908 27.6702 10.5315 27.677 10.5993 27.6838L10.4094 30.2269L10.2195 32.7701Z" fill="#EEEEEF"/>
<path d="M10.7212 32.8108C10.6263 32.8041 10.5381 32.7973 10.4703 32.7905C10.3686 32.7837 10.2872 32.7769 10.2194 32.7702L10.4092 30.227L10.5991 27.6839C10.6941 27.6907 10.8501 27.6975 11.0399 27.711C12.0436 28.5452 12.4641 29.5353 12.4031 30.3152C12.3488 31.068 11.7452 32.0377 10.7212 32.8108Z" fill="#E9BD92"/>
<path d="M1.38342 29.5014C1.38342 29.5014 1.41733 25.6901 5.94749 26.0224C10.4912 26.3615 12.268 28.7351 12.1595 30.2949C12.0374 31.8547 9.57569 34.3435 5.92714 34.0723C2.27182 33.8078 1.30204 32.0242 1.38342 29.5014Z" fill="#F9C99B"/>
<path d="M6.59137 26.2463C6.59137 26.2463 5.85217 26.0768 5.98102 25.6834C6.10988 25.2833 7.23563 25.3986 7.75782 25.8123C8.28001 26.2192 8.09691 26.4159 8.09691 26.4159L6.59137 26.2463Z" fill="#F9C99B"/>
<path d="M6.02182 33.9702C6.02182 33.9702 5.26227 34.0312 5.33009 34.4449C5.39791 34.8586 6.53045 34.8992 7.11367 34.5737C7.69012 34.2414 7.53414 34.0176 7.53414 34.0176L6.02182 33.9702Z" fill="#F9C99B"/>
<path d="M3.92659 25.9616C2.94325 26.3075 2.28543 26.8229 1.85818 27.3586C1.75646 27.4332 0.92909 28.0029 0.590006 28.4844C0.590006 28.4844 0.854492 28.3352 1.15967 28.3013C1.15967 28.3013 0.732421 28.4776 0.488281 28.8642C0.24414 29.2507 0 29.3796 0 29.3796C0 29.3796 0.528971 29.5898 0.569661 29.8679C0.569661 29.8679 0.474718 29.6915 0.223795 29.6237C0.223795 29.6237 0.691731 30.112 1.12576 31.4209C1.1461 31.4819 1.16645 31.5429 1.18679 31.604L1.20036 31.6514C1.47162 32.3907 2.0345 33.1841 3.17383 33.8012C3.75027 34.1064 4.13682 34.1675 4.67936 34.242C4.89637 34.276 5.23546 34.2488 5.43213 34.2285C5.4796 34.2217 5.57454 34.2149 5.62201 34.2081C6.46294 34.1675 7.26996 33.8691 7.26996 33.8691C7.26996 33.8691 6.85628 33.7334 6.80881 33.6046C6.78168 33.53 5.79155 33.8487 4.93028 33.6656C4.50304 33.5435 3.50613 33.0892 3.41119 32.7976C3.13992 32.0109 4.32671 31.5362 4.45556 29.9153L4.46235 29.9086H4.45556C4.56407 28.2877 3.479 27.6435 3.84521 26.8975C4.28602 26.0091 7.05295 26.3685 7.09364 26.3007C7.16145 26.1786 7.56157 26.2058 7.56157 26.2058C7.56157 26.2058 6.08995 25.2089 3.92659 25.9616Z" fill="#693823"/>
<path d="M15.0273 16.6236L14.4101 25.7449C14.3152 26.7079 15.0137 27.5624 15.9699 27.6574C16.9329 27.7591 17.6246 26.986 17.7196 26.0298C17.7196 26.0298 18.1129 20.8079 18.0451 16.3252C18.0451 16.3252 15.4206 16.454 15.0273 16.6236Z" fill="#F9C99B"/>
<path d="M16.6008 7.25861C17.0009 9.46943 18.0859 15.4983 18.0385 16.7869C18.0046 17.6956 17.1433 18.0211 16.6821 18.0618C15.7191 18.1432 15.2309 17.838 15.0138 16.6309C14.6205 14.4675 14.7494 10.7105 14.7155 7.6316L16.6008 7.25861Z" fill="#F9C99B"/>
<path d="M14.4714 21.4249L14.329 25.4396C14.1933 26.6942 14.9597 27.5826 15.9227 27.7454C16.8924 27.9082 17.7876 27.2639 17.9368 26.3145C17.9368 26.3145 17.9979 24.3817 18.242 21.2621C16.845 21.2485 15.2445 21.3299 14.4714 21.4249Z" fill="#90C42F"/>
<path d="M15.9767 0.117948L15.875 0.199329C15.9632 0.20611 16.0513 0.253582 16.1124 0.328181C16.2412 0.490941 16.2005 0.762208 16.0174 0.918187L14.7764 1.92866L14.8713 2.77637C14.8713 2.77637 14.973 3.23074 15.2172 3.5427C15.2443 3.57661 15.2714 3.60373 15.2986 3.63086L15.3121 3.64442C15.3325 3.66477 15.3528 3.69189 15.3867 3.71224L15.4071 3.7258C15.4274 3.73937 15.4545 3.75293 15.4817 3.77327L15.5088 3.78684C15.5427 3.8004 15.5766 3.81396 15.6173 3.82753C15.6173 3.82753 15.4003 3.6512 15.2986 3.00694L15.1494 1.77268L16.4447 0.721518C16.6278 0.558758 16.6685 0.294272 16.5396 0.131512C16.404 -0.0380302 16.1598 -0.0448119 15.9767 0.117948Z" fill="#F7C197"/>
<path d="M15.5496 0.314621L14.0915 1.50142C13.9491 1.62349 13.8949 1.81337 13.9423 1.96935L14.1051 3.44098V3.45454L14.1187 3.53592L14.1322 3.63086C14.1322 3.66477 14.1458 3.69868 14.1526 3.73259L14.5662 5.95698L14.729 7.74056L16.6347 7.44217L16.7567 5.61111C16.8517 5.52973 16.7093 4.248 16.7093 4.248C16.7093 4.248 16.7296 3.36638 16.7228 3.26465L16.5533 1.82694C16.5261 1.56245 16.2888 1.37935 16.0514 1.40647C15.8005 1.4336 15.631 1.67096 15.6581 1.92866L15.8209 3.27822C15.8276 3.49523 15.9361 3.80041 15.6717 3.83431C15.6513 3.83431 15.631 3.83431 15.6174 3.82753C15.0681 3.6919 14.8714 2.77637 14.8714 2.77637L14.7765 1.92866L16.0175 0.918191C16.2006 0.762212 16.2413 0.490945 16.1125 0.328185C15.9836 0.158643 15.7327 0.158643 15.5496 0.314621Z" fill="#F9C99B"/>
<path d="M15.0884 44.2717L14.0712 35.1842C13.9355 34.228 14.5934 33.3464 15.5564 33.204C16.5058 33.0683 17.2314 33.8007 17.3671 34.757C17.3671 34.757 17.991 39.9585 18.1131 44.4412C18.1131 44.4412 15.4818 44.4209 15.0884 44.2717Z" fill="#F9C99B"/>
<path d="M17.0619 53.5551C17.3671 51.3307 18.1877 45.2678 18.086 43.9725C18.0181 43.0706 17.1433 42.779 16.6754 42.7586C15.7124 42.7179 15.2377 43.0434 15.0749 44.2641C14.7697 46.4411 15.0613 50.1846 15.1631 53.2634L17.0619 53.5551Z" fill="#F9C99B"/>
<path d="M14.3221 39.4974L14.0101 35.4962C13.8135 34.2416 14.5459 33.326 15.5021 33.1226C16.4583 32.9191 17.3806 33.5227 17.5637 34.4654C17.5637 34.4654 17.7129 36.3846 18.0995 39.4974C16.6957 39.572 15.0952 39.5584 14.3221 39.4974Z" fill="#90C42F"/>
<path d="M16.7499 60.7158L16.6414 60.6344C16.7363 60.6276 16.8245 60.5869 16.8787 60.5056C17.0008 60.336 16.9465 60.0647 16.7634 59.9155L15.4681 58.9593L15.536 58.1116C15.536 58.1116 15.6106 57.6505 15.8479 57.3249C15.8683 57.2978 15.8954 57.2639 15.9225 57.2368L15.9361 57.2232C15.9564 57.2029 15.9768 57.1757 16.0039 57.1554L16.0242 57.1351C16.0446 57.1215 16.0717 57.1079 16.0988 57.0876L16.126 57.074C16.1599 57.0537 16.1938 57.0401 16.2277 57.0266C16.2277 57.0266 16.0242 57.2097 15.9496 57.8607L15.8547 59.1017L17.1975 60.0919C17.3806 60.2478 17.4348 60.5123 17.3128 60.6819C17.1907 60.8582 16.933 60.8718 16.7499 60.7158Z" fill="#F7C197"/>
<path d="M16.316 60.5398L14.8104 59.4208C14.6612 59.2987 14.6002 59.1156 14.6341 58.9597L14.7426 57.4812V57.4609L14.7494 57.3863L14.7562 57.2914C14.7562 57.2575 14.7698 57.2235 14.7765 57.1896L15.0885 54.9449L15.1699 53.1613L17.0891 53.3715L17.2993 55.1958C17.3875 55.2772 17.2993 56.5657 17.2993 56.5657C17.2993 56.5657 17.3671 57.4406 17.3536 57.5423L17.2519 58.9868C17.2315 59.2513 17.0077 59.4479 16.7636 59.4276C16.5262 59.414 16.3431 59.1834 16.3567 58.9257L16.4584 57.5694C16.4584 57.3456 16.5466 57.0404 16.2889 57.0201C16.2685 57.0201 16.2482 57.0201 16.2278 57.0269C15.6853 57.1896 15.5361 58.1119 15.5361 58.1119L15.4683 58.9597L16.7636 59.9159C16.9467 60.0651 17.0009 60.3363 16.8789 60.5059C16.7568 60.6754 16.5059 60.689 16.316 60.5398Z" fill="#F9C99B"/>
<path d="M33.8319 27.4465C33.8319 27.4465 37.8803 28.735 39.9215 32.1527C41.6032 34.967 42.7221 37.944 44.0581 40.8938L39.0467 44.1895C39.0467 44.1895 35.7645 37.3879 34.8626 38.812C32.4824 42.5824 31.0244 44.5489 30.0547 46.2375L24.9348 44.4404C24.9348 44.4404 26.5352 39.4426 28.1152 36.3165L33.8319 27.4465Z" fill="#3C3736"/>
<path d="M35.344 28.1856C35.344 28.1856 32.5976 26.5377 28.244 25.9003C21.5509 24.9238 14.7967 24.7949 14.7967 24.7949L13.6778 27.9347C13.6778 27.9347 15.3121 29.1282 15.2782 30.6811C15.2511 31.8407 13.3387 32.9664 13.3387 32.9664L14.0982 36.6215C14.0982 36.6215 25.1857 33.2715 28.1152 36.3163C28.1152 36.3163 30.8752 35.3195 32.1026 33.97C34.042 31.8339 35.344 28.1856 35.344 28.1856Z" fill="#90C42F"/>
</svg>
