<svg width="26" height="59" viewBox="0 0 26 59" fill="none" xmlns="http://www.w3.org/2000/svg">
<path d="M9.69055 42.6167L13.9284 41.1685L14.7952 42.9149L14.121 43.2059C14.121 43.2059 13.7036 42.9149 13.3184 43.4757C12.9171 44.0649 11.7774 44.6684 11.7774 44.6684L9.69055 42.6167Z" fill="#F0BD91"/>
<path d="M14.1211 43.2628C14.1211 43.2628 14.6187 43.1421 15.0922 43.3693C15.63 43.632 16.1758 43.8734 16.545 44.2141C16.7135 44.3703 17.4359 44.3916 17.5402 44.2567C17.5402 44.2567 17.7168 43.8024 17.0587 42.5245C16.553 41.5448 15.0441 41.843 14.6508 41.0692C14.5304 40.842 14.1452 40.8491 13.9525 40.9272C13.8 40.984 13.4308 41.3318 13.2462 41.4099C13.19 41.4312 13.2944 41.488 13.2944 41.488C13.2944 41.488 13.4469 41.5661 13.8642 41.8714C14.1853 42.1057 14.4502 43.0428 14.1773 43.1634C14.0649 43.2131 14.1211 43.2628 14.1211 43.2628Z" fill="#474443"/>
<path d="M17.5162 44.2777L17.5483 44.2564C17.5483 44.2564 17.7248 43.8021 17.0667 42.5171C16.5611 41.5374 15.0521 41.8427 14.6508 41.0689C14.5385 40.8417 14.1532 40.8417 13.9525 40.9198L13.9285 40.934C14.0569 40.8346 14.1853 40.7352 14.2575 40.7068C14.4582 40.6287 14.8435 40.6287 14.9638 40.863C15.3812 41.6652 16.8901 41.3741 17.4199 42.3964C18.1021 43.724 17.9335 44.1925 17.9335 44.1925C17.8854 44.2564 17.7088 44.2848 17.5162 44.2777Z" fill="#C9CACA"/>
<path d="M12.9493 43.0853C12.7005 44.2069 12.0744 44.8175 10.8625 44.8175C9.57026 44.8175 9.34553 44.4341 8.82383 43.0853C8.18976 41.4311 8.51883 36.0641 8.51883 36.0641C8.51883 35.1128 9.57026 34.3319 10.8625 34.3319C12.1627 34.3319 13.2141 35.1128 13.2141 36.0641C13.2141 36.0641 13.3265 41.3672 12.9493 43.0853Z" fill="#F9C99B"/>
<path d="M14.9558 45.9746C14.9478 47.6571 15.1966 49.1977 15.6461 50.6175C16.0875 52.0231 15.0441 54.1884 14.8354 54.7209L16.4487 55.2249L17.773 54.8415C17.773 54.8415 18.5676 49.5171 18.9689 48.1541C19.1054 47.6997 19.2258 46.9756 19.3301 46.1521L14.9558 45.9746Z" fill="#F9C99B"/>
<path d="M15.0436 42.9006C14.9313 43.9583 14.9072 44.9522 14.9554 45.9035L19.3858 45.8112C19.45 44.221 19.442 42.3752 19.4259 41.3671C19.3938 39.7201 19.1129 36.5042 19.1771 36.0782C19.2494 35.6593 19.5624 33.1178 19.3698 31.5702L14.1287 31.6838C14.1287 31.6838 14.225 35.851 14.554 36.9372C14.8751 38.0305 15.2925 40.4797 15.0436 42.9006Z" fill="#F9C99B"/>
<path d="M14.1134 9.52002H11.4889C11.4889 9.52002 11.4889 11.4368 11.4889 12.1538C11.4889 12.8638 12.9256 14.2339 14.1134 14.2339H14.1215C15.3093 14.2339 16.746 12.8638 16.746 12.1538C16.746 11.4368 16.746 9.52002 16.746 9.52002H14.1134Z" fill="#F9C99B"/>
<path d="M16.746 9.9248C16.746 9.68343 16.746 9.52015 16.746 9.52015H11.4889C11.4889 9.46335 11.4889 9.42786 11.4889 9.42786H16.746C16.746 9.42786 16.746 9.63373 16.746 9.9248Z" fill="#EEEEEF"/>
<path d="M14.1777 11.3445C13.3991 11.3445 12.3557 10.8547 11.4889 9.97437C11.4889 9.78269 11.4889 9.61941 11.4889 9.52002H16.746C16.746 9.52002 16.746 9.6833 16.746 9.92468C15.9675 10.8973 14.9883 11.3445 14.1777 11.3445Z" fill="#E9BD92"/>
<path d="M14.1773 1.27071C14.1773 1.27071 18.0941 1.04353 18.0941 5.18948C18.0941 9.32833 15.7906 11.1102 14.1773 11.1102C12.5721 11.1102 9.81909 9.03726 9.81909 5.70063C9.81909 2.37109 11.5768 1.363 14.1773 1.27071Z" fill="#F9C99B"/>
<path d="M17.9174 5.78576C17.9174 5.78576 18.0378 5.09713 18.4551 5.18942C18.8725 5.28171 18.8323 6.3111 18.4551 6.81514C18.0699 7.31919 17.8531 7.163 17.8531 7.163L17.9174 5.78576Z" fill="#F9C99B"/>
<path d="M9.93956 5.78576C9.93956 5.78576 9.81917 5.09713 9.40181 5.18942C8.98445 5.28171 9.01655 6.3111 9.40181 6.81514C9.78707 7.31919 10.0038 7.163 10.0038 7.163L9.93956 5.78576Z" fill="#F9C99B"/>
<path d="M17.8689 54.6C17.8689 54.6 17.8047 55.2034 18.2381 55.6932C18.7438 56.2541 19.2173 56.8291 19.7952 57.177C20.0601 57.3403 20.2447 58.1567 20.0761 58.3058C20.0761 58.3058 19.4501 58.611 17.4275 58.1354C15.8864 57.7733 15.9908 55.9772 14.7708 55.6861C14.4177 55.6081 14.3374 55.1608 14.4096 54.9194C14.4658 54.7349 14.8912 54.2379 14.9554 54.0107C14.9795 53.9397 15.0838 54.0462 15.0838 54.0462C15.0838 54.0462 15.2363 54.2095 15.7821 54.6213C16.1914 54.9336 17.6201 55.033 17.7405 54.6923C17.7886 54.5574 17.8689 54.6 17.8689 54.6Z" fill="#474443"/>
<path d="M20.1006 58.2776C20.0925 58.2918 20.0845 58.306 20.0765 58.3131C20.0765 58.3131 19.4424 58.6184 17.4278 58.1427C15.8788 57.7807 15.9912 55.9846 14.7712 55.6935C14.418 55.6154 14.3378 55.1681 14.41 54.9268L14.418 54.8984C14.2976 55.0688 14.1772 55.232 14.1532 55.3243C14.0809 55.5657 14.1692 56.013 14.5384 56.0981C15.8066 56.3963 15.7183 58.1995 17.3235 58.5758C19.4183 59.0727 20.0684 58.7675 20.0684 58.7675C20.1487 58.7036 20.1487 58.4977 20.1006 58.2776Z" fill="#C9CACA"/>
<path d="M13.985 39.2304L14.0653 33.054L14.2178 39.2233H19.82L19.5873 29.1495H8.50314L8.33459 39.4788L13.985 39.2304Z" fill="#3C3736"/>
<path d="M20.3415 13.8293C19.1537 13.1265 17.7812 12.587 16.7458 12.09C16.7458 12.09 15.8308 13.5738 14.2095 13.5738C12.3475 13.5738 11.4887 12.09 11.4887 12.09C10.4453 12.587 8.78385 13.0626 7.604 13.7654L8.51096 19.2035L8.33439 32.0176H19.8198L19.4908 19.2035L20.3415 13.8293Z" fill="#0079AC"/>
<path d="M18.0057 3.34373C17.5803 2.47053 17.0024 1.90969 16.4084 1.55473C16.3282 1.46954 15.6781 0.759617 15.1644 0.482747C15.1644 0.482747 15.341 0.709922 15.3971 0.979693C15.3971 0.979693 15.1885 0.603434 14.7631 0.411755C14.3457 0.212977 14.1932 0 14.1932 0C14.1932 0 14.0247 0.504045 13.7357 0.55374C13.7357 0.55374 13.9123 0.45435 13.9605 0.220076C13.9605 0.220076 13.4949 0.681526 12.1867 1.16427C12.1305 1.18557 12.0663 1.20687 12.0021 1.23527L11.9539 1.24946C11.2155 1.54053 10.445 2.10847 9.89922 3.18755C9.62633 3.73419 9.59423 4.08205 9.55409 4.579C9.53804 4.78488 9.59423 5.09014 9.62633 5.26762C9.63436 5.30312 9.65041 5.39541 9.65843 5.43801C9.7708 6.19762 10.132 6.90755 10.132 6.90755C10.132 6.90755 10.2443 6.53129 10.3728 6.47449C10.445 6.4461 10.0437 5.56579 10.1721 4.77068C10.2604 4.38022 10.6457 3.44312 10.9426 3.32954C11.7292 3.03137 12.3071 4.08205 13.9845 4.09625H13.9926C15.67 4.08205 16.2399 3.04557 17.0345 3.32954C17.9816 3.6703 17.8291 6.21182 17.9013 6.24732C18.0297 6.29701 18.0297 6.65907 18.0297 6.65907C18.0297 6.65907 18.9447 5.26053 18.0057 3.34373Z" fill="#693823"/>
<path d="M19.3863 45.8113L19.3301 46.152L14.9558 45.9746V45.8397L19.3863 45.8113Z" fill="#F9C99B"/>
<path d="M0.805786 20.3819L6.79331 14.2908C7.39527 13.5951 8.51894 13.4602 9.3055 13.9855C10.0921 14.518 10.2446 15.5119 9.6426 16.2076C9.6426 16.2076 6.17529 19.1467 3.20561 22.107C3.20561 22.107 0.974336 20.7298 0.805786 20.3819Z" fill="#F9C99B"/>
<path d="M9.30487 13.9855C8.51831 13.4602 7.39464 13.5951 6.79268 14.2908L3.88721 16.8252C4.74601 17.812 5.40415 18.2806 6.34322 19.5087C8.51028 17.3435 9.64197 16.2076 9.64197 16.2076C10.2439 15.5119 10.0914 14.518 9.30487 13.9855Z" fill="#0079AC"/>
<path d="M1.91315 20.5024C1.91315 20.5024 6.15899 24.0379 9.02433 25.5997L8.36619 26.8562C4.05613 24.7194 2.77195 24.5916 0.267782 22.2701C-0.277998 21.7661 0.179494 21.0846 0.179494 21.0846C0.604881 20.403 0.958033 20.0765 1.91315 20.5024Z" fill="#F9C99B"/>
<path d="M9.8834 25.2945L10.8385 24.7549C10.999 24.6698 11.288 24.5065 11.288 24.5065C11.288 24.5065 11.6973 24.9466 11.28 25.2022L10.5897 25.5927L11.8418 26.1251L12.3153 26.331C12.4518 26.3807 12.4999 26.5156 12.4357 26.6362L12.4036 26.7072C12.3394 26.8208 12.1869 26.8705 12.0585 26.8137L11.585 26.6149L11.5689 26.6433L12.0424 26.8421C12.1709 26.8989 12.219 27.0338 12.1628 27.1474L12.1147 27.2184C12.0585 27.332 11.906 27.3817 11.7776 27.332L11.304 27.1261L11.28 27.1616L11.7535 27.3675C11.8819 27.4172 11.9381 27.552 11.8739 27.6656L11.8338 27.7437C11.7776 27.8573 11.6171 27.907 11.4886 27.8502L11.0151 27.6514L10.999 27.6798L11.4726 27.8857C11.601 27.9354 11.6572 28.0774 11.593 28.191L11.5528 28.262C11.4886 28.3755 11.3361 28.4252 11.2077 28.3684L10.7342 28.1697L9.82722 27.7792L9.40986 27.6017L8.04541 26.6717L8.67948 25.4081L9.8834 25.2945Z" fill="#F9C99B"/>
<path d="M25.719 21.7235L21.3126 14.8231C20.8953 14.0493 19.8439 13.7227 18.969 14.0919C18.0942 14.4681 17.9015 15.3697 18.3269 16.1435C18.3269 16.1435 20.6063 19.5938 23.0142 22.9659C23.0142 22.9659 25.4702 22.0288 25.719 21.7235Z" fill="#F9C99B"/>
<path d="M24.7395 27.6231C25.1489 25.7418 26.096 23.25 25.9114 22.0857C25.7829 21.2693 24.7315 21.1486 24.7315 21.1486C23.7202 20.9995 23.1183 21.0421 22.8534 22.1354C22.8534 22.1354 22.8534 24.7266 23.1584 27.5237L24.7395 27.6231Z" fill="#F9C99B"/>
<path d="M23.3587 17.7976L21.304 14.6739C20.9347 13.8575 19.8833 13.467 18.9683 13.8007C18.0534 14.1273 17.6119 15.0573 17.9811 15.8666C17.9811 15.8666 18.8078 16.7398 20.2365 19.2884C21.4484 18.6353 23.3346 17.7905 23.3587 17.7976Z" fill="#0079AC"/>
<path d="M22.4358 28.2762L21.4245 28.7305C21.2639 28.8015 20.9509 28.9435 20.9509 28.9435C20.9509 28.9435 21.1676 29.483 21.6412 29.2914L22.3635 28.9648L22.2431 30.193L22.195 30.6615C22.187 30.7822 22.2913 30.8958 22.4358 30.9029L22.5241 30.91C22.6685 30.9242 22.7889 30.8319 22.805 30.7041L22.8531 30.2427H22.8852L22.8451 30.7112C22.8291 30.8319 22.9334 30.9455 23.0779 30.9526L23.1662 30.9597C23.3106 30.9739 23.439 30.8816 23.4471 30.7538L23.4952 30.2924H23.5434L23.4952 30.7609C23.4792 30.8816 23.5835 30.9952 23.728 31.0094H23.8243C23.9607 31.0236 24.0892 30.9313 24.0972 30.8035L24.1453 30.3421L24.1855 30.3492L24.1453 30.8106C24.1293 30.9313 24.2336 31.0449 24.3781 31.0591L24.4664 31.0662C24.6109 31.0733 24.7393 30.981 24.7473 30.8603L24.7955 30.3918L24.8838 29.5043L24.9239 29.0997L24.7232 27.5805L23.1662 27.4172L22.4358 28.2762Z" fill="#F9C99B"/>
</svg>
